<svg width="237" height="79" viewBox="0 0 237 79" fill="none" xmlns="http://www.w3.org/2000/svg">
<path d="M30.1654 20.6635C32.1995 18.243 33.2076 15.1385 32.9785 12C29.8608 12.2974 26.9829 13.7831 24.9547 16.1422C23.9448 17.2722 23.1707 18.5883 22.677 20.0149C22.1832 21.4414 21.9796 22.9504 22.0777 24.455C23.6308 24.4851 25.1697 24.1583 26.5731 23.5004C27.9766 22.8424 29.2063 21.8713 30.1654 20.6635ZM32.7867 25.0269C28.3113 24.771 24.5392 27.5546 22.3974 27.5546C20.2556 27.5546 16.9949 25.1659 13.4786 25.2291C11.1761 25.2933 8.93103 25.9535 6.96765 27.1439C5.00426 28.3343 3.39135 30.0132 2.2901 32.0127C-2.50496 40.2276 1.01142 52.4646 5.67861 59.1534C7.94827 62.332 10.6655 66.1203 14.2777 65.9971C17.89 65.8738 19.0089 63.7854 23.1326 63.7854C27.2564 63.7854 28.4711 65.9971 32.0514 65.9181C35.6317 65.8391 38.1252 62.7332 40.3629 59.283C41.9769 56.9263 43.2368 54.3508 44.103 51.6368C41.9534 50.6962 40.1248 49.1615 38.8373 47.2174C37.5499 45.2734 36.8585 43.0029 36.8465 40.6794C36.873 38.6178 37.4224 36.5958 38.4444 34.7985C39.4665 33.0011 40.9284 31.486 42.6964 30.3919C41.5731 28.8043 40.0947 27.494 38.3762 26.5625C36.6576 25.631 34.7449 25.1033 32.7867 25.0206M61.3332 18.6509V27.6715H68.6217V33.6273H61.3332V54.9702C61.3332 58.155 62.7717 59.779 65.9684 59.779C66.8451 59.7634 67.7202 59.7001 68.5897 59.5895V65.5926C67.1632 65.821 65.7193 65.9267 64.2742 65.9086C56.73 65.9086 53.821 63.0113 53.821 55.7474V33.7694H48.0989V27.7979H53.6611V18.6572L61.3332 18.6509ZM94.0994 65.58H86.1077L72.6815 27.7979H80.6413L90.0716 58.155H90.2634L99.6937 27.7979H107.494L94.0994 65.58ZM129.199 65.58H122.294V50.0981H107.462V43.2798H122.262V27.7979H129.167V43.2798H144V50.0981H129.199V65.58Z" fill="white"/>
</svg>
