<svg width="237" height="79" viewBox="0 0 237 79" fill="none" xmlns="http://www.w3.org/2000/svg">
<path d="M86.0399 50.6347C86.0399 50.6347 90.8141 50.3953 92.628 49.9797C93.4676 49.7868 93.1014 49.0217 93.0296 48.8716C93.0216 48.855 93.0173 48.8459 93.0185 48.8459C91.8974 46.5785 90.5874 46.7044 90.5874 46.7044C86.8335 46.5785 81.3792 47.5736 80.7871 47.8634C80.2329 48.1153 80.2832 48.531 81.0139 49.4506C81.7949 50.4079 83.1049 50.3198 83.1049 50.3198L81.9586 52.7006C81.0265 52.7762 80.6989 53.0659 80.6989 53.0659C80.1573 53.6328 80.9005 55.3459 80.9005 55.3459C80.9005 55.3459 79.2629 59.0117 80.447 60.939C81.7193 62.9671 83.2183 62.8663 83.2183 62.8663C86.0777 63.0805 90.7637 60.0824 91.0156 59.0998C91.2298 58.2936 90.4992 57.4244 89.8442 57.2607C89.2269 57.1347 84.5283 58.0165 83.9615 58.1677C83.3569 58.3314 83.6214 57.7646 83.6214 57.7646L84.352 55.3082C84.352 55.3082 88.8364 55.1444 89.4915 55.031C90.0961 54.9302 90.1339 54.502 90.1339 54.502C90.1339 54.502 90.2095 53.7965 90.1843 53.1415C90.1213 52.4361 89.5544 52.499 89.5544 52.499C87.8161 52.3227 85.4353 52.5242 85.4353 52.5242L86.0399 50.6347Z" fill="white"/>
<path d="M75.1816 60.7122C76.7562 61.4681 78.0284 60.2588 78.5071 59.125C78.9858 57.9913 79.8172 54.2248 78.5953 50.0048C77.3608 45.8227 74.7911 44.5378 74.7911 44.5378C74.7911 44.5378 74.1235 44.2228 73.9597 44.8905C73.7833 45.5455 74.0353 46.251 74.0353 46.251C75.6855 51.8692 76.0634 55.1822 76.0634 55.1822C76.0634 55.1822 76.1389 56.1647 75.95 56.2151C75.824 56.3159 75.6729 56.1773 75.6729 56.1773C75.4839 56.1899 73.67 53.1415 73.67 53.1415L73.3173 52.5494C71.3144 49.3246 70.1051 48.2287 70.1051 48.2287L70.0909 48.2151C69.8036 47.9403 69.0822 47.2503 68.1904 48.2413C67.2834 49.2616 66.578 52.5116 66.2883 55.5601C66.049 58.6086 66.2379 60.3469 66.6788 61.0776C67.1701 61.8208 68.1148 62.0727 68.8958 61.4429C69.5217 60.9614 69.5808 58.5 69.6302 56.4441C69.6454 55.8105 69.6597 55.2154 69.6894 54.7287C69.8154 52.6628 70.0169 53.0281 70.0169 53.0281C70.1933 52.9903 71.138 54.8799 71.138 54.8799C71.138 54.8799 73.6196 59.9564 75.1816 60.7122Z" fill="white"/>
<path d="M65.8041 48.5545C65.8312 48.494 65.8575 48.4353 65.8852 48.3798C66.0427 48.0334 65.9639 47.7744 65.9406 47.6978C65.9359 47.6824 65.9335 47.6744 65.9356 47.6744C64.8271 46.4399 58.7933 46.6541 58.7933 46.6541C56.6014 46.8556 51.525 47.75 50.7944 50.0678C50.1015 52.2849 50.7314 53.0659 50.7314 53.0659C51.271 54.0588 54.5472 54.1456 56.2116 54.1896C56.49 54.197 56.7233 54.2032 56.8912 54.2122C58.113 54.2752 61.2496 54.6531 62.3455 55.283C63.4415 55.9506 62.7234 56.7694 62.7234 56.7694C60.9095 58.7849 54.8253 59.0998 53.2507 58.2055C52.6335 57.7898 52.4823 57.3741 53.1121 56.7064C53.742 55.9758 55.7826 57.0465 55.5559 56.9584C55.3166 56.8324 56.551 57.6386 58.239 57.689C59.9774 57.7268 61.174 57.0843 61.2622 56.4797C61.3378 55.9128 59.7758 55.3459 59.7758 55.3459C54.6237 53.9099 52.5957 55.1318 52.5957 55.1318C49.7866 56.8954 51.8777 59.2258 51.8777 59.2258C56.4125 64.063 63.4415 60.9138 64.2602 60.2336C65.0412 59.5029 65.3939 58.7975 65.4317 56.782C65.4695 54.8169 64.6003 53.9477 64.6003 53.9477C63.1429 52.1258 59.0788 52.0835 57.8579 52.0708L57.8485 52.0707C56.7148 52.0078 54.3718 51.6928 53.805 51.5795C53.2381 51.4535 53.6034 51.0252 53.6034 51.0252C54.0947 50.2946 64.4618 49.5891 64.4618 49.5891C65.4047 49.4466 65.6223 48.9605 65.8041 48.5545Z" fill="white"/>
<path d="M46.0328 61.6696C46.4737 62.2743 48.0231 62.5136 48.7537 61.9719C49.4465 61.4429 49.119 56.3789 49.119 56.3789C49.119 56.3789 48.8671 50.7607 48.7915 49.6899C48.7065 48.6575 48.3404 48.1521 48.0207 47.7108C48.0088 47.6944 47.997 47.6781 47.9853 47.6618C47.683 47.1957 47.2043 46.6037 46.4233 47.2839C45.724 47.9229 45.6248 51.8277 45.5403 55.1546C45.5365 55.3036 45.5327 55.4515 45.5289 55.5979C45.4407 58.9739 45.5919 61.1279 46.0328 61.6696Z" fill="white"/>
<path fill-rule="evenodd" clip-rule="evenodd" d="M45.5037 43.7945C46.7382 44.3236 48.1994 44.563 50.3283 43.8575C53.6538 42.7364 56.8912 39.4612 56.9289 36.8284C56.9919 34.2083 54.0443 34.1957 54.0443 34.1957H53.9561C53.4397 32.5707 50.4039 32.7974 50.4039 32.7974C44.1937 33.3013 42.153 37.6095 41.8507 38.7432C41.6491 39.7257 41.7373 41.187 42.9466 42.2703C42.6326 43.1225 42.8277 43.5355 42.9454 43.7848C42.96 43.8156 42.9733 43.8438 42.9844 43.8701C43.0852 44.1851 43.6268 45.155 44.2315 45.092C44.6472 45.029 44.9621 44.7393 45.5037 43.7945ZM44.1685 40.0533C43.8788 39.6376 43.9039 39.0329 44.5338 38.0251C45.3904 36.6899 46.6374 36.0474 48.1238 35.9215C46.1966 37.2315 44.8865 38.9573 44.1685 40.0533ZM46.7004 41.3885C48.1364 39.2471 51.1597 36.6269 53.1121 36.3372C55.1818 35.9747 54.6139 37.8265 54.5319 38.094C54.5255 38.1147 54.5221 38.1259 54.523 38.1259C52.7972 41.6405 48.9048 41.7916 46.7004 41.3885Z" fill="white"/>
<path fill-rule="evenodd" clip-rule="evenodd" d="M97.2762 61.9341C101.66 62.9293 104.948 58.6715 106.119 56.6308C106.799 55.4089 107.165 53.7713 107.177 52.2219C107.177 50.4709 106.699 48.8459 105.653 48.1027C102.542 45.9486 97.5282 52.7888 95.3237 56.1773C94.9962 54.4516 96.1677 52.2597 96.1677 52.2597C96.1677 52.2597 98.0446 49.0097 98.3092 48.3546C98.5737 47.6996 98.7248 46.3391 98.3973 46.2006C98.1076 46.062 97.6037 46.5029 97.6037 46.5029C93.409 50.282 92.817 54.4642 92.817 54.4642C92.4139 56.719 92.88 58.3062 93.5602 59.4148C91.2298 64.3905 90.0835 68.7365 90.3858 71.3063C90.6629 73.2588 92.0738 74.6697 92.9178 74.972C93.7743 75.3373 93.9255 74.3043 93.9255 74.3043C94.6183 68.9884 95.8276 65.4487 97.2762 61.9341ZM103.726 51.4031C105.036 49.9167 105.212 51.2645 105.212 51.2645C105.514 53.8847 103.612 55.8498 102.794 56.5804C102.29 57.0591 100.627 58.0039 98.9012 58.1929C100.551 55.0058 102.592 52.6502 103.726 51.4031Z" fill="white"/>
<path fill-rule="evenodd" clip-rule="evenodd" d="M34.343 63.6851C42.6443 61.1531 43.8158 56.0262 44.0551 52.9777C44.307 49.8789 42.0144 41.8924 28.5738 35.0775C28.5738 35.0775 14.2261 27.6957 2.44818 31.7771C2.44818 31.7771 1.70497 31.7393 1.02475 32.747C0.950926 32.8509 0.878143 32.9514 0.807494 33.049C0.227148 33.8502 -0.209243 34.4527 0.105187 35.1153C0.457895 35.8585 2.28442 36.186 3.90939 35.6695C3.90939 35.6695 4.64 35.1782 3.69525 34.8759C2.80088 34.5736 2.28442 34.498 2.28442 34.498C2.28442 34.498 1.81834 34.4224 2.32221 34.1705C2.78829 33.9311 8.17968 32.1928 17.7028 34.687C27.2385 37.1308 40.1375 44.8275 39.747 52.8518C39.3691 60.8634 26.8228 61.2161 26.8228 61.2161C26.8228 61.2161 24.2531 61.3421 20.8142 60.6871C20.8024 60.1988 20.7881 59.6453 20.7726 59.0503C20.7052 56.4528 20.6173 53.065 20.6378 50.8614C25.5505 50.8614 30.4885 51.7054 30.9041 52.9147C30.9041 52.9147 31.1561 53.469 30.0476 54.0107C29.0272 54.4516 28.2462 54.8043 29.0902 55.2074C29.0902 55.2074 30.3247 55.7742 31.1183 55.7113C31.8741 55.6483 33.8644 54.7539 34.0281 52.5872C34.2549 50.3828 31.7103 48.4428 27.9061 47.75C24.9837 47.2209 23.4343 47.032 20.8142 47.1579C20.789 44.7771 20.4741 41.7916 19.945 41.0988C19.9073 41.043 19.8692 40.9861 19.8308 40.9287C19.2282 40.0281 18.5499 39.0144 18.0051 40.3052C17.5264 41.4893 17.1233 44.0717 16.9848 47.4981C12.979 48.1783 8.53239 49.8537 7.17194 51.5291C5.72332 53.3808 7.17194 54.8925 7.31051 55.031C7.42388 55.22 10.3463 59.4274 16.6951 62.3498C16.821 63.471 17.0478 64.7307 17.4886 65.4235C18.4712 66.8847 20.2599 65.8518 20.4993 65.6125C20.6756 65.4235 20.8016 64.9448 20.8646 63.8237C23.6862 64.5417 28.8635 65.3353 34.343 63.6851ZM8.0915 54.1618C8.0915 54.1618 7.17194 53.2171 8.50719 52.562C9.71648 52.0078 12.3618 51.2771 16.947 50.9622C16.94 51.3927 16.9361 51.7994 16.9321 52.2054C16.9145 54.0087 16.8971 55.7969 16.6195 59.5911C13.6844 58.5456 10.5982 56.8576 8.0915 54.1618Z" fill="white"/>
<path d="M131.049 53.268V51.6052C131.049 51.2525 130.746 50.9502 130.394 50.9502H122.369C122.206 48.2166 121.878 45.5587 121.362 42.8251C121.299 42.5354 121.059 42.3339 120.77 42.3339H118.918C118.754 42.3339 118.603 42.4094 118.502 42.5354C118.401 42.6614 118.364 42.8251 118.389 42.9889C118.918 45.6343 119.245 48.2418 119.409 50.9502H111.687C111.322 50.9502 111.032 51.2399 111.032 51.6052V53.268C111.032 53.6333 111.322 53.9231 111.687 53.9231H119.523C119.535 54.3259 119.535 54.691 119.535 55.0435C119.535 57.4495 119.422 59.4279 119.182 61.6702C119.157 61.8465 119.22 62.0229 119.334 62.1489C119.447 62.2748 119.611 62.3504 119.787 62.3504H121.5C121.828 62.3504 122.105 62.0985 122.143 61.7584C122.382 59.5035 122.483 57.5006 122.483 55.0442C122.483 54.8826 122.48 54.7154 122.477 54.5398C122.474 54.3457 122.47 54.1413 122.47 53.9231H130.394C130.759 53.9231 131.049 53.6333 131.049 53.268Z" fill="white"/>
<path d="M120.287 38.4145C116.193 28.3495 109.277 19.771 100.283 13.5985C91.0752 7.28741 80.2798 3.94922 69.0687 3.94922C50.5264 3.94922 33.3193 13.1576 23.0529 28.5888C22.9396 28.7526 22.9144 28.9667 22.9774 29.1557C23.0403 29.3573 23.1915 29.4958 23.3805 29.5588L24.8165 30.0501C24.9047 30.0753 24.9928 30.0879 25.0684 30.0879C25.3329 30.0879 25.5849 29.9493 25.736 29.7352C30.4472 22.8068 36.8211 17.05 44.1776 13.0694C51.7734 8.9628 60.377 6.78353 69.0561 6.78353C79.5492 6.78353 89.6644 9.88238 98.3309 15.7274C106.783 21.4338 113.346 29.4076 117.314 38.7672C117.428 39.0443 117.705 39.2333 118.007 39.2333H119.72C119.922 39.2333 120.111 39.1325 120.211 38.9687C120.337 38.805 120.363 38.6034 120.287 38.4145ZM25.0684 29.6596H25.0936C25.0936 29.6596 25.081 29.6596 25.0684 29.6596ZM117.654 39.0065C117.692 39.0317 117.73 39.0569 117.768 39.0695C117.73 39.0443 117.692 39.0317 117.654 39.0065Z" fill="white"/>
</svg>
