<svg width="237" height="79" viewBox="0 0 237 79" fill="none" xmlns="http://www.w3.org/2000/svg">
<path d="M28.0812 57.5049H17.5741V42.5214H10.7765V57.5049H0V18.8546H10.7558V33.2785H17.5534V18.8546H28.0605V57.5049H28.0812ZM76.2442 57.6707C87.0001 57.6707 95.7871 48.7179 95.7871 37.8171C95.7871 26.7504 87.0001 18.1914 76.2442 18.1914C65.3433 18.1914 59.8306 26.108 58.5043 29.3409C58.5043 24.5537 53.717 18.8339 48.1629 18.8339H30.2159V57.5049H46.9195C53.717 57.5049 58.5043 51.7022 58.5043 46.604C60.0172 49.7541 65.364 57.6707 76.2442 57.6707ZM45.5932 41.9619C47.1475 41.9619 48.3909 43.4747 48.3909 45.1948C48.3909 46.9978 47.1475 48.5107 45.5932 48.5107H40.2463V41.9619H45.5932ZM45.5932 27.455C47.1475 27.455 48.3909 28.9679 48.3909 30.688C48.3909 32.4081 47.1475 33.9209 45.5932 33.9209H40.2463V27.455H45.5932ZM52.6601 37.8171C53.9036 37.7342 55.9345 36.3042 56.7013 35.4545C56.4112 36.4907 56.4112 39.7651 56.7013 40.8013C55.8516 39.5372 53.9036 38.045 52.6601 37.8171ZM66.4417 37.8171C66.4417 32.3666 70.8766 27.9731 76.3271 27.9939C81.7983 28.0353 86.1503 32.491 86.0882 37.9621C86.0053 43.3504 81.6532 47.6817 76.2649 47.6817C70.8352 47.6817 66.4417 43.2882 66.4417 37.8171ZM76.2442 45.5678C80.4305 45.5678 83.9536 42.1277 83.9536 37.8171C83.9536 33.5065 80.4305 30.1077 76.2442 30.1077C71.9336 30.1077 68.4933 33.5065 68.4933 37.8171C68.4933 42.1277 71.9336 45.5678 76.2442 45.5678Z" fill="white"/>
<path d="M151.946 32.5336C151.739 23.1664 145.107 18.2133 136.983 18.2133C132.528 18.2133 128.507 19.7055 125.772 22.6068C123.036 19.7055 119.016 18.2133 114.56 18.2133C106.436 18.2133 99.8042 23.1871 99.597 32.5544C99.597 32.5751 99.597 32.5958 99.597 32.6165V53.983C99.597 55.9518 101.193 57.5268 103.141 57.5268H106.498C106.83 57.5268 107.099 57.2574 107.099 56.9258V32.5958C107.244 27.9743 110.519 25.5289 114.56 25.5289C118.601 25.5289 121.875 27.9743 122.021 32.5958V53.9623C122.021 55.9311 123.616 57.5061 125.564 57.5061H128.922C129.253 57.5061 129.523 57.2367 129.523 56.9051V32.5751C129.668 27.9536 132.942 25.5082 136.983 25.5082C141.025 25.5082 144.299 27.9536 144.444 32.5751V53.9416C144.444 55.9103 146.04 57.4854 147.988 57.4854H151.345C151.677 57.4854 151.946 57.216 151.946 56.8844V32.5544C151.967 32.5751 151.946 32.5544 151.946 32.5336ZM227.527 18.8143H221.828C220.253 18.8143 218.782 19.6018 217.89 20.9074L211.59 30.2333C210.761 31.456 208.979 31.456 208.15 30.2333L201.85 20.9074C200.98 19.6018 199.487 18.8143 197.912 18.8143H192.213C191.861 18.8143 191.654 19.2081 191.84 19.4982L203.073 36.1603C203.881 37.3623 203.881 38.9374 203.073 40.1393L191.84 56.8015C191.633 57.0916 191.861 57.4854 192.213 57.4854H197.912C199.487 57.4854 200.959 56.6978 201.85 55.3922L208.15 46.0664C208.979 44.8437 210.761 44.8437 211.59 46.0664L217.89 55.3922C218.761 56.6978 220.253 57.4854 221.828 57.4854H227.527C227.88 57.4854 228.087 57.0916 227.9 56.8015L216.647 40.1601C215.839 38.9581 215.839 37.3831 216.647 36.1811L227.88 19.5189C228.087 19.2288 227.88 18.8143 227.527 18.8143ZM189.27 18.8143H185.913C184.214 18.8143 182.784 20.0163 182.431 21.6121C179.447 19.3324 175.696 18.1719 171.655 18.1719C161.832 18.1719 153.853 25.0108 153.853 37.9219C153.853 50.833 161.811 57.6719 171.655 57.6719C175.675 57.6719 179.385 56.5321 182.369 54.2939C182.535 56.0969 184.048 57.5268 185.913 57.5268H189.27C189.602 57.5268 189.871 57.2574 189.871 56.9258V19.4153C189.851 19.0837 189.602 18.8143 189.27 18.8143ZM171.655 50.3356C165.79 50.3356 161.023 46.0457 161.023 37.9426C161.023 29.8395 165.79 25.5496 171.655 25.5496C177.52 25.5496 182.286 29.8395 182.286 37.9426C182.286 46.0457 177.52 50.3356 171.655 50.3356Z" fill="url(#paint0_linear_536_6304)"/>
<mask id="mask0_536_6304" style="mask-type:luminance" maskUnits="userSpaceOnUse" x="99" y="18" width="129" height="40">
<path d="M151.939 32.5375C151.731 23.1703 145.1 18.2172 136.976 18.2172C132.52 18.2172 128.5 19.7094 125.764 22.6107C123.028 19.7094 119.008 18.2172 114.552 18.2172C106.428 18.2172 99.7966 23.191 99.5894 32.5583C99.5894 32.579 99.5894 32.5997 99.5894 32.6204V53.9869C99.5894 55.9557 101.185 57.5307 103.133 57.5307H106.49C106.822 57.5307 107.091 57.2613 107.091 56.9297V32.5997C107.237 27.9782 110.511 25.5328 114.552 25.5328C118.593 25.5328 121.868 27.9782 122.013 32.5997V53.9662C122.013 55.935 123.609 57.51 125.557 57.51H128.914C129.246 57.51 129.515 57.2406 129.515 56.909V32.579C129.66 27.9575 132.935 25.5121 136.976 25.5121C141.017 25.5121 144.291 27.9575 144.436 32.579V53.9455C144.436 55.9142 146.032 57.4893 147.98 57.4893H151.338C151.669 57.4893 151.939 57.2199 151.939 56.8883V32.5583C151.959 32.579 151.939 32.5583 151.939 32.5375ZM227.52 18.8182H221.82C220.245 18.8182 218.774 19.6057 217.883 20.9114L211.583 30.2372C210.754 31.4599 208.971 31.4599 208.142 30.2372L201.842 20.9114C200.972 19.6057 199.48 18.8182 197.905 18.8182H192.206C191.853 18.8182 191.646 19.212 191.833 19.5021L203.065 36.1642C203.873 37.3662 203.873 38.9413 203.065 40.1433L191.833 56.8054C191.625 57.0955 191.853 57.4893 192.206 57.4893H197.905C199.48 57.4893 200.951 56.7018 201.842 55.3961L208.142 46.0703C208.971 44.8476 210.754 44.8476 211.583 46.0703L217.883 55.3961C218.753 56.7018 220.245 57.4893 221.82 57.4893H227.52C227.872 57.4893 228.079 57.0955 227.893 56.8054L216.639 40.164C215.831 38.962 215.831 37.387 216.639 36.185L227.872 19.5228C228.079 19.2327 227.872 18.8182 227.52 18.8182ZM189.263 18.8182H185.906C184.206 18.8182 182.776 20.0202 182.424 21.616C179.44 19.3363 175.688 18.1758 171.647 18.1758C161.824 18.1758 153.845 25.0147 153.845 37.9258C153.845 50.8369 161.803 57.6758 171.647 57.6758C175.668 57.6758 179.377 56.536 182.362 54.2978C182.527 56.1008 184.04 57.5307 185.906 57.5307H189.263C189.594 57.5307 189.864 57.2613 189.864 56.9297V19.4192C189.843 19.0876 189.594 18.8182 189.263 18.8182ZM171.647 50.3395C165.782 50.3395 161.016 46.0496 161.016 37.9465C161.016 29.8434 165.782 25.5535 171.647 25.5535C177.512 25.5535 182.279 29.8434 182.279 37.9465C182.279 46.0496 177.512 50.3395 171.647 50.3395Z" fill="white"/>
</mask>
<g mask="url(#mask0_536_6304)">
<path d="M130.494 60.5133C143.153 60.5133 153.415 47.1523 153.415 30.6707C153.415 14.1891 143.153 0.828125 130.494 0.828125C117.835 0.828125 107.573 14.1891 107.573 30.6707C107.573 47.1523 117.835 60.5133 130.494 60.5133Z" fill="url(#paint1_radial_536_6304)"/>
</g>
<mask id="mask1_536_6304" style="mask-type:luminance" maskUnits="userSpaceOnUse" x="99" y="18" width="129" height="40">
<path d="M151.939 32.5375C151.731 23.1703 145.1 18.2172 136.976 18.2172C132.52 18.2172 128.5 19.7094 125.764 22.6107C123.028 19.7094 119.008 18.2172 114.552 18.2172C106.428 18.2172 99.7966 23.191 99.5894 32.5583C99.5894 32.579 99.5894 32.5997 99.5894 32.6204V53.9869C99.5894 55.9557 101.185 57.5307 103.133 57.5307H106.49C106.822 57.5307 107.091 57.2613 107.091 56.9297V32.5997C107.237 27.9782 110.511 25.5328 114.552 25.5328C118.593 25.5328 121.868 27.9782 122.013 32.5997V53.9662C122.013 55.935 123.609 57.51 125.557 57.51H128.914C129.246 57.51 129.515 57.2406 129.515 56.909V32.579C129.66 27.9575 132.935 25.5121 136.976 25.5121C141.017 25.5121 144.291 27.9575 144.436 32.579V53.9455C144.436 55.9142 146.032 57.4893 147.98 57.4893H151.338C151.669 57.4893 151.939 57.2199 151.939 56.8883V32.5583C151.959 32.579 151.939 32.5583 151.939 32.5375ZM227.52 18.8182H221.82C220.245 18.8182 218.774 19.6057 217.883 20.9114L211.583 30.2372C210.754 31.4599 208.971 31.4599 208.142 30.2372L201.842 20.9114C200.972 19.6057 199.48 18.8182 197.905 18.8182H192.206C191.853 18.8182 191.646 19.212 191.833 19.5021L203.065 36.1642C203.873 37.3662 203.873 38.9413 203.065 40.1433L191.833 56.8054C191.625 57.0955 191.853 57.4893 192.206 57.4893H197.905C199.48 57.4893 200.951 56.7018 201.842 55.3961L208.142 46.0703C208.971 44.8476 210.754 44.8476 211.583 46.0703L217.883 55.3961C218.753 56.7018 220.245 57.4893 221.82 57.4893H227.52C227.872 57.4893 228.079 57.0955 227.893 56.8054L216.639 40.164C215.831 38.962 215.831 37.387 216.639 36.185L227.872 19.5228C228.079 19.2327 227.872 18.8182 227.52 18.8182ZM189.263 18.8182H185.906C184.206 18.8182 182.776 20.0202 182.424 21.616C179.44 19.3363 175.688 18.1758 171.647 18.1758C161.824 18.1758 153.845 25.0147 153.845 37.9258C153.845 50.8369 161.803 57.6758 171.647 57.6758C175.668 57.6758 179.377 56.536 182.362 54.2978C182.527 56.1008 184.04 57.5307 185.906 57.5307H189.263C189.594 57.5307 189.864 57.2613 189.864 56.9297V19.4192C189.843 19.0876 189.594 18.8182 189.263 18.8182ZM171.647 50.3395C165.782 50.3395 161.016 46.0496 161.016 37.9465C161.016 29.8434 165.782 25.5535 171.647 25.5535C177.512 25.5535 182.279 29.8434 182.279 37.9465C182.279 46.0496 177.512 50.3395 171.647 50.3395Z" fill="white"/>
</mask>
<g mask="url(#mask1_536_6304)">
<path d="M153.331 88.9291C179.382 88.9291 200.5 73.9815 200.5 55.5427C200.5 37.1039 179.382 22.1562 153.331 22.1562C127.281 22.1562 106.163 37.1039 106.163 55.5427C106.163 73.9815 127.281 88.9291 153.331 88.9291Z" fill="url(#paint2_radial_536_6304)"/>
</g>
<mask id="mask2_536_6304" style="mask-type:luminance" maskUnits="userSpaceOnUse" x="99" y="18" width="129" height="40">
<path d="M151.939 32.5375C151.731 23.1703 145.1 18.2172 136.976 18.2172C132.52 18.2172 128.5 19.7094 125.764 22.6107C123.028 19.7094 119.008 18.2172 114.552 18.2172C106.428 18.2172 99.7966 23.191 99.5894 32.5583C99.5894 32.579 99.5894 32.5997 99.5894 32.6204V53.9869C99.5894 55.9557 101.185 57.5307 103.133 57.5307H106.49C106.822 57.5307 107.091 57.2613 107.091 56.9297V32.5997C107.237 27.9782 110.511 25.5328 114.552 25.5328C118.593 25.5328 121.868 27.9782 122.013 32.5997V53.9662C122.013 55.935 123.609 57.51 125.557 57.51H128.914C129.246 57.51 129.515 57.2406 129.515 56.909V32.579C129.66 27.9575 132.935 25.5121 136.976 25.5121C141.017 25.5121 144.291 27.9575 144.436 32.579V53.9455C144.436 55.9142 146.032 57.4893 147.98 57.4893H151.338C151.669 57.4893 151.939 57.2199 151.939 56.8883V32.5583C151.959 32.579 151.939 32.5583 151.939 32.5375ZM227.52 18.8182H221.82C220.245 18.8182 218.774 19.6057 217.883 20.9114L211.583 30.2372C210.754 31.4599 208.971 31.4599 208.142 30.2372L201.842 20.9114C200.972 19.6057 199.48 18.8182 197.905 18.8182H192.206C191.853 18.8182 191.646 19.212 191.833 19.5021L203.065 36.1642C203.873 37.3662 203.873 38.9413 203.065 40.1433L191.833 56.8054C191.625 57.0955 191.853 57.4893 192.206 57.4893H197.905C199.48 57.4893 200.951 56.7018 201.842 55.3961L208.142 46.0703C208.971 44.8476 210.754 44.8476 211.583 46.0703L217.883 55.3961C218.753 56.7018 220.245 57.4893 221.82 57.4893H227.52C227.872 57.4893 228.079 57.0955 227.893 56.8054L216.639 40.164C215.831 38.962 215.831 37.387 216.639 36.185L227.872 19.5228C228.079 19.2327 227.872 18.8182 227.52 18.8182ZM189.263 18.8182H185.906C184.206 18.8182 182.776 20.0202 182.424 21.616C179.44 19.3363 175.688 18.1758 171.647 18.1758C161.824 18.1758 153.845 25.0147 153.845 37.9258C153.845 50.8369 161.803 57.6758 171.647 57.6758C175.668 57.6758 179.377 56.536 182.362 54.2978C182.527 56.1008 184.04 57.5307 185.906 57.5307H189.263C189.594 57.5307 189.864 57.2613 189.864 56.9297V19.4192C189.843 19.0876 189.594 18.8182 189.263 18.8182ZM171.647 50.3395C165.782 50.3395 161.016 46.0496 161.016 37.9465C161.016 29.8434 165.782 25.5535 171.647 25.5535C177.512 25.5535 182.279 29.8434 182.279 37.9465C182.279 46.0496 177.512 50.3395 171.647 50.3395Z" fill="white"/>
</mask>
<g mask="url(#mask2_536_6304)">
<path d="M182.281 46.09C196.45 46.09 207.937 34.6033 207.937 20.4337C207.937 6.26408 196.45 -5.22266 182.281 -5.22266C168.111 -5.22266 156.624 6.26408 156.624 20.4337C156.624 34.6033 168.111 46.09 182.281 46.09Z" fill="url(#paint3_radial_536_6304)"/>
</g>
<defs>
<linearGradient id="paint0_linear_536_6304" x1="99.6048" y1="37.9333" x2="227.962" y2="37.9333" gradientUnits="userSpaceOnUse">
<stop stop-color="#991EEB"/>
<stop offset="0.399" stop-color="#5822B4"/>
<stop offset="0.727" stop-color="#5822B4"/>
<stop offset="1" stop-color="#991EEB"/>
</linearGradient>
<radialGradient id="paint1_radial_536_6304" cx="0" cy="0" r="1" gradientUnits="userSpaceOnUse" gradientTransform="translate(130.503 30.663) scale(22.9198 29.8365)">
<stop stop-color="#7BA7F2" stop-opacity="0.5"/>
<stop offset="1" stop-color="#7BA7F2" stop-opacity="0"/>
</radialGradient>
<radialGradient id="paint2_radial_536_6304" cx="0" cy="0" r="1" gradientUnits="userSpaceOnUse" gradientTransform="translate(153.323 55.5366) scale(47.1596 33.3935)">
<stop offset="0.2" stop-color="#7BA7F2"/>
<stop offset="1" stop-color="#7BA7F2" stop-opacity="0"/>
</radialGradient>
<radialGradient id="paint3_radial_536_6304" cx="0" cy="0" r="1" gradientUnits="userSpaceOnUse" gradientTransform="translate(182.277 20.4417) scale(25.651 25.6508)">
<stop stop-color="#7BA7F2"/>
<stop offset="1" stop-color="#7BA7F2" stop-opacity="0"/>
</radialGradient>
</defs>
</svg>
