<svg width="237" height="79" viewBox="0 0 237 79" fill="none" xmlns="http://www.w3.org/2000/svg">
<path d="M87.0975 62.8733H98.4208V16H87.0975V62.8733ZM67.2158 49.5092C67.2158 51.155 65.8333 52.5375 64.1875 52.5375H57.6042C55.9583 52.5375 54.5758 51.155 54.5758 49.5092V30.615H43.2525V50.4308C43.2525 58.5283 48.4533 62.8075 56.09 62.8075H67.15C74.1942 62.8075 78.4733 57.7383 78.4733 50.4308V30.615H67.15C67.2158 30.615 67.2158 48.9167 67.2158 49.5092ZM130.877 30.615V49.5092C130.877 51.155 129.494 52.5375 127.848 52.5375H121.265C119.619 52.5375 118.237 51.155 118.237 49.5092V30.615H106.913V50.4308C106.913 58.5283 112.114 62.8075 119.751 62.8075H130.811C137.855 62.8075 142.134 57.7383 142.134 50.4308V30.615H130.877ZM22.3833 30.615H15.1417C12.5742 30.615 11.3233 31.2733 11.3233 31.2733V16H0V62.8075H11.2575V43.9792C11.2575 42.3333 12.64 40.9508 14.2858 40.9508H20.8692C22.515 40.9508 23.8975 42.3333 23.8975 43.9792V62.8733H35.2208V42.465C35.2208 33.9067 29.4933 30.615 22.3833 30.615Z" fill="#1CE783"/>
</svg>
