<svg width="237" height="79" viewBox="0 0 237 79" fill="none" xmlns="http://www.w3.org/2000/svg">
<path d="M115.77 18H108.443V59.1984C115.102 59.4287 121.733 59.7664 128.337 60.2091V52.9508C124.16 52.6706 119.971 52.4332 115.77 52.2366V18ZM174 18.0042H165.951L160.646 30.3674L155.879 18.0042H147.951L156.471 40.0955L147.171 61.7678C149.744 62.0201 152.309 62.2893 154.872 62.5737L160.281 49.9727L165.638 63.8635C168.428 64.2241 171.21 64.6005 173.988 64.999L174 64.9942L164.455 40.2447L174 18.0042ZM83.2918 58.8383L90.6192 58.8367V42.0784H100.552V34.82H90.6192V25.3282H103.747V18.0045H83.2918V58.8383ZM55.93 25.3277H63.5988V59.27C66.0369 59.1773 68.4801 59.101 70.9259 59.0367V25.3277H78.5943V18.0042H55.93V25.3277ZM30.8799 61.3795C37.6332 60.7625 44.4176 60.254 51.2328 59.8594V52.6002C46.8785 52.8532 42.5364 53.1528 38.207 53.4951V42.5061C41.0477 42.4776 44.7883 42.3905 48.1021 42.4319V35.173C45.4546 35.1665 41.1996 35.2101 38.207 35.2486V25.3282H51.2328V18.0045H30.8799V61.3795ZM16.5068 44.5992L6.96364 18.0042H0V65C2.4377 64.6511 4.88004 64.3171 7.32713 63.9966V38.4404L15.8126 62.9473C18.4815 62.6361 21.1552 62.3414 23.834 62.0644V18.0042H16.5068V44.5992ZM134.378 60.6461C136.824 60.8343 139.266 61.0362 141.706 61.2544V18.0042H134.378V60.6461Z" fill="white"/>
</svg>
