<svg width="286" height="81" viewBox="0 0 286 81" fill="none" xmlns="http://www.w3.org/2000/svg">
<g clip-path="url(#clip0_536_6370)">
<path d="M28.046 68.11C12.062 68.11 2.22 56.936 2.22 40.36C2.22 23.784 12.062 12.61 28.046 12.61C44.03 12.61 53.872 23.784 53.872 40.36C53.872 56.936 44.03 68.11 28.046 68.11ZM28.046 58.638C38.184 58.786 43.216 51.46 43.216 40.36C43.216 29.26 38.184 22.23 28.046 22.082C17.908 21.934 12.876 29.26 12.876 40.36C12.876 51.46 17.908 58.49 28.046 58.638ZM80.1281 25.856C95.7421 25.856 95.7421 41.248 95.7421 44.578V67H85.5301V48.13C85.5301 44.504 85.5301 35.328 76.9461 35.328C73.4681 35.328 68.4361 36.808 68.4361 46.724V67H58.2241V27.04H67.1781V31.184C70.0641 27.928 74.3561 25.856 80.1281 25.856ZM110.244 49.832C110.984 55.53 114.166 58.712 119.642 58.712C123.564 58.712 126.45 56.936 127.93 53.68L137.994 56.566C134.96 63.892 127.93 68.11 120.234 68.11C107.95 68.11 99.4404 59.526 99.4404 47.538C99.4404 34.44 107.802 25.93 119.642 25.93C132.222 25.93 139.548 35.328 138.364 49.832H110.244ZM120.086 34.662C114.684 34.662 111.576 37.252 110.54 42.358H128.152C127.412 36.956 124.896 34.662 120.086 34.662Z" fill="white"/>
</g>
<defs>
<clipPath id="clip0_536_6370">
<rect width="286" height="81" fill="white"/>
</clipPath>
</defs>
</svg>
