<svg width="237" height="79" viewBox="0 0 237 79" fill="none" xmlns="http://www.w3.org/2000/svg">
<path d="M33.2941 19.8671C32.5018 19.8671 31.8605 19.6424 31.3889 19.2119C30.9173 18.7813 30.6721 18.1823 30.6721 17.4335C30.6721 16.6848 30.9173 16.1045 31.3889 15.6552C31.8605 15.2246 32.5018 15 33.2941 15C34.0864 15 34.7277 15.2246 35.1993 15.6552C35.6709 16.0857 35.9162 16.6848 35.9162 17.4335C35.9162 18.1823 35.6709 18.7626 35.1993 19.2119C34.7277 19.6424 34.0864 19.8671 33.2941 19.8671Z" fill="white"/>
<path d="M31.785 38.1935C31.5209 38.1935 31.3134 38.1373 31.2002 38.0063C31.0682 37.8753 31.0116 37.6881 31.0116 37.426V23.1056C31.0116 22.806 31.0682 22.6188 31.2002 22.5065C31.3323 22.3942 31.5209 22.3381 31.785 22.3381H34.7843C35.0673 22.3381 35.2748 22.3942 35.388 22.5065C35.5012 22.6188 35.5577 22.8248 35.5577 23.1056V37.426C35.5577 37.6881 35.5012 37.894 35.388 38.0063C35.2748 38.1373 35.0673 38.1935 34.7843 38.1935H31.785Z" fill="white"/>
<path fill-rule="evenodd" clip-rule="evenodd" d="M0.188637 44.4271C0.301819 44.5395 0.509317 44.5956 0.773409 44.5956H3.79159C4.07455 44.5956 4.28205 44.5395 4.39523 44.4271C4.50842 44.3148 4.56501 44.1089 4.56501 43.8281V37.0329C5.11205 37.5196 5.77228 37.894 6.54569 38.1561C7.30024 38.4369 8.13024 38.5679 8.9791 38.5679C10.2807 38.5679 11.4314 38.2123 12.4312 37.5196C13.4309 36.8083 14.2232 35.8349 14.808 34.5432C15.3739 33.2516 15.6757 31.754 15.6757 30.0318C15.6757 27.5234 15.0909 25.5391 13.9025 24.0603C12.7141 22.5815 11.1107 21.8514 9.09229 21.8514C8.16797 21.8514 7.26251 22.0199 6.37592 22.3755C5.48933 22.7125 4.73478 23.1992 4.11228 23.7982L3.88591 22.9933C3.79159 22.544 3.48978 22.3194 3.01819 22.3194H0.773409C0.509317 22.3194 0.320682 22.3755 0.188637 22.4879C0.056591 22.6002 0 22.7874 0 23.0869V43.8281C0 44.1089 0.056591 44.3148 0.188637 44.4271ZM10.2241 33.9442C9.67706 34.7304 8.80933 35.1235 7.63979 35.1235C6.50797 35.1235 5.48933 34.8427 4.56501 34.2999V26.1194C5.52705 25.5579 6.54569 25.2771 7.63979 25.2771C8.8282 25.2771 9.69592 25.6702 10.243 26.4564C10.79 27.2426 11.0541 28.4968 11.0541 30.219C11.0541 31.9225 10.7712 33.158 10.2241 33.9442Z" fill="white"/>
<path d="M18.8828 38.0063C18.996 38.1373 19.2035 38.1935 19.4676 38.1935L22.4858 38.1561C22.7687 38.1561 22.9762 38.0999 23.0894 37.9689C23.2026 37.8565 23.2592 37.6506 23.2592 37.3886V26.9431C23.7308 26.7371 24.3344 26.5687 25.0135 26.4376C25.7115 26.3066 26.2963 26.2317 26.7678 26.2317C27.1074 26.2317 27.4092 26.2504 27.6356 26.2692L27.7487 26.2787C27.9254 26.2937 28.0765 26.3066 28.2015 26.3066C28.4844 26.3066 28.6919 26.2504 28.8051 26.1194C28.9183 26.0071 28.9749 25.8012 28.9749 25.5391V22.9371C28.9749 22.6563 28.9183 22.4504 28.7863 22.3381C28.6731 22.2257 28.4467 22.1696 28.1638 22.1696H27.7299C26.8999 22.1696 26.1076 22.3568 25.3719 22.7499C24.6362 23.143 23.844 23.7795 23.014 24.6967L22.599 23.012C22.5047 22.5627 22.2028 22.3381 21.7312 22.3381H19.4676C19.2035 22.3381 19.0149 22.3942 18.8828 22.5065C18.7508 22.6189 18.6942 22.806 18.6942 23.1056V37.426C18.6942 37.6881 18.7508 37.8753 18.8828 38.0063Z" fill="white"/>
<path d="M39.5944 38.0063C39.7076 38.1374 39.9151 38.1935 40.1792 38.1935L43.2351 38.2122C43.518 38.2122 43.7255 38.1561 43.8387 38.0251C43.9519 37.9127 44.0085 37.7068 44.0085 37.4447V26.1943C45.1403 25.6327 46.291 25.3519 47.4605 25.3519C48.7244 25.3519 49.3658 26.0633 49.3658 27.4672V37.4447C49.3658 37.7068 49.4224 37.894 49.5544 38.0251C49.6676 38.1561 49.8751 38.2122 50.1392 38.2122H53.1385C53.4215 38.2122 53.629 38.1561 53.7421 38.0251C53.8553 37.9127 53.9119 37.7068 53.9119 37.4447V26.1569C55.0626 25.614 56.1944 25.3519 57.3262 25.3519C58.5901 25.3519 59.2315 26.0633 59.2315 27.4672V37.4447C59.2315 37.7068 59.3069 37.894 59.4201 38.0251C59.5333 38.1561 59.7408 38.2122 60.0049 38.2122H63.0042C63.2871 38.2122 63.4946 38.1561 63.6078 38.0251C63.721 37.9127 63.7776 37.7068 63.7776 37.4447V26.4751C63.7776 25.0337 63.3815 23.8918 62.5703 23.0869C61.7781 22.2819 60.6274 21.8701 59.1749 21.8701C58.1751 21.8701 57.1942 22.0386 56.2699 22.3381C55.3455 22.6376 54.3269 23.143 53.2705 23.8544C52.4971 22.5253 51.1767 21.8701 49.2903 21.8701C48.3471 21.8701 47.4417 22.0199 46.5551 22.3194C45.6496 22.6189 44.6687 23.1243 43.5558 23.8544L43.3105 23.012C43.2162 22.5627 42.9144 22.3381 42.4428 22.3381H40.1792C39.9151 22.3381 39.7264 22.3943 39.5944 22.5066C39.4623 22.6189 39.4057 22.8061 39.4057 23.1056V37.426C39.4057 37.6881 39.4623 37.8753 39.5944 38.0063Z" fill="white"/>
<path fill-rule="evenodd" clip-rule="evenodd" d="M74.5301 38.6802C71.9835 38.6802 70.0405 38.0812 68.4748 36.5088C67.4562 35.4792 66.4941 33.5511 66.4941 30.2752C66.4941 27.617 67.343 25.5953 68.72 24.1352C70.0971 22.6563 72.2098 21.9824 74.1905 21.9824C76.6805 21.9824 78.1519 22.544 79.2837 23.6672C79.4723 23.8544 80.6041 25.015 80.6041 26.8869L80.6042 26.9633C80.6049 27.5776 80.6057 28.2346 80.1892 29.1333C79.8873 29.7697 79.4346 30.1628 79.3026 30.2752C77.4539 31.9599 73.8321 31.8476 72.606 31.7727L70.6253 31.4732C70.7573 32.8397 71.1346 33.9067 71.9835 34.5058C72.7757 35.0861 73.6434 35.3107 75.4166 35.3107C76.3032 35.3107 77.4916 35.1422 79.0196 34.7304L79.0527 34.7224L79.1083 34.7093C79.1874 34.6907 79.282 34.6686 79.3214 34.6555C79.3284 34.6555 79.3393 34.6549 79.353 34.6541C79.4132 34.6505 79.5275 34.6438 79.6044 34.6742C79.7741 34.7304 79.9628 34.8802 79.9628 35.3482V36.7708C79.9628 37.1078 79.9251 37.3324 79.8307 37.4635C79.7364 37.5945 79.5478 37.7255 79.2837 37.8378C77.6614 38.3994 76.1901 38.6802 74.5301 38.6802ZM76.4353 27.0367C76.4353 25.5204 75.36 25.0899 74.0396 25.0899C73.1719 25.0899 72.323 25.4081 71.7382 26.0258C71.1723 26.6436 70.8328 27.5608 70.6819 28.7402C70.6819 28.7402 73.021 29.1707 74.7187 28.8899C75.6053 28.7402 76.4353 28.2535 76.4353 27.0367Z" fill="white"/>
<path fill-rule="evenodd" clip-rule="evenodd" d="M133.877 36.5088C135.442 38.0812 137.385 38.6802 139.932 38.6802C141.592 38.6802 143.082 38.3994 144.685 37.8378C144.95 37.7255 145.138 37.5945 145.233 37.4635C145.327 37.3324 145.365 37.1078 145.365 36.7708V35.3482C145.365 34.8802 145.176 34.7304 145.006 34.6742C144.929 34.6438 144.815 34.6505 144.755 34.6541C144.741 34.6549 144.73 34.6555 144.723 34.6555C144.684 34.6686 144.589 34.6907 144.51 34.7093C144.476 34.7173 144.444 34.7247 144.421 34.7304C142.893 35.1422 141.705 35.3107 140.818 35.3107C139.045 35.3107 138.178 35.0861 137.385 34.5058C136.536 33.9067 136.159 32.8397 136.027 31.4732L138.008 31.7727C139.234 31.8476 142.856 31.9599 144.704 30.2752C144.836 30.1628 145.289 29.7697 145.591 29.1333C146.008 28.2346 146.007 27.5776 146.006 26.9633L146.006 26.8869C146.006 25.015 144.874 23.8544 144.685 23.6672C143.554 22.544 142.082 21.9824 139.592 21.9824C137.612 21.9824 135.499 22.6563 134.122 24.1352C132.745 25.5953 131.896 27.617 131.896 30.2752C131.896 33.5511 132.858 35.4792 133.877 36.5088ZM139.441 25.0899C140.762 25.0899 141.837 25.5204 141.837 27.0367C141.837 28.2535 141.007 28.7402 140.12 28.8899C138.423 29.1707 136.084 28.7402 136.084 28.7402C136.235 27.5608 136.574 26.6436 137.14 26.0258C137.725 25.4081 138.574 25.0899 139.441 25.0899Z" fill="white"/>
<path d="M94.3558 38.1935C94.1483 38.1935 93.9785 38.1748 93.8465 38.1186C93.7144 38.0624 93.6012 37.9876 93.5069 37.8752C93.4126 37.7629 93.3183 37.5945 93.2428 37.3885L87.8855 23.5548C87.8544 23.4622 87.8233 23.3753 87.7953 23.2971C87.7725 23.2332 87.7516 23.1747 87.7346 23.1243C87.6969 22.9932 87.678 22.8809 87.678 22.7873C87.678 22.4691 87.8855 22.3193 88.3005 22.3193H91.4319C91.7715 22.3193 92.0167 22.3755 92.1676 22.5065C92.3185 22.6376 92.4505 22.8435 92.526 23.1243L95.7517 34.1313L99.034 23.1243C99.1094 22.8248 99.2415 22.6188 99.3924 22.5065C99.5433 22.3942 99.7885 22.3193 100.128 22.3193H103.165C103.58 22.3193 103.788 22.4691 103.788 22.7873C103.788 22.8996 103.769 23.0119 103.731 23.1243C103.709 23.1997 103.681 23.2752 103.651 23.3578C103.628 23.4186 103.604 23.4834 103.58 23.5548L98.2228 37.3885C98.1474 37.5945 98.0531 37.7629 97.9587 37.8752C97.8644 37.9876 97.7512 38.0812 97.6381 38.1186C97.5249 38.156 97.3362 38.1935 97.1099 38.1935H94.3558Z" fill="white"/>
<path d="M106.126 19.2119C106.598 19.6424 107.239 19.8671 108.032 19.8671C108.824 19.8671 109.446 19.6424 109.937 19.2119C110.408 18.7626 110.654 18.1823 110.654 17.4335C110.654 16.6848 110.408 16.0857 109.937 15.6552C109.465 15.2246 108.824 15 108.032 15C107.239 15 106.598 15.2246 106.126 15.6552C105.655 16.1045 105.409 16.6848 105.409 17.4335C105.409 18.1823 105.655 18.7813 106.126 19.2119Z" fill="white"/>
<path d="M105.919 38.0063C106.051 38.1373 106.258 38.1935 106.522 38.1935H109.522C109.805 38.1935 110.012 38.1373 110.125 38.0063C110.239 37.894 110.295 37.6881 110.295 37.426V23.1056C110.295 22.8248 110.239 22.6188 110.125 22.5065C110.012 22.3942 109.805 22.3381 109.522 22.3381H106.522C106.239 22.3381 106.051 22.3942 105.919 22.5065C105.787 22.6188 105.73 22.806 105.73 23.1056V37.426C105.73 37.6881 105.787 37.8753 105.919 38.0063Z" fill="white"/>
<path fill-rule="evenodd" clip-rule="evenodd" d="M119.878 38.5304C118.52 38.5304 117.331 38.1747 116.331 37.4821C115.332 36.7895 114.558 35.8161 114.03 34.5993C113.502 33.3638 113.238 31.9411 113.238 30.3313C113.238 27.7667 113.86 25.7075 115.086 24.1725C116.313 22.6375 117.954 21.8513 119.972 21.8513C121.613 21.8513 123.047 22.3193 124.254 23.2553V15.9921C124.254 15.6926 124.311 15.5054 124.443 15.3931C124.575 15.2808 124.764 15.2246 125.046 15.2246H128.046C128.329 15.2246 128.536 15.2808 128.649 15.3931C128.763 15.5054 128.819 15.7113 128.819 15.9921V37.426C128.819 37.688 128.763 37.894 128.649 38.0063C128.536 38.1373 128.329 38.1935 128.046 38.1935H125.537C125.292 38.1935 125.103 38.1373 124.952 38.0437C124.82 37.9314 124.726 37.7629 124.65 37.5196L124.462 36.8082C123.198 37.9501 121.651 38.5304 119.878 38.5304ZM121.387 35.1235C122.387 35.1235 123.349 34.8239 124.273 34.2624V26.0632C123.368 25.5391 122.349 25.2957 121.179 25.2957C120.066 25.2957 119.255 25.7075 118.708 26.5312C118.161 27.3549 117.897 28.5903 117.897 30.2377C117.897 31.9037 118.18 33.1205 118.765 33.9441C119.312 34.7116 120.199 35.1235 121.387 35.1235Z" fill="white"/>
<path fill-rule="evenodd" clip-rule="evenodd" d="M150.248 36.4339C151.644 37.9127 153.587 38.6615 156.077 38.6615C158.567 38.6615 160.51 37.9127 161.906 36.4339C163.302 34.9551 164 32.8959 164 30.2377C164 27.617 163.302 25.5579 161.906 24.079C160.51 22.6002 158.567 21.8514 156.077 21.8514C153.587 21.8514 151.644 22.6002 150.248 24.079C148.852 25.5579 148.155 27.5983 148.155 30.2377C148.155 32.8959 148.852 34.9551 150.248 36.4339ZM159.36 30.2377C159.36 33.5324 158.265 35.1797 156.077 35.1797C153.889 35.1797 152.795 33.5324 152.795 30.2377C152.795 26.9618 153.889 25.3332 156.077 25.3332C158.265 25.3332 159.36 26.9618 159.36 30.2377Z" fill="white"/>
<path d="M39.783 46.8233V47.0854C39.8207 47.31 39.9339 47.5347 40.1414 47.7406C51.3087 58.523 66.0601 65 82.4526 65C94.1481 65 107.73 61.0689 117.086 53.6747C118.633 52.4392 117.313 50.6047 115.728 51.3347C105.221 56.1082 93.8085 58.4107 83.4335 58.4107C68.0407 58.4107 53.1385 53.8993 41.1034 46.3928C40.8959 46.2618 40.6884 46.2056 40.4998 46.2056C40.1225 46.2056 39.8396 46.4677 39.783 46.8233Z" fill="white"/>
<path d="M108.844 48.7703C108.882 48.5269 109.051 48.2274 109.391 47.9841C112.145 45.9249 115.823 45.2323 118.917 45.2136C121.784 45.2136 124.086 45.8126 124.576 46.4678C125.595 47.8343 124.312 57.2128 119.276 61.6868C118.502 62.3794 117.766 62.005 118.106 61.1065C118.138 61.0186 118.172 60.9275 118.207 60.8336C119.364 57.704 121.73 51.3061 120.558 49.725C119.351 48.0964 112.636 48.9388 109.617 49.3319C109.146 49.388 108.882 49.2008 108.844 48.92V48.7703Z" fill="white"/>
</svg>
