<svg width="237" height="79" viewBox="0 0 237 79" fill="none" xmlns="http://www.w3.org/2000/svg">
<mask id="mask0_536_6310" style="mask-type:luminance" maskUnits="userSpaceOnUse" x="0" y="3" width="75" height="75">
<path d="M0.0078125 77.9961H74.9938V3.00517H0.0078125V77.9961Z" fill="white"/>
</mask>
<g mask="url(#mask0_536_6310)">
<path d="M37.4948 5.49626V3.00517C16.7885 3.00517 0.00292969 19.7923 0.00292969 40.5006C0.00292969 61.209 16.7885 77.9961 37.4948 77.9961V75.505C24.0525 75.4929 11.2402 67.6908 5.47839 54.5953C-2.30532 36.9044 5.72499 16.2524 23.4142 8.46846C28.0003 6.45021 32.7862 5.49516 37.4948 5.49626Z" fill="#11BED2"/>
<path d="M24.4122 10.765L23.4065 8.47861C5.71729 16.2625 -2.31301 36.9145 5.47014 54.6054C13.2538 72.2963 33.9034 80.3274 51.5925 72.5429L50.5868 70.2565C41.4388 74.2732 30.5679 74.0321 21.2527 68.6532C5.71178 59.6797 0.386926 39.8051 9.35951 24.2627C12.9543 18.0358 18.2984 13.4497 24.4122 10.765Z" fill="#72BF43"/>
</g>
<mask id="mask1_536_6310" style="mask-type:luminance" maskUnits="userSpaceOnUse" x="0" y="3" width="75" height="75">
<path d="M0 77.9961H74.9871V3.00517H0V77.9961Z" fill="white"/>
</mask>
<g mask="url(#mask1_536_6310)">
<path d="M52.5039 14.5198L53.7468 12.3669C38.2054 3.3935 18.3332 8.71886 9.36002 24.2613C0.387441 39.8042 5.71229 59.6789 21.2538 68.6523L22.5 66.4934C20.0649 65.0848 17.7909 63.3027 15.7562 61.1581C4.35349 49.1407 4.85056 30.1544 16.8662 18.7511C26.7325 9.38756 41.2964 8.0474 52.5039 14.5198Z" fill="#F6B52F"/>
<path d="M18.5685 20.5598L16.8561 18.7551C4.83985 30.1584 4.33672 49.1387 15.7395 61.1555C27.1422 73.1723 46.1268 73.67 58.1424 62.2661L56.4239 60.4548C50.0172 66.5239 40.8091 69.4061 31.5452 67.3526C16.7204 64.0653 7.36712 49.382 10.6535 34.5563C11.8865 28.9942 14.7227 24.2029 18.5685 20.5598Z" fill="#F1602A"/>
<path d="M42.9097 16.103L43.4509 13.6615C28.626 10.3743 13.9441 19.729 10.6577 34.5552C7.37079 49.381 16.7246 64.0649 31.5494 67.3516L32.0901 64.9118C32.0884 64.9118 32.0862 64.9112 32.0851 64.9112C18.608 61.923 10.1049 48.5743 13.0923 35.0959C16.0802 21.6176 29.4276 13.1137 42.9047 16.1019C42.9064 16.1024 42.908 16.1024 42.9097 16.103Z" fill="#CF3693"/>
<path d="M65.71 45.0666L67.0776 43.4649C68.085 44.4007 69.147 44.9767 70.3165 44.9767C71.8281 44.9767 72.8179 44.1127 72.8179 42.799V42.7631C72.8179 41.4853 71.7382 40.6754 70.2084 40.6754C69.3091 40.6754 68.5351 40.9275 67.8875 41.2332L66.5557 40.3515L66.9159 34.1787H74.4376V36.1406H68.8231L68.6251 39.0919C69.2192 38.8756 69.777 38.7316 70.6222 38.7316C73.0694 38.7316 74.9948 40.0276 74.9948 42.6914V42.7273C74.9948 45.3006 73.1235 46.9922 70.3347 46.9922C68.4093 46.9922 66.8977 46.2181 65.71 45.0666Z" fill="white"/>
<path d="M55.855 44.3164H62.1844C62.3191 43.4354 62.4073 42.5383 62.4476 41.6297L55.855 41.6617V44.3164Z" fill="white"/>
<path d="M55.8516 36.6233V39.1875L62.4326 39.1555C62.3868 38.2987 62.298 37.4541 62.1683 36.6233H55.8516Z" fill="white"/>
<path d="M53.0958 46.7834V34.1421H61.6584C58.8454 23.4174 49.0872 15.5061 37.4809 15.5061C23.6767 15.5061 12.4863 26.6975 12.4863 40.503C12.4863 54.3086 23.6767 65.5 37.4809 65.5C49.1165 65.5 58.8945 57.5489 61.68 46.7834H53.0958ZM37.2161 36.2547L30.2643 44.3453H37.2161V46.7834H26.6883V44.6703L33.6406 36.5796H26.9051V34.1421H37.2161V36.2547ZM49.7487 36.616H42.8869V39.1805H49.7487V41.6545H42.8869V44.3095H49.7487V46.7834H40.124V34.1421H49.7487V36.616Z" fill="white"/>
</g>
</svg>
