<svg width="71" height="70" viewBox="0 0 71 70" fill="none" xmlns="http://www.w3.org/2000/svg">
<path d="M66.7109 21.0288C66.7109 20.4173 66.7109 19.7887 66.7109 19.1772C66.6601 17.8354 66.5753 16.4754 66.3367 15.1506C66.1163 13.7919 65.7082 12.5348 65.0797 11.3117C64.4682 10.1056 63.6701 9.00114 62.7013 8.05051C61.7495 7.09866 60.6462 6.30061 59.4401 5.6721C58.2 5.04359 56.943 4.63548 55.6012 4.41508C54.2764 4.17772 52.9176 4.09174 51.5746 4.05783C50.9631 4.04088 50.3346 4.04088 49.723 4.02393H21.7259C21.1143 4.04088 20.5028 4.04088 19.8743 4.05783C18.5325 4.09174 17.1725 4.17651 15.8307 4.41508C14.4889 4.65122 13.2319 5.05933 12.0088 5.67089C10.8026 6.28244 9.69821 7.09745 8.74758 8.04929C7.77878 9.00114 6.98073 10.1044 6.36917 11.3105C5.73945 12.5336 5.34951 13.7919 5.11094 15.1506C4.87358 16.4754 4.7876 17.8342 4.7537 19.1772C4.73674 19.8057 4.73674 20.4173 4.71979 21.0288V49.009C4.73674 49.6375 4.73674 50.2491 4.7537 50.8776C4.7876 52.2194 4.87237 53.5793 5.11094 54.9042C5.3483 56.2629 5.73945 57.5199 6.36796 58.743C6.97952 59.9322 7.77757 61.0536 8.74637 61.9873C9.69821 62.9561 10.8014 63.7542 12.0076 64.3657C13.2307 64.9942 14.4877 65.3854 15.8295 65.6397C17.1713 65.877 18.5313 65.963 19.873 65.9969C20.5016 66.0139 21.1131 66.0139 21.7247 66.0139C22.4549 66.0139 23.1851 66.0139 23.9335 66.0139H47.5311C48.2444 66.0139 48.9916 66.0139 49.7061 66.0139C50.3176 66.0139 50.9461 66.0139 51.5577 65.9969C52.8995 65.963 54.2594 65.8783 55.5843 65.6397C56.943 65.4023 58.1831 64.9942 59.4231 64.3657C60.6293 63.7542 61.7337 62.9561 62.6844 61.9873C63.6532 61.0355 64.4512 59.9322 65.0628 58.743C65.6913 57.5199 66.0824 56.2459 66.3198 54.9042C66.5741 53.5793 66.6601 52.2206 66.694 50.8776C66.694 50.2491 66.694 49.6375 66.694 49.009C66.7109 48.2788 66.7109 47.5655 66.7109 46.8001V23.2195C66.7279 22.4893 66.7279 21.7421 66.7109 21.0288ZM24.5972 26.9748C25.2765 26.1768 26.4318 25.5822 27.3837 25.5483C27.5024 26.6527 27.0603 27.7571 26.3979 28.5552C25.7355 29.3532 24.665 29.9817 23.5945 29.897C23.4419 28.8095 23.9856 27.6712 24.5972 26.9748ZM29.71 41.8387C28.9628 42.9431 28.1805 44.0306 26.9574 44.0475C25.7512 44.0645 25.3601 43.3342 23.9844 43.3342C22.6087 43.3342 22.1667 44.0306 21.0283 44.0814C19.8391 44.1323 18.9394 42.8922 18.174 41.8048C16.6276 39.562 15.4384 35.4845 17.0357 32.7162C17.8337 31.3405 19.2276 30.4734 20.7559 30.4565C21.9281 30.4395 23.0156 31.2376 23.7289 31.2376C24.4252 31.2376 25.6992 30.3027 27.1778 30.4056C27.7555 30.4565 29.4206 30.626 30.4742 32.1894C30.3894 32.2403 28.5039 33.3447 28.5378 35.6214C28.5547 38.357 30.9331 39.2568 30.9501 39.2738C30.9343 39.3416 30.5771 40.5816 29.71 41.8387ZM41.2121 32.9548H38.7489V39.7158C38.7489 40.004 38.7659 40.2765 38.7828 40.4799C38.7998 40.7003 38.8676 40.8711 38.9524 41.0237C39.0371 41.1762 39.1728 41.278 39.3266 41.347C39.5131 41.4318 39.7516 41.4657 40.0568 41.4657C40.2433 41.4657 40.431 41.4657 40.6344 41.4487C40.8209 41.4487 41.0087 41.4148 41.2121 41.3639V43.5219C40.9057 43.5559 40.6175 43.5898 40.3293 43.6237C40.058 43.6406 39.7516 43.6576 39.4465 43.6576C38.7332 43.6576 38.1555 43.5898 37.6966 43.4711C37.2545 43.3185 36.9155 43.1138 36.6599 42.8595C36.4226 42.5883 36.2518 42.248 36.1501 41.8399C36.0653 41.4318 36.0145 40.974 35.9975 40.4472V32.9729H33.9425V30.9009H35.9975V27.1129H38.7332V30.9009H41.1964V32.956H41.2121V32.9548ZM50.1311 43.5377H47.0733L42.5708 30.8646H45.5438L48.6864 40.5986H48.7373L51.7611 30.8646H54.5816L50.1311 43.5377Z" fill="#000008"/>
</svg>
