<svg width="43" height="43" viewBox="0 0 43 43" fill="none" xmlns="http://www.w3.org/2000/svg">
<rect x="2.97052" y="2.96851" width="36.8377" height="36.8377" rx="6.0766" fill="url(#paint0_radial_1_670)"/>
<path d="M25.772 23.7211C25.772 23.7211 26.8207 23.6685 27.2192 23.5772C27.4036 23.5348 27.3232 23.3668 27.3074 23.3338C27.3057 23.3302 27.305 23.3282 27.305 23.3282C27.0587 22.8301 26.7709 22.8577 26.7709 22.8577C25.9463 22.8301 24.7481 23.0487 24.618 23.1123C24.4963 23.1677 24.5073 23.259 24.6678 23.461C24.8394 23.6713 25.1272 23.6519 25.1272 23.6519L24.8754 24.1749C24.6706 24.1915 24.5987 24.2552 24.5987 24.2552C24.4797 24.3797 24.6429 24.756 24.6429 24.756C24.6429 24.756 24.2832 25.5613 24.5433 25.9847C24.8228 26.4302 25.1521 26.4081 25.1521 26.4081C25.7803 26.4551 26.8097 25.7965 26.865 25.5807C26.912 25.4036 26.7516 25.2126 26.6077 25.1767C26.4721 25.149 25.4399 25.3427 25.3154 25.3759C25.1825 25.4119 25.2407 25.2874 25.2407 25.2874L25.4011 24.7477C25.4011 24.7477 26.3863 24.7118 26.5302 24.6869C26.663 24.6647 26.6713 24.5706 26.6713 24.5706C26.6713 24.5706 26.6879 24.4157 26.6824 24.2718C26.6685 24.1168 26.544 24.1307 26.544 24.1307C26.1621 24.0919 25.6391 24.1362 25.6391 24.1362L25.772 23.7211Z" fill="white"/>
<path d="M23.3866 25.9349C23.7325 26.1009 24.012 25.8353 24.1172 25.5862C24.2223 25.3372 24.405 24.5098 24.1365 23.5828C23.8653 22.664 23.3008 22.3818 23.3008 22.3818C23.3008 22.3818 23.1542 22.3126 23.1182 22.4593C23.0795 22.6032 23.1348 22.7581 23.1348 22.7581C23.4973 23.9923 23.5803 24.7201 23.5803 24.7201C23.5803 24.7201 23.5969 24.9359 23.5554 24.947C23.5277 24.9691 23.4945 24.9387 23.4945 24.9387C23.453 24.9415 23.0546 24.2718 23.0546 24.2718L22.9771 24.1417C22.5371 23.4333 22.2714 23.1926 22.2714 23.1926L22.2683 23.1896C22.2052 23.1292 22.0467 22.9777 21.8508 23.1953C21.6516 23.4195 21.4966 24.1334 21.433 24.8031C21.3804 25.4728 21.4219 25.8546 21.5187 26.0151C21.6267 26.1784 21.8342 26.2337 22.0058 26.0954C22.1433 25.9896 22.1563 25.4489 22.1671 24.9973C22.1705 24.8581 22.1736 24.7274 22.1801 24.6205C22.2078 24.1666 22.2521 24.2469 22.2521 24.2469C22.2908 24.2386 22.4983 24.6537 22.4983 24.6537C22.4983 24.6537 23.0435 25.7689 23.3866 25.9349Z" fill="white"/>
<path d="M21.3266 23.2641C21.3325 23.2509 21.3383 23.238 21.3444 23.2258C21.379 23.1497 21.3617 23.0928 21.3566 23.0759C21.3556 23.0726 21.3555 23.0708 21.3555 23.0708C21.112 22.7996 19.7865 22.8467 19.7865 22.8467C19.305 22.8909 18.1898 23.0874 18.0293 23.5966C17.8771 24.0836 18.0155 24.2552 18.0155 24.2552C18.134 24.4733 18.8537 24.4924 19.2193 24.502C19.2805 24.5037 19.3317 24.505 19.3686 24.507C19.637 24.5208 20.3261 24.6039 20.5668 24.7422C20.8076 24.8889 20.6498 25.0687 20.6498 25.0687C20.2514 25.5115 18.9148 25.5807 18.5689 25.3842C18.4333 25.2929 18.4001 25.2016 18.5385 25.0549C18.6768 24.8944 19.1251 25.1296 19.0753 25.1103C19.0227 25.0826 19.2939 25.2597 19.6647 25.2708C20.0466 25.2791 20.3095 25.1379 20.3288 25.0051C20.3454 24.8806 20.0023 24.756 20.0023 24.756C18.8705 24.4406 18.425 24.709 18.425 24.709C17.8079 25.0964 18.2673 25.6084 18.2673 25.6084C19.2635 26.671 20.8076 25.9792 20.9874 25.8297C21.159 25.6692 21.2365 25.5143 21.2448 25.0715C21.2531 24.6398 21.0622 24.4489 21.0622 24.4489C20.742 24.0487 19.8492 24.0394 19.581 24.0366L19.5789 24.0366C19.3299 24.0227 18.8152 23.9536 18.6907 23.9287C18.5661 23.901 18.6464 23.8069 18.6464 23.8069C18.7543 23.6464 21.0317 23.4914 21.0317 23.4914C21.2389 23.4601 21.2867 23.3533 21.3266 23.2641Z" fill="white"/>
<path d="M16.9833 26.1452C17.0801 26.278 17.4205 26.3306 17.581 26.2116C17.7332 26.0954 17.6613 24.983 17.6613 24.983C17.6613 24.983 17.6059 23.7488 17.5893 23.5136C17.5706 23.2868 17.4902 23.1758 17.42 23.0788C17.4174 23.0752 17.4148 23.0716 17.4122 23.068C17.3458 22.9657 17.2406 22.8356 17.0691 22.985C16.9155 23.1254 16.8937 23.9832 16.8751 24.714C16.8743 24.7467 16.8734 24.7792 16.8726 24.8114C16.8532 25.553 16.8864 26.0262 16.9833 26.1452Z" fill="white"/>
<path fill-rule="evenodd" clip-rule="evenodd" d="M16.8671 22.2185C17.1382 22.3347 17.4592 22.3873 17.9269 22.2323C18.6574 21.9861 19.3686 21.2666 19.3769 20.6882C19.3908 20.1127 18.7432 20.1099 18.7432 20.1099H18.7239C18.6104 19.7529 17.9435 19.8027 17.9435 19.8027C16.5793 19.9134 16.131 20.8598 16.0646 21.1089C16.0203 21.3247 16.0397 21.6457 16.3053 21.8837C16.2363 22.0709 16.2792 22.1616 16.3051 22.2164C16.3083 22.2231 16.3112 22.2293 16.3136 22.2351C16.3358 22.3043 16.4547 22.5174 16.5876 22.5035C16.6789 22.4897 16.7481 22.4261 16.8671 22.2185ZM16.5737 21.3967C16.5101 21.3053 16.5156 21.1725 16.654 20.9511C16.8422 20.6578 17.1161 20.5167 17.4426 20.489C17.0193 20.7768 16.7315 21.1559 16.5737 21.3967ZM17.1299 21.69C17.4454 21.2195 18.1095 20.644 18.5385 20.5803C18.9931 20.5007 18.8684 20.9075 18.8503 20.9663C18.8489 20.9708 18.8484 20.9733 18.8484 20.9733C18.4693 21.7453 17.6142 21.7785 17.1299 21.69Z" fill="white"/>
<path fill-rule="evenodd" clip-rule="evenodd" d="M28.2403 26.2033C29.2033 26.4219 29.9255 25.4866 30.1829 25.0383C30.3323 24.7699 30.4126 24.4101 30.4153 24.0698C30.4153 23.6851 30.3102 23.3282 30.0805 23.1649C29.397 22.6917 28.2957 24.1943 27.8114 24.9387C27.7394 24.5596 27.9968 24.0781 27.9968 24.0781C27.9968 24.0781 28.4091 23.3641 28.4672 23.2202C28.5253 23.0763 28.5585 22.7775 28.4866 22.7471C28.4229 22.7166 28.3123 22.8135 28.3123 22.8135C27.3908 23.6436 27.2607 24.5623 27.2607 24.5623C27.1722 25.0577 27.2746 25.4063 27.424 25.6499C26.912 26.7429 26.6602 27.6976 26.7266 28.2621C26.7875 28.691 27.0975 29.001 27.2829 29.0674C27.471 29.1476 27.5042 28.9207 27.5042 28.9207C27.6564 27.7529 27.9221 26.9754 28.2403 26.2033ZM29.6571 23.8899C29.9449 23.5634 29.9837 23.8595 29.9837 23.8595C30.0501 24.4351 29.6322 24.8667 29.4524 25.0272C29.3417 25.1324 28.9764 25.3399 28.5973 25.3814C28.9598 24.6813 29.4081 24.1639 29.6571 23.8899Z" fill="white"/>
<path fill-rule="evenodd" clip-rule="evenodd" d="M14.4153 26.5879C16.2389 26.0317 16.4963 24.9055 16.5488 24.2358C16.6042 23.5551 16.1005 21.8007 13.1479 20.3036C13.1479 20.3036 9.99607 18.682 7.40872 19.5786C7.40872 19.5786 7.24545 19.5703 7.09602 19.7917C7.07981 19.8145 7.06382 19.8366 7.0483 19.858C6.92081 20.034 6.82494 20.1664 6.89402 20.3119C6.9715 20.4752 7.37275 20.5471 7.72972 20.4337C7.72972 20.4337 7.89022 20.3257 7.68267 20.2593C7.4862 20.1929 7.37275 20.1763 7.37275 20.1763C7.37275 20.1763 7.27036 20.1597 7.38105 20.1044C7.48343 20.0518 8.6678 19.6699 10.7598 20.2178C12.8546 20.7547 15.6882 22.4454 15.6024 24.2081C15.5194 25.9681 12.7633 26.0456 12.7633 26.0456C12.7633 26.0456 12.1988 26.0732 11.4433 25.9293C11.4407 25.8221 11.4376 25.7005 11.4342 25.5698C11.4194 24.9992 11.4001 24.255 11.4046 23.7709C12.4838 23.7709 13.5685 23.9563 13.6599 24.222C13.6599 24.222 13.7152 24.3437 13.4717 24.4627C13.2475 24.5596 13.076 24.6371 13.2614 24.7256C13.2614 24.7256 13.5326 24.8501 13.7069 24.8363C13.8729 24.8225 14.3102 24.626 14.3461 24.15C14.3959 23.6658 13.837 23.2396 13.0013 23.0874C12.3593 22.9712 12.0189 22.9297 11.4433 22.9574C11.4378 22.4344 11.3686 21.7785 11.2524 21.6263C11.2441 21.6141 11.2357 21.6016 11.2273 21.589C11.0949 21.3911 10.9459 21.1684 10.8262 21.452C10.7211 21.7121 10.6325 22.2794 10.6021 23.0321C9.72211 23.1815 8.74528 23.5495 8.44643 23.9176C8.1282 24.3244 8.44643 24.6564 8.47686 24.6869C8.50177 24.7284 9.14376 25.6526 10.5384 26.2946C10.5661 26.5409 10.6159 26.8176 10.7128 26.9698C10.9286 27.2908 11.3216 27.0639 11.3741 27.0113C11.4129 26.9698 11.4406 26.8647 11.4544 26.6184C12.0742 26.7761 13.2116 26.9505 14.4153 26.5879ZM8.64843 24.4959C8.64843 24.4959 8.44643 24.2884 8.73975 24.1445C9.0054 24.0227 9.58652 23.8622 10.5938 23.7931C10.5923 23.8876 10.5914 23.977 10.5905 24.0662C10.5867 24.4623 10.5828 24.8551 10.5218 25.6886C9.87708 25.4589 9.19911 25.0881 8.64843 24.4959Z" fill="white"/>
<path d="M35.664 24.2998V23.9345C35.664 23.857 35.5976 23.7906 35.5201 23.7906H33.7574C33.7214 23.1901 33.6495 22.6062 33.536 22.0057C33.5222 21.9421 33.4696 21.8978 33.406 21.8978H32.9992C32.9632 21.8978 32.93 21.9144 32.9079 21.9421C32.8857 21.9698 32.8774 22.0057 32.883 22.0417C32.9992 22.6228 33.0711 23.1957 33.1071 23.7906H31.4108C31.3305 23.7906 31.2669 23.8542 31.2669 23.9345V24.2998C31.2669 24.38 31.3305 24.4437 31.4108 24.4437H33.132C33.1348 24.5322 33.1348 24.6125 33.1348 24.6899C33.1348 25.2185 33.1099 25.6529 33.0573 26.1455C33.0518 26.1842 33.0656 26.223 33.0905 26.2507C33.1154 26.2783 33.1514 26.2949 33.1901 26.2949H33.5665C33.6384 26.2949 33.6993 26.2396 33.7076 26.1649C33.7602 25.6695 33.7823 25.2296 33.7823 24.6899C33.7823 24.6545 33.7817 24.6177 33.781 24.5792C33.7803 24.5365 33.7795 24.4916 33.7795 24.4437H35.5201C35.6004 24.4437 35.664 24.38 35.664 24.2998Z" fill="white"/>
<path d="M33.2961 21.0377C32.3967 18.8267 30.8775 16.9422 28.9017 15.5862C26.8789 14.1999 24.5074 13.4666 22.0446 13.4666C17.9712 13.4666 14.1912 15.4894 11.9359 18.8792C11.911 18.9152 11.9055 18.9622 11.9193 19.0038C11.9332 19.048 11.9664 19.0785 12.0079 19.0923L12.3234 19.2002C12.3427 19.2058 12.3621 19.2085 12.3787 19.2085C12.4368 19.2085 12.4922 19.1781 12.5254 19.131C13.5603 17.6091 14.9605 16.3445 16.5766 15.47C18.2452 14.5679 20.1352 14.0892 22.0418 14.0892C24.3469 14.0892 26.569 14.7699 28.4728 16.0539C30.3296 17.3074 31.7713 19.0591 32.643 21.1151C32.6679 21.176 32.7288 21.2175 32.7952 21.2175H33.1716C33.2158 21.2175 33.2573 21.1954 33.2795 21.1594C33.3071 21.1234 33.3127 21.0792 33.2961 21.0377ZM32.7177 21.1677C32.726 21.1732 32.7343 21.1788 32.7426 21.1815C32.7343 21.176 32.726 21.1732 32.7177 21.1677Z" fill="url(#paint1_radial_1_670)"/>
<defs>
<radialGradient id="paint0_radial_1_670" cx="0" cy="0" r="1" gradientUnits="userSpaceOnUse" gradientTransform="translate(21.3894 39.8062) rotate(-90) scale(36.8377 45.7367)">
<stop offset="0.0655875" stop-color="#0367DE"/>
<stop offset="0.347104" stop-color="#0057BE"/>
<stop offset="0.769378" stop-color="#000940"/>
</radialGradient>
<radialGradient id="paint1_radial_1_670" cx="0" cy="0" r="1" gradientUnits="userSpaceOnUse" gradientTransform="translate(32.9424 21.2036) scale(21.0343 21.0343)">
<stop stop-color="white"/>
<stop offset="0.01" stop-color="white"/>
<stop offset="0.03" stop-color="#CBFFFF"/>
<stop offset="0.06" stop-color="#96FFFF"/>
<stop offset="0.08" stop-color="#68FFFF"/>
<stop offset="0.11" stop-color="#43FFFF"/>
<stop offset="0.14" stop-color="#25FFFF"/>
<stop offset="0.16" stop-color="#11FFFF"/>
<stop offset="0.19" stop-color="#04FFFF"/>
<stop offset="0.22" stop-color="#00FFFF"/>
<stop offset="1" stop-color="#0000FF" stop-opacity="0"/>
</radialGradient>
</defs>
</svg>
