<svg width="33" height="32" viewBox="0 0 33 32" fill="none" xmlns="http://www.w3.org/2000/svg">
    <g clip-path="url(#clip0_1_833)">
        <path
            d="M1.13429 31.7258C0.768166 31.3596 0.768166 30.7661 1.13429 30.3999L5.50929 26.0249C5.87542 25.6588 6.46898 25.6588 6.8351 26.0249C7.20123 26.3911 7.20123 26.9846 6.8351 27.3508L2.4601 31.7258C2.09404 32.0919 1.50042 32.0919 1.13429 31.7258ZM7.76348 31.7258L10.857 28.6322C11.2232 28.2661 11.2232 27.6725 10.857 27.3064C10.4909 26.9403 9.89735 26.9403 9.53123 27.3064L6.43767 30.3999C6.07154 30.7661 6.07154 31.3596 6.43767 31.7258C6.80373 32.0919 7.39735 32.0919 7.76348 31.7258ZM2.46017 26.4224L5.55379 23.3289C5.91992 22.9628 5.91992 22.3692 5.55379 22.0031C5.18767 21.6369 4.5941 21.6369 4.22798 22.0031L1.13435 25.0966C0.768229 25.4627 0.768229 26.0563 1.13435 26.4224C1.50042 26.7886 2.09404 26.7886 2.46017 26.4224ZM32.2927 9.51301C29.9347 9.7647 27.4876 8.98745 25.6802 7.18001C23.8727 5.37251 23.0954 2.92538 23.3471 0.567383C20.6586 1.30195 18.1969 2.73076 16.2259 4.70176L7.00573 13.9219C6.6396 14.288 6.6396 14.8816 7.00573 15.2477L17.6124 25.8543C17.9785 26.2204 18.572 26.2204 18.9382 25.8543L28.1583 16.6342C30.1293 14.6632 31.5581 12.2015 32.2927 9.51301Z"
            fill="url(#paint0_linear_1_833)" />
        <path
            d="M23.3471 0.567068C23.3609 0.563318 23.3745 0.559318 23.3883 0.555568C26.0929 -0.17562 28.9545 -0.185245 31.6639 0.527755C31.9908 0.613755 32.246 0.868942 32.332 1.19582C33.045 3.90525 33.0354 6.76694 32.3043 9.4715C32.3006 9.48525 32.2965 9.49894 32.2928 9.51269C29.9347 9.76438 27.4876 8.98713 25.6802 7.17969C23.8727 5.37219 23.0954 2.92507 23.3471 0.567068ZM27.9422 25.2499L27.5222 17.27L21.7126 23.0796L23.6146 28.1427C23.8543 28.7808 24.6731 28.9579 25.1551 28.4759L27.6689 25.9621C27.8568 25.7743 27.9561 25.5154 27.9422 25.2499ZM7.60982 4.91763C7.34445 4.90369 7.08557 5.00301 6.89763 5.19094L4.38382 7.70475C3.90188 8.18669 4.07901 9.00557 4.71707 9.24532L9.78013 11.1473L15.5898 5.33769L7.60982 4.91763ZM23.6914 14.9136C25.2754 13.3296 25.2754 10.7524 23.6914 9.16838C22.1074 7.58438 19.5301 7.58438 17.9461 9.16838C16.3621 10.7524 16.3621 13.3296 17.9461 14.9136C19.5301 16.4976 22.1074 16.4976 23.6914 14.9136ZM6.12188 18.341C5.75576 18.7071 5.75576 19.3007 6.12188 19.6668L13.1929 26.7379C13.5591 27.104 14.1526 27.104 14.5188 26.7379L16.5075 24.7491L8.11063 16.3523L6.12188 18.341Z"
            fill="url(#paint1_linear_1_833)" />
    </g>
    <defs>
        <linearGradient id="paint0_linear_1_833" x1="1.13429" y1="31.7258" x2="27.8199" y2="5.0402"
            gradientUnits="userSpaceOnUse">
            <stop stop-color="#00B59C" />
            <stop offset="1" stop-color="#9CFFAC" />
        </linearGradient>
        <linearGradient id="paint1_linear_1_833" x1="9.65745" y1="23.2023" x2="32.0883"
            y2="0.771502" gradientUnits="userSpaceOnUse">
            <stop stop-color="#C3FFE8" />
            <stop offset="0.9973" stop-color="#F0FFF4" />
        </linearGradient>
        <clipPath id="clip0_1_833">
            <rect width="32" height="32" fill="white" transform="translate(0.85976)" />
        </clipPath>
    </defs>
</svg>
    