<svg width="48" height="48" viewBox="0 0 48 48" fill="none" xmlns="http://www.w3.org/2000/svg">
<rect x="2.66699" y="2.66699" width="42.6667" height="42.6667" rx="6.0766" fill="url(#paint0_linear_1_652)"/>
<path d="M17.0199 23.8042H19.6839V13.9854H17.0146V17.6497H15.2878V13.9854H12.5553V23.8042H15.293V19.9978H17.0199V23.8042Z" fill="white"/>
<path d="M33.8832 18.8027C33.8832 19.8977 32.9881 20.7717 31.9247 20.7717C30.8296 20.7717 29.9556 19.8977 29.9556 18.8027C29.9556 17.7076 30.8296 16.8442 31.9247 16.8442C32.9881 16.8442 33.8832 17.7076 33.8832 18.8027Z" fill="white"/>
<path fill-rule="evenodd" clip-rule="evenodd" d="M36.8894 18.8027C36.8894 21.5719 34.6571 23.8463 31.9247 23.8463C29.1606 23.8463 27.8023 21.8352 27.4179 21.0349C27.4179 22.3301 26.2018 23.8042 24.4749 23.8042H20.2315V13.9801H24.7908C26.2018 13.9801 27.4179 15.4332 27.4179 16.6494C27.7549 15.828 29.1553 13.8169 31.9247 13.8169C34.6571 13.8169 36.8894 15.9913 36.8894 18.8027ZM24.8487 20.6769C24.8487 20.2399 24.5328 19.8556 24.138 19.8556H22.7796V21.5193H24.138C24.5328 21.5193 24.8487 21.135 24.8487 20.6769ZM24.8487 16.9916C24.8487 16.5546 24.5328 16.1703 24.138 16.1703H22.7796V17.8129H24.138C24.5328 17.8129 24.8487 17.4285 24.8487 16.9916ZM26.9599 18.2025C26.7651 18.4183 26.2492 18.7816 25.9333 18.8027C26.2492 18.8606 26.7441 19.2396 26.9599 19.5608C26.8862 19.2975 26.8862 18.4657 26.9599 18.2025ZM31.9457 16.3071C30.5611 16.3019 29.4344 17.418 29.4344 18.8027C29.4344 20.1926 30.5505 21.3087 31.9299 21.3087C33.2988 21.3087 34.4044 20.2084 34.4254 18.8395C34.4412 17.4496 33.3356 16.3177 31.9457 16.3071Z" fill="white"/>
<path d="M17.5381 24.6324C19.4956 24.6324 21.0936 25.8259 21.1436 28.083C21.1436 28.0855 21.1448 28.088 21.1454 28.0893C21.1461 28.0905 21.1461 28.0905 21.1436 28.088V33.9507C21.1436 34.0306 21.0787 34.0955 20.9988 34.0955H20.1898C19.7204 34.0955 19.3358 33.716 19.3358 33.2416V28.093C19.3009 26.9794 18.5119 26.3901 17.5381 26.3901C16.5643 26.3901 15.7753 26.9794 15.7403 28.093V33.9557C15.7403 34.0356 15.6754 34.1005 15.5955 34.1005H14.7865C14.3171 34.1005 13.9326 33.721 13.9326 33.2466V28.098C13.8976 26.9844 13.1086 26.3951 12.1348 26.3951C11.161 26.3951 10.372 26.9844 10.337 28.098V33.9607C10.337 34.0406 10.2721 34.1055 10.1922 34.1055H9.38323C8.91381 34.1055 8.5293 33.726 8.5293 33.2516V28.088C8.57923 25.8308 10.1772 24.6324 12.1348 24.6324C13.2085 24.6324 14.1772 24.9919 14.8364 25.691C15.4956 24.9919 16.4644 24.6324 17.5381 24.6324Z" fill="white"/>
<path d="M37.9826 24.7772H39.3559C39.4408 24.7772 39.4907 24.877 39.4408 24.947L36.7341 28.9619C36.5394 29.2516 36.5394 29.6311 36.7341 29.9207L39.4458 33.9307C39.4907 34.0006 39.4408 34.0955 39.3559 34.0955H37.9826C37.6031 34.0955 37.2435 33.9057 37.0338 33.5911L35.5157 31.3439C35.3159 31.0493 34.8864 31.0493 34.6867 31.3439L33.1686 33.5911C32.9539 33.9057 32.5993 34.0955 32.2198 34.0955H30.8465C30.7616 34.0955 30.7067 34.0006 30.7566 33.9307L33.4632 29.9157C33.658 29.6261 33.658 29.2466 33.4632 28.9569L30.7566 24.942C30.7116 24.8721 30.7616 24.7772 30.8465 24.7772H32.2198C32.5993 24.7772 32.9588 24.9669 33.1686 25.2815L34.6867 27.5287C34.8864 27.8234 35.3159 27.8234 35.5157 27.5287L37.0338 25.2815C37.2485 24.9669 37.6031 24.7772 37.9826 24.7772Z" fill="white"/>
<path fill-rule="evenodd" clip-rule="evenodd" d="M29.3284 24.7772H30.1374C30.2173 24.7772 30.2772 24.8421 30.2822 24.922V33.9607C30.2822 34.0406 30.2173 34.1055 30.1374 34.1055H29.3284C28.8789 34.1055 28.5144 33.7609 28.4744 33.3265C27.7553 33.8658 26.8614 34.1404 25.8927 34.1404C23.5206 34.1404 21.603 32.4925 21.603 29.3814C21.603 26.2703 23.5256 24.6224 25.8927 24.6224C26.8664 24.6224 27.7703 24.902 28.4894 25.4513C28.5743 25.0668 28.9189 24.7772 29.3284 24.7772ZM23.3308 29.3864C23.3308 31.3389 24.4794 32.3727 25.8927 32.3727C27.3059 32.3727 28.4545 31.3389 28.4545 29.3864C28.4545 27.4338 27.3059 26.4001 25.8927 26.4001C24.4794 26.4001 23.3308 27.4338 23.3308 29.3864Z" fill="white"/>
<defs>
<linearGradient id="paint0_linear_1_652" x1="39.9962" y1="0.799802" x2="15.9962" y2="39.4665" gradientUnits="userSpaceOnUse">
<stop stop-color="#220635"/>
<stop offset="1" stop-color="#37086E"/>
</linearGradient>
</defs>
</svg>
