<svg width="43" height="43" viewBox="0 0 43 43" fill="none" xmlns="http://www.w3.org/2000/svg">
<rect x="2.96094" y="2.96289" width="37.0767" height="37.0767" rx="6.0766" fill="url(#paint0_linear_1_664)"/>
<path d="M24.6278 26.0334H26.8421V16.8672H24.6278V26.0334ZM20.7399 23.42C20.7399 23.7418 20.4695 24.0122 20.1477 24.0122H18.8603C18.5385 24.0122 18.2681 23.7418 18.2681 23.42V19.7252H16.0538V23.6002C16.0538 25.1837 17.0708 26.0205 18.5642 26.0205H20.727C22.1045 26.0205 22.9413 25.0292 22.9413 23.6002V19.7252H20.727C20.7399 19.7252 20.7399 23.3041 20.7399 23.42ZM33.1889 19.7252V23.42C33.1889 23.7418 32.9185 24.0122 32.5967 24.0122H31.3093C30.9875 24.0122 30.7171 23.7418 30.7171 23.42V19.7252H28.5028V23.6002C28.5028 25.1837 29.5198 26.0205 31.0132 26.0205H33.176C34.5535 26.0205 35.3903 25.0292 35.3903 23.6002V19.7252H33.1889ZM11.9728 19.7252H10.5567C10.0546 19.7252 9.81 19.8539 9.81 19.8539V16.8672H7.5957V26.0205H9.79713V22.3386C9.79713 22.0167 10.0675 21.7464 10.3893 21.7464H11.6767C11.9986 21.7464 12.2689 22.0167 12.2689 22.3386V26.0334H14.4832V22.0425C14.4832 20.3689 13.3632 19.7252 11.9728 19.7252Z" fill="#1CE783"/>
<defs>
<linearGradient id="paint0_linear_1_664" x1="3.88786" y1="40.0395" x2="38.8789" y2="3.88981" gradientUnits="userSpaceOnUse">
<stop stop-color="#04080B"/>
<stop offset="1" stop-color="#183545"/>
</linearGradient>
</defs>
</svg>
