<svg width="258" height="48" viewBox="0 0 258 48" fill="none" xmlns="http://www.w3.org/2000/svg">
<path d="M78.666 26.4668L88.0204 11.3867H93.3318L92.164 35.3818H86.3756L87.0913 21.9842L78.7665 35.3818H75.5771L72.4632 21.9466L67.9304 35.3818H62.0038L70.1654 11.3867H75.1628L78.666 26.4668Z" fill="white"/>
<path d="M104.204 35.8214C102.622 35.8214 101.141 35.473 99.7595 34.7793C98.3783 34.0855 97.2671 33.0967 96.4321 31.816C95.6034 30.5352 95.189 29.085 95.189 27.4589C95.189 25.5943 95.6473 23.8647 96.5702 22.2732C97.4994 20.6848 98.7833 19.4292 100.425 18.5063C102.073 17.5771 103.928 17.1125 105.987 17.1125C107.601 17.1125 109.101 17.4704 110.483 18.1798C111.87 18.883 112.975 19.8749 113.797 21.1557C114.617 22.4364 115.028 23.8898 115.028 25.5127C115.028 27.4056 114.557 29.1415 113.622 30.7236C112.693 32.2994 111.402 33.5425 109.754 34.4528C108.103 35.3663 106.254 35.8214 104.204 35.8214ZM104.719 30.7236C105.674 30.7236 106.496 30.4976 107.193 30.0455C107.896 29.5872 108.436 28.9845 108.813 28.2374C109.189 27.4935 109.378 26.7244 109.378 25.9271C109.378 24.8975 109.017 24.0248 108.298 23.3028C107.576 22.584 106.644 22.223 105.498 22.223C104.569 22.223 103.746 22.4553 103.037 22.9136C102.324 23.3656 101.784 23.9652 101.417 24.7091C101.056 25.4468 100.877 26.2284 100.877 27.0571C100.877 28.0805 101.235 28.9469 101.957 29.6563C102.676 30.3689 103.595 30.7236 104.719 30.7236Z" fill="white"/>
<path d="M123.875 28.8401L130.153 17.552H136.281L125.382 35.382H120.272L116.228 17.552H121.891L123.875 28.8401Z" fill="white"/>
<path d="M139.605 35.3818H133.879L137.345 17.5519H143.033L139.605 35.3818ZM143.648 14.8146H137.722L138.613 10.219H144.54L143.648 14.8146Z" fill="white"/>
<path d="M153.532 17.1125C155.239 17.1125 156.752 17.4861 158.077 18.2301C159.408 18.9677 160.438 19.9754 161.166 21.2561C161.901 22.5369 162.271 23.9432 162.271 25.475C162.271 26.4136 162.145 27.3051 161.894 28.1495H148.622C148.764 29.2482 149.153 30.0895 149.79 30.6734C150.424 31.2509 151.272 31.5397 152.326 31.5397C153.13 31.5397 153.836 31.3702 154.448 31.0249C155.067 30.6828 155.516 30.259 155.792 29.7567H161.417C160.679 31.4989 159.483 32.946 157.826 34.1012C156.169 35.2501 154.197 35.8214 151.912 35.8214C150.245 35.8214 148.742 35.4699 147.404 34.7667C146.073 34.0573 145.022 33.0685 144.253 31.8034C143.49 30.5321 143.11 29.0975 143.11 27.4966C143.11 25.6885 143.553 23.9934 144.441 22.4113C145.336 20.8229 146.576 19.5422 148.158 18.5691C149.746 17.5991 151.538 17.1125 153.532 17.1125ZM153.318 21.4319C152.314 21.4319 151.451 21.7176 150.732 22.2857C150.01 22.8571 149.467 23.623 149.099 24.5835H156.922C156.853 23.6481 156.511 22.8884 155.892 22.3109C155.271 21.727 154.414 21.4319 153.318 21.4319Z" fill="white"/>
<path d="M186.912 26.1655L193.981 11.3867H200.586L188.18 35.3818H182.969L181.287 19.9878L173.678 35.3818H168.505L165.29 11.3867H171.355L172.724 26.1906L180.157 11.3867H185.167L186.912 26.1655Z" fill="white"/>
<path d="M213.857 17.552H219.168L215.74 35.382H210.492L210.806 33.7748C209.431 35.1403 207.635 35.8214 205.419 35.8214C204.028 35.8214 202.744 35.4573 201.564 34.729C200.39 34.0008 199.455 33.0057 198.752 31.7406C198.055 30.4693 197.709 29.0661 197.709 27.5343C197.709 25.6854 198.149 23.962 199.028 22.3611C199.907 20.7633 201.112 19.492 202.644 18.544C204.176 17.5897 205.865 17.1125 207.717 17.1125C209.089 17.1125 210.247 17.3574 211.195 17.8408C212.149 18.318 212.896 18.9332 213.442 19.6866L213.857 17.552ZM207.315 30.7487C208.269 30.7487 209.098 30.5195 209.801 30.0581C210.511 29.5904 211.057 28.9845 211.433 28.2374C211.816 27.4935 212.011 26.7118 212.011 25.8894C212.011 24.8598 211.641 23.9871 210.906 23.2651C210.178 22.5463 209.239 22.1853 208.093 22.1853C207.155 22.1853 206.326 22.4176 205.607 22.8759C204.885 23.3279 204.339 23.9306 203.962 24.684C203.586 25.4374 203.397 26.2284 203.397 27.0571C203.397 28.0805 203.762 28.95 204.49 29.6689C205.224 30.3908 206.166 30.7487 207.315 30.7487Z" fill="white"/>
<path d="M227.533 28.8401L233.811 17.552H239.938L229.04 35.382H223.929L219.886 17.552H225.549L227.533 28.8401Z" fill="white"/>
<path d="M248.448 17.1125C250.156 17.1125 251.669 17.4861 252.994 18.2301C254.325 18.9677 255.354 19.9754 256.083 21.2561C256.817 22.5369 257.188 23.9432 257.188 25.475C257.188 26.4136 257.062 27.3051 256.811 28.1495H243.539C243.68 29.2482 244.069 30.0895 244.707 30.6734C245.341 31.2509 246.188 31.5397 247.243 31.5397C248.047 31.5397 248.753 31.3702 249.365 31.0249C249.983 30.6828 250.432 30.259 250.708 29.7567H256.334C255.596 31.4989 254.4 32.946 252.743 34.1012C251.085 35.2501 249.114 35.8214 246.829 35.8214C245.162 35.8214 243.658 35.4699 242.321 34.7667C240.99 34.0573 239.938 33.0685 239.169 31.8034C238.406 30.5321 238.027 29.0975 238.027 27.4966C238.027 25.6885 238.469 23.9934 239.358 22.4113C240.252 20.8229 241.492 19.5422 243.074 18.5691C244.663 17.5991 246.455 17.1125 248.448 17.1125ZM248.235 21.4319C247.23 21.4319 246.367 21.7176 245.648 22.2857C244.926 22.8571 244.383 23.623 244.016 24.5835H251.839C251.769 23.6481 251.427 22.8884 250.809 22.3109C250.187 21.727 249.33 21.4319 248.235 21.4319Z" fill="white"/>
<mask id="mask0_1_1813" style="mask-type:luminance" maskUnits="userSpaceOnUse" x="43" y="14" width="14" height="16">
<path d="M43.3068 14.1445H56.3999V29.413H43.3068V14.1445Z" fill="white"/>
</mask>
<g mask="url(#mask0_1_1813)">
<path d="M44.0506 21.3991L56.5881 14.1604V28.6378L44.0506 21.3991Z" fill="#E50914"/>
</g>
<path d="M39.6653 8.70772L46.857 4.55786V12.8639L39.6653 8.70772Z" fill="#E50914"/>
<mask id="mask1_1_1813" style="mask-type:luminance" maskUnits="userSpaceOnUse" x="51" y="0" width="6" height="6">
<path d="M51.3429 0H56.3999V5.30504H51.3429V0Z" fill="white"/>
</mask>
<g mask="url(#mask1_1_1813)">
<path d="M51.999 2.64617L56.5883 -0.00634766V5.29555L51.999 2.64617Z" fill="#E50914"/>
</g>
<path d="M48.9384 9.34518L53.5277 6.6958V11.9946L48.9384 9.34518Z" fill="#E50914"/>
<path d="M39.6653 16.8129L44.2547 14.1604V19.4623L39.6653 16.8129Z" fill="#E50914"/>
<mask id="mask2_1_1813" style="mask-type:luminance" maskUnits="userSpaceOnUse" x="0" y="1" width="40" height="47">
<path d="M0 1.28711H39.2887V47.0109H0V1.28711Z" fill="white"/>
</mask>
<g mask="url(#mask2_1_1813)">
<path d="M30.245 15.7615L25.6525 18.4109L30.245 21.0634V15.7615ZM36.2595 14.9956V6.68957L29.0647 10.8426L36.2595 14.9956ZM39.0062 1.93701V19.7481L30.6813 24.5541L39.0062 29.36V47.1711L-0.169495 24.5541L39.0062 1.93701Z" fill="#BF1E24"/>
</g>
</svg>
