<svg width="258" height="48" viewBox="0 0 258 48" fill="none" xmlns="http://www.w3.org/2000/svg">
<path d="M78.6622 26.4668L88.0167 11.3867H93.328L92.1602 35.3818H86.3718L87.0875 21.9842L78.7627 35.3818H75.5734L72.4594 21.9466L67.9266 35.3818H62L70.1616 11.3867H75.159L78.6622 26.4668Z" fill="#141414"/>
<path d="M104.203 35.8222C102.621 35.8222 101.139 35.4737 99.758 34.78C98.3768 34.0863 97.2656 33.0975 96.4306 31.8167C95.6019 30.536 95.1875 29.0857 95.1875 27.4597C95.1875 25.5951 95.6458 23.8654 96.5687 22.2739C97.4979 20.6855 98.7817 19.4299 100.423 18.507C102.071 17.5779 103.927 17.1133 105.986 17.1133C107.599 17.1133 109.1 17.4711 110.481 18.1806C111.869 18.8837 112.974 19.8757 113.796 21.1564C114.615 22.4372 115.026 23.8905 115.026 25.5134C115.026 27.4063 114.556 29.1422 113.62 30.7243C112.691 32.3001 111.401 33.5432 109.753 34.4535C108.102 35.367 106.253 35.8222 104.203 35.8222ZM104.718 30.7243C105.672 30.7243 106.494 30.4983 107.191 30.0463C107.894 29.588 108.434 28.9853 108.811 28.2382C109.188 27.4942 109.376 26.7251 109.376 25.9278C109.376 24.8982 109.015 24.0255 108.296 23.3035C107.574 22.5847 106.642 22.2237 105.496 22.2237C104.567 22.2237 103.745 22.456 103.035 22.9143C102.323 23.3663 101.783 23.9659 101.415 24.7098C101.054 25.4475 100.876 26.2292 100.876 27.0579C100.876 28.0812 101.233 28.9476 101.955 29.657C102.674 30.3696 103.594 30.7243 104.718 30.7243Z" fill="#141414"/>
<path d="M123.873 28.8409L130.152 17.5527H136.279L125.38 35.3827H120.27L116.227 17.5527H121.889L123.873 28.8409Z" fill="#141414"/>
<path d="M139.608 35.3816H133.883L137.348 17.5516H143.036L139.608 35.3816ZM143.652 14.8144H137.725L138.617 10.2188H144.543L143.652 14.8144Z" fill="#141414"/>
<path d="M153.531 17.1133C155.239 17.1133 156.752 17.4868 158.076 18.2308C159.407 18.9685 160.437 19.9761 161.165 21.2569C161.9 22.5376 162.27 23.9439 162.27 25.4758C162.27 26.4144 162.145 27.3059 161.894 28.1503H148.622C148.763 29.2489 149.152 30.0902 149.789 30.6741C150.423 31.2517 151.271 31.5405 152.326 31.5405C153.129 31.5405 153.836 31.371 154.448 31.0257C155.066 30.6835 155.515 30.2597 155.791 29.7575H161.416C160.679 31.4997 159.483 32.9468 157.825 34.102C156.168 35.2509 154.197 35.8222 151.911 35.8222C150.244 35.8222 148.741 35.4706 147.404 34.7674C146.073 34.058 145.021 33.0692 144.252 31.8042C143.489 30.5328 143.109 29.0983 143.109 27.4973C143.109 25.6892 143.552 23.9941 144.44 22.412C145.335 20.8237 146.575 19.5429 148.157 18.5698C149.745 17.5998 151.538 17.1133 153.531 17.1133ZM153.318 21.4326C152.313 21.4326 151.45 21.7183 150.731 22.2865C150.009 22.8578 149.466 23.6237 149.099 24.5843H156.921C156.852 23.6488 156.51 22.8892 155.892 22.3116C155.27 21.7277 154.413 21.4326 153.318 21.4326Z" fill="#141414"/>
<path d="M186.911 26.1655L193.98 11.3867H200.585L188.179 35.3818H182.968L181.286 19.9878L173.677 35.3818H168.503L165.289 11.3867H171.354L172.722 26.1906L180.156 11.3867H185.166L186.911 26.1655Z" fill="#141414"/>
<path d="M213.858 17.5528H219.17L215.742 35.3827H210.493L210.807 33.7755C209.432 35.141 207.637 35.8222 205.421 35.8222C204.03 35.8222 202.746 35.458 201.566 34.7298C200.392 34.0015 199.456 33.0064 198.753 31.7414C198.056 30.47 197.711 29.0669 197.711 27.535C197.711 25.6861 198.15 23.9627 199.029 22.3618C199.908 20.764 201.114 19.4927 202.646 18.5447C204.177 17.5904 205.866 17.1133 207.718 17.1133C209.09 17.1133 210.248 17.3581 211.196 17.8415C212.151 18.3187 212.898 18.9339 213.444 19.6873L213.858 17.5528ZM207.317 30.7494C208.271 30.7494 209.1 30.5203 209.803 30.0588C210.512 29.5911 211.058 28.9853 211.435 28.2382C211.818 27.4942 212.013 26.7126 212.013 25.8901C212.013 24.8605 211.642 23.9879 210.908 23.2659C210.179 22.547 209.241 22.186 208.095 22.186C207.156 22.186 206.328 22.4183 205.609 22.8766C204.887 23.3287 204.341 23.9314 203.964 24.6847C203.587 25.4381 203.399 26.2292 203.399 27.0579C203.399 28.0812 203.763 28.9507 204.491 29.6696C205.226 30.3916 206.168 30.7494 207.317 30.7494Z" fill="#141414"/>
<path d="M227.53 28.8409L233.808 17.5527H239.935L229.036 35.3827H223.926L219.883 17.5527H225.546L227.53 28.8409Z" fill="#141414"/>
<path d="M248.445 17.1133C250.153 17.1133 251.666 17.4868 252.991 18.2308C254.322 18.9685 255.351 19.9761 256.079 21.2569C256.814 22.5376 257.184 23.9439 257.184 25.4758C257.184 26.4144 257.059 27.3059 256.808 28.1503H243.536C243.677 29.2489 244.066 30.0902 244.703 30.6741C245.337 31.2517 246.185 31.5405 247.24 31.5405C248.043 31.5405 248.75 31.371 249.362 31.0257C249.98 30.6835 250.429 30.2597 250.705 29.7575H256.331C255.593 31.4997 254.397 32.9468 252.739 34.102C251.082 35.2509 249.111 35.8222 246.825 35.8222C245.159 35.8222 243.655 35.4706 242.318 34.7674C240.987 34.058 239.935 33.0692 239.166 31.8042C238.403 30.5328 238.023 29.0983 238.023 27.4973C238.023 25.6892 238.466 23.9941 239.354 22.412C240.249 20.8237 241.489 19.5429 243.071 18.5698C244.659 17.5998 246.452 17.1133 248.445 17.1133ZM248.232 21.4326C247.227 21.4326 246.364 21.7183 245.645 22.2865C244.923 22.8578 244.38 23.6237 244.013 24.5843H251.835C251.766 23.6488 251.424 22.8892 250.806 22.3116C250.184 21.7277 249.327 21.4326 248.232 21.4326Z" fill="#141414"/>
<mask id="mask0_722_1271" style="mask-type:luminance" maskUnits="userSpaceOnUse" x="43" y="14" width="14" height="16">
<path d="M43.3047 14.1445H56.3978V29.413H43.3047V14.1445Z" fill="white"/>
</mask>
<g mask="url(#mask0_722_1271)">
<path d="M44.0469 21.3989L56.5843 14.1602V28.6376L44.0469 21.3989Z" fill="#E50914"/>
</g>
<path d="M39.6641 8.70845L46.8557 4.55859V12.8646L39.6641 8.70845Z" fill="#E50914"/>
<mask id="mask1_722_1271" style="mask-type:luminance" maskUnits="userSpaceOnUse" x="51" y="0" width="6" height="6">
<path d="M51.3438 0H56.4008V5.30504H51.3438V0Z" fill="white"/>
</mask>
<g mask="url(#mask1_722_1271)">
<path d="M52 2.64666L56.5893 -0.00585938V5.29604L52 2.64666Z" fill="#E50914"/>
</g>
<path d="M48.9375 9.34469L53.5268 6.69531V11.9941L48.9375 9.34469Z" fill="#E50914"/>
<path d="M39.6641 16.8127L44.2534 14.1602V19.4621L39.6641 16.8127Z" fill="#E50914"/>
<mask id="mask2_722_1271" style="mask-type:luminance" maskUnits="userSpaceOnUse" x="0" y="1" width="40" height="47">
<path d="M0 1.28711H39.2887V47.0109H0V1.28711Z" fill="white"/>
</mask>
<g mask="url(#mask2_722_1271)">
<path d="M30.2426 15.762L25.6502 18.4114L30.2426 21.0639V15.762ZM36.2571 14.9961V6.69006L29.0623 10.8431L36.2571 14.9961ZM39.0038 1.9375V19.7486L30.679 24.5545L39.0038 29.3605V47.1716L-0.171875 24.5545L39.0038 1.9375Z" fill="#BF1E24"/>
</g>
</svg>
