<svg width="33" height="32" viewBox="0 0 33 32" fill="none" xmlns="http://www.w3.org/2000/svg">
    <g clip-path="url(#clip0_1_788)">
    <path d="M12.2604 11.3477L13.5137 8.125H11.8842C11.2209 8.125 10.7674 7.45512 11.0137 6.83931L13.5137 0.589312C13.6561 0.233375 14.0008 0 14.3842 0H20.6342C21.2974 0 21.7509 0.669875 21.5046 1.28569L20.2689 4.375H21.8842C22.7917 4.375 23.1697 5.53581 22.4362 6.07025L13.6862 12.4452C12.9295 12.9965 11.9211 12.2203 12.2604 11.3477ZM31.2592 7.625H25.6342C25.1164 7.625 24.6967 8.04475 24.6967 8.5625V12.9375H32.1967V8.5625C32.1967 8.04475 31.7769 7.625 31.2592 7.625ZM8.13416 7.625H2.50916C1.99141 7.625 1.57166 8.04475 1.57166 8.5625V12.9375H9.07166V8.5625C9.07166 8.04475 8.65191 7.625 8.13416 7.625Z" fill="url(#paint0_linear_1_788)"/>
    <path d="M32.1967 12.9375V16.6875C32.1967 25.1444 25.341 32 16.8842 32C8.42728 32 1.57166 25.1444 1.57166 16.6875V12.9375H9.07166V16.6875C9.07166 21.0023 12.5694 24.5 16.8842 24.5C21.1989 24.5 24.6967 21.0023 24.6967 16.6875V12.9375H32.1967ZM27.1967 4.6875V0.9375C27.1967 0.41975 26.7769 0 26.2592 0C25.7414 0 25.3217 0.41975 25.3217 0.9375V4.6875C25.3217 5.20525 25.7414 5.625 26.2592 5.625C26.7769 5.625 27.1967 5.20525 27.1967 4.6875ZM30.9467 4.6875V2.8125C30.9467 2.29475 30.5269 1.875 30.0092 1.875C29.4914 1.875 29.0717 2.29475 29.0717 2.8125V4.6875C29.0717 5.20525 29.4914 5.625 30.0092 5.625C30.5269 5.625 30.9467 5.20525 30.9467 4.6875ZM8.44666 4.6875V0.9375C8.44666 0.41975 8.02691 0 7.50916 0C6.99141 0 6.57166 0.41975 6.57166 0.9375V4.6875C6.57166 5.20525 6.99141 5.625 7.50916 5.625C8.02691 5.625 8.44666 5.20525 8.44666 4.6875ZM4.69666 4.6875V2.8125C4.69666 2.29475 4.27691 1.875 3.75916 1.875C3.24141 1.875 2.82166 2.29475 2.82166 2.8125V4.6875C2.82166 5.20525 3.24141 5.625 3.75916 5.625C4.27691 5.625 4.69666 5.20525 4.69666 4.6875Z" fill="url(#paint1_linear_1_788)"/>
    </g>
    <defs>
    <linearGradient id="paint0_linear_1_788" x1="16.8842" y1="12.9375" x2="16.8842" y2="0" gradientUnits="userSpaceOnUse">
    <stop stop-color="#A93AFF"/>
    <stop offset="1" stop-color="#FF81FF"/>
    </linearGradient>
    <linearGradient id="paint1_linear_1_788" x1="16.8842" y1="32" x2="16.8842" y2="0" gradientUnits="userSpaceOnUse">
    <stop stop-color="#FFBEF9"/>
    <stop offset="1" stop-color="#FFF1FF"/>
    </linearGradient>
    <clipPath id="clip0_1_788">
    <rect width="32" height="32" fill="white" transform="translate(0.884155)"/>
    </clipPath>
    </defs>
    </svg>
    