<svg width="64" height="64" viewBox="0 0 64 64" fill="none" xmlns="http://www.w3.org/2000/svg">
<rect x="4.26682" y="4.2666" width="55.4667" height="55.4667" rx="6.0766" fill="#1A98FF"/>
<path d="M28.4436 13.5579C28.0286 13.5579 27.6927 13.4393 27.4456 13.212C27.1986 12.9848 27.0701 12.6686 27.0701 12.2733C27.0701 11.8781 27.1986 11.5718 27.4456 11.3346C27.6927 11.1073 28.0286 10.9888 28.4436 10.9888C28.8586 10.9888 29.1946 11.1073 29.4416 11.3346C29.6887 11.5619 29.8171 11.8781 29.8171 12.2733C29.8171 12.6686 29.6887 12.9749 29.4416 13.212C29.1946 13.4393 28.8586 13.5579 28.4436 13.5579Z" fill="#000008"/>
<path d="M27.6531 23.2316C27.5148 23.2316 27.4061 23.202 27.3468 23.1328C27.2776 23.0636 27.248 22.9648 27.248 22.8265V15.2673C27.248 15.1092 27.2776 15.0104 27.3468 14.9511C27.416 14.8918 27.5148 14.8622 27.6531 14.8622H29.2242C29.3725 14.8622 29.4812 14.8918 29.5404 14.9511C29.5997 15.0104 29.6294 15.1191 29.6294 15.2673V22.8265C29.6294 22.9648 29.5997 23.0735 29.5404 23.1328C29.4812 23.202 29.3725 23.2316 29.2242 23.2316H27.6531Z" fill="#000008"/>
<path fill-rule="evenodd" clip-rule="evenodd" d="M11.0814 26.5222C11.1407 26.5814 11.2494 26.6111 11.3878 26.6111H12.9688C13.117 26.6111 13.2257 26.5814 13.285 26.5222C13.3443 26.4629 13.3739 26.3542 13.3739 26.206V22.6191C13.6605 22.876 14.0063 23.0736 14.4114 23.2119C14.8067 23.3602 15.2415 23.4293 15.6861 23.4293C16.3679 23.4293 16.9707 23.2416 17.4944 22.876C18.0181 22.5005 18.4331 21.9867 18.7394 21.3049C19.0358 20.6231 19.1939 19.8326 19.1939 18.9235C19.1939 17.5994 18.8876 16.552 18.2651 15.7714C17.6426 14.9908 16.8027 14.6054 15.7454 14.6054C15.2612 14.6054 14.7869 14.6943 14.3225 14.8821C13.8581 15.0599 13.4628 15.3169 13.1367 15.6331L13.0182 15.2082C12.9688 14.971 12.8107 14.8524 12.5636 14.8524H11.3878C11.2494 14.8524 11.1506 14.8821 11.0814 14.9414C11.0123 15.0007 10.9826 15.0995 10.9826 15.2576V26.206C10.9826 26.3542 11.0123 26.4629 11.0814 26.5222ZM16.3383 20.9887C16.0517 21.4037 15.5972 21.6112 14.9845 21.6112C14.3917 21.6112 13.8581 21.463 13.3739 21.1764V16.8583C13.8778 16.5619 14.4114 16.4137 14.9845 16.4137C15.6071 16.4137 16.0616 16.6212 16.3482 17.0362C16.6347 17.4512 16.773 18.1132 16.773 19.0223C16.773 19.9215 16.6248 20.5737 16.3383 20.9887Z" fill="#000008"/>
<path d="M20.8856 23.1332C20.9449 23.2023 21.0536 23.232 21.1919 23.232L22.7729 23.2122C22.9212 23.2122 23.0298 23.1826 23.0891 23.1134C23.1484 23.0541 23.1781 22.9454 23.1781 22.8071V17.2934C23.4251 17.1847 23.7413 17.0958 24.097 17.0266C24.4626 16.9574 24.7689 16.9179 25.016 16.9179C25.1938 16.9179 25.3519 16.9278 25.4705 16.9377L25.5298 16.9427C25.6224 16.9506 25.7015 16.9574 25.7669 16.9574C25.9152 16.9574 26.0239 16.9278 26.0831 16.8586C26.1424 16.7993 26.1721 16.6906 26.1721 16.5523V15.1788C26.1721 15.0306 26.1424 14.9219 26.0733 14.8626C26.014 14.8033 25.8954 14.7737 25.7472 14.7737H25.5199C25.0851 14.7737 24.6701 14.8725 24.2848 15.08C23.8994 15.2875 23.4844 15.6235 23.0496 16.1076L22.8322 15.2183C22.7828 14.9812 22.6247 14.8626 22.3777 14.8626H21.1919C21.0536 14.8626 20.9548 14.8922 20.8856 14.9515C20.8164 15.0108 20.7868 15.1096 20.7868 15.2677V22.8269C20.7868 22.9652 20.8164 23.064 20.8856 23.1332Z" fill="#000008"/>
<path d="M31.7189 23.1355C31.7782 23.2047 31.8869 23.2344 32.0253 23.2344L33.626 23.2442C33.7742 23.2442 33.8829 23.2146 33.9422 23.1454C34.0015 23.0861 34.0312 22.9774 34.0312 22.8391V16.9005C34.624 16.6041 35.2268 16.4558 35.8394 16.4558C36.5015 16.4558 36.8374 16.8313 36.8374 17.5724V22.8391C36.8374 22.9774 36.8671 23.0763 36.9362 23.1454C36.9955 23.2146 37.1042 23.2442 37.2426 23.2442H38.8137C38.9619 23.2442 39.0706 23.2146 39.1299 23.1454C39.1892 23.0861 39.2188 22.9774 39.2188 22.8391V16.8807C39.8216 16.5942 40.4144 16.4558 41.0073 16.4558C41.6694 16.4558 42.0053 16.8313 42.0053 17.5724V22.8391C42.0053 22.9774 42.0448 23.0763 42.1041 23.1454C42.1634 23.2146 42.2721 23.2442 42.4104 23.2442H43.9816C44.1298 23.2442 44.2385 23.2146 44.2978 23.1454C44.3571 23.0861 44.3867 22.9774 44.3867 22.8391V17.0487C44.3867 16.2879 44.1792 15.6851 43.7543 15.2602C43.3393 14.8353 42.7365 14.6179 41.9757 14.6179C41.452 14.6179 40.9381 14.7069 40.454 14.865C39.9698 15.0231 39.4362 15.2899 38.8828 15.6653C38.4777 14.9638 37.786 14.6179 36.7979 14.6179C36.3038 14.6179 35.8295 14.697 35.3651 14.8551C34.8908 15.0132 34.377 15.28 33.794 15.6653L33.6655 15.2207C33.6161 14.9835 33.458 14.865 33.211 14.865H32.0253C31.8869 14.865 31.7881 14.8946 31.7189 14.9539C31.6498 15.0132 31.6201 15.112 31.6201 15.2701V22.8292C31.6201 22.9676 31.6498 23.0664 31.7189 23.1355Z" fill="#000008"/>
<path fill-rule="evenodd" clip-rule="evenodd" d="M50.0212 23.4861C48.6872 23.4861 47.6695 23.17 46.8493 22.3399C46.3157 21.7965 45.8118 20.7787 45.8118 19.0495C45.8118 17.6463 46.2565 16.5792 46.9778 15.8084C47.6991 15.0278 48.8058 14.6721 49.8433 14.6721C51.1477 14.6721 51.9184 14.9685 52.5113 15.5614C52.6101 15.6602 53.203 16.2729 53.203 17.261L53.203 17.3013C53.2034 17.6256 53.2038 17.9724 52.9856 18.4467C52.8275 18.7827 52.5903 18.9902 52.5212 19.0495C51.5528 19.9388 49.6556 19.8795 49.0133 19.84L47.9758 19.6819C48.045 20.4032 48.2426 20.9664 48.6872 21.2826C49.1023 21.589 49.5568 21.7075 50.4856 21.7075C50.95 21.7075 51.5726 21.6186 52.3729 21.4012C52.3849 21.3982 52.4014 21.3943 52.4194 21.3901C52.4609 21.3803 52.5104 21.3686 52.531 21.3617C52.5347 21.3617 52.5404 21.3613 52.5476 21.3609C52.5791 21.359 52.639 21.3555 52.6793 21.3716C52.7682 21.4012 52.867 21.4803 52.867 21.7273V22.4783C52.867 22.6561 52.8472 22.7747 52.7978 22.8439C52.7484 22.913 52.6496 22.9822 52.5113 23.0415C51.6615 23.3379 50.8908 23.4861 50.0212 23.4861ZM51.0192 17.34C51.0192 16.5397 50.456 16.3124 49.7643 16.3124C49.3098 16.3124 48.8651 16.4804 48.5588 16.8064C48.2623 17.1325 48.0845 17.6167 48.0054 18.2392C48.0054 18.2392 49.2307 18.4665 50.12 18.3183C50.5844 18.2392 51.0192 17.9823 51.0192 17.34Z" fill="#000008"/>
<path fill-rule="evenodd" clip-rule="evenodd" d="M36.273 38.8139C37.1251 39.6762 38.1825 40.0047 39.5684 40.0047C40.4718 40.0047 41.2828 39.8507 42.1553 39.5427C42.2991 39.4811 42.4017 39.4093 42.4531 39.3374C42.5044 39.2656 42.5249 39.1424 42.5249 38.9576V38.1774C42.5249 37.9207 42.4223 37.8386 42.3299 37.8078C42.2881 37.7911 42.2258 37.7948 42.1931 37.7968C42.1857 37.7972 42.1797 37.7976 42.1759 37.7976C42.1544 37.8047 42.1029 37.8169 42.0599 37.8271C42.0412 37.8315 42.024 37.8355 42.0116 37.8386C41.1801 38.0645 40.5333 38.1569 40.0509 38.1569C39.0859 38.1569 38.6136 38.0337 38.1825 37.7154C37.7205 37.3869 37.5152 36.8018 37.4433 36.0524L38.5213 36.2166C39.1885 36.2577 41.1596 36.3193 42.1656 35.3954C42.2375 35.3338 42.4839 35.1182 42.6481 34.7691C42.8748 34.2763 42.8744 33.916 42.874 33.5791L42.874 33.5373C42.874 32.5107 42.258 31.8742 42.1553 31.7715C41.5394 31.1556 40.7387 30.8476 39.3836 30.8476C38.3057 30.8476 37.1559 31.2172 36.4065 32.0282C35.6571 32.8289 35.1951 33.9376 35.1951 35.3954C35.1951 37.1919 35.7187 38.2492 36.273 38.8139ZM39.3015 32.5517C40.0201 32.5517 40.6052 32.7879 40.6052 33.6194C40.6052 34.2867 40.1535 34.5536 39.671 34.6357C38.7471 34.7897 37.4741 34.5536 37.4741 34.5536C37.5563 33.9068 37.7411 33.4038 38.049 33.065C38.3673 32.7263 38.8292 32.5517 39.3015 32.5517Z" fill="#000008"/>
<path d="M14.7792 39.7345C14.6663 39.7345 14.5739 39.7242 14.5021 39.6934C14.4302 39.6626 14.3686 39.6215 14.3173 39.5599C14.2659 39.4983 14.2146 39.406 14.1735 39.293L11.2581 31.7066C11.2411 31.6558 11.2242 31.608 11.2089 31.5651C11.1965 31.5301 11.1852 31.4982 11.1759 31.4705C11.1554 31.3987 11.1451 31.3371 11.1451 31.2857C11.1451 31.1112 11.2581 31.0291 11.4839 31.0291H13.188C13.3728 31.0291 13.5063 31.0599 13.5884 31.1317C13.6705 31.2036 13.7424 31.3165 13.7834 31.4705L15.5389 37.5068L17.3251 31.4705C17.3662 31.3063 17.4381 31.1933 17.5202 31.1317C17.6023 31.0701 17.7358 31.0291 17.9206 31.0291H19.5734C19.7992 31.0291 19.9121 31.1112 19.9121 31.2857C19.9121 31.3473 19.9019 31.4089 19.8813 31.4705C19.8695 31.5119 19.8543 31.5533 19.8376 31.5986C19.8253 31.632 19.8123 31.6675 19.7992 31.7066L16.8837 39.293C16.8427 39.406 16.7913 39.4983 16.74 39.5599C16.6887 39.6215 16.6271 39.6729 16.5655 39.6934C16.5039 39.7139 16.4012 39.7345 16.278 39.7345H14.7792Z" fill="#000008"/>
<path d="M21.1769 29.3251C21.4336 29.5612 21.7826 29.6844 22.2137 29.6844C22.6449 29.6844 22.9837 29.5612 23.2506 29.3251C23.5072 29.0788 23.6407 28.7605 23.6407 28.3499C23.6407 27.9393 23.5072 27.6107 23.2506 27.3746C22.9939 27.1385 22.6449 27.0153 22.2137 27.0153C21.7826 27.0153 21.4336 27.1385 21.1769 27.3746C20.9203 27.621 20.7868 27.9393 20.7868 28.3499C20.7868 28.7605 20.9203 29.089 21.1769 29.3251Z" fill="#000008"/>
<path d="M21.064 39.632C21.1358 39.7038 21.2488 39.7346 21.3925 39.7346H23.0248C23.1787 39.7346 23.2917 39.7038 23.3533 39.632C23.4148 39.5704 23.4456 39.4574 23.4456 39.3137V31.4604C23.4456 31.3064 23.4148 31.1935 23.3533 31.1319C23.2917 31.0703 23.1787 31.0395 23.0248 31.0395H21.3925C21.2385 31.0395 21.1358 31.0703 21.064 31.1319C20.9921 31.1935 20.9613 31.2962 20.9613 31.4604V39.3137C20.9613 39.4574 20.9921 39.5601 21.064 39.632Z" fill="#000008"/>
<path fill-rule="evenodd" clip-rule="evenodd" d="M28.6795 39.9181C27.9404 39.9181 27.2936 39.723 26.7496 39.3432C26.2055 38.9634 25.7846 38.4296 25.4971 37.7623C25.2097 37.0847 25.066 36.3045 25.066 35.4217C25.066 34.0153 25.4047 32.886 26.072 32.0442C26.7393 31.2025 27.6324 30.7713 28.7309 30.7713C29.624 30.7713 30.4042 31.0279 31.0612 31.5412V27.5581C31.0612 27.3939 31.092 27.2912 31.1639 27.2296C31.2357 27.168 31.3384 27.1372 31.4924 27.1372H33.1246C33.2786 27.1372 33.3915 27.168 33.4531 27.2296C33.5147 27.2912 33.5455 27.4041 33.5455 27.5581V39.3124C33.5455 39.4561 33.5147 39.5691 33.4531 39.6307C33.3915 39.7025 33.2786 39.7333 33.1246 39.7333H31.7593C31.6258 39.7333 31.5232 39.7025 31.441 39.6512C31.3692 39.5896 31.3178 39.4972 31.2768 39.3637L31.1741 38.9736C30.4863 39.5999 29.6445 39.9181 28.6795 39.9181ZM29.5008 38.0497C30.0449 38.0497 30.5684 37.8855 31.0715 37.5775V33.0811C30.5787 32.7936 30.0244 32.6602 29.3879 32.6602C28.7822 32.6602 28.3408 32.886 28.043 33.3377C27.7453 33.7894 27.6016 34.467 27.6016 35.3704C27.6016 36.284 27.7556 36.9513 28.0739 37.403C28.3716 37.8239 28.854 38.0497 29.5008 38.0497Z" fill="#000008"/>
<path fill-rule="evenodd" clip-rule="evenodd" d="M45.218 38.7702C45.9776 39.5812 47.035 39.9918 48.3901 39.9918C49.7452 39.9918 50.8026 39.5812 51.5622 38.7702C52.3219 37.9592 52.7017 36.83 52.7017 35.3722C52.7017 33.935 52.3219 32.8058 51.5622 31.9948C50.8026 31.1838 49.7452 30.7731 48.3901 30.7731C47.035 30.7731 45.9776 31.1838 45.218 31.9948C44.4583 32.8058 44.0785 33.9247 44.0785 35.3722C44.0785 36.83 44.4583 37.9592 45.218 38.7702ZM50.1763 35.3722C50.1763 37.179 49.5809 38.0824 48.3901 38.0824C47.1993 38.0824 46.6039 37.179 46.6039 35.3722C46.6039 33.5757 47.1993 32.6826 48.3901 32.6826C49.5809 32.6826 50.1763 33.5757 50.1763 35.3722Z" fill="#000008"/>
<path d="M11.1993 44.3913V44.5217C11.2179 44.6335 11.2738 44.7453 11.3763 44.8478C16.8908 50.2132 24.1751 53.4362 32.2699 53.4362C38.0452 53.4362 44.752 51.48 49.3722 47.8006C50.1361 47.1858 49.484 46.273 48.7016 46.6362C43.5131 49.0116 37.8775 50.1573 32.7542 50.1573C25.1532 50.1573 17.7943 47.9124 11.8514 44.1771C11.7489 44.1119 11.6464 44.0839 11.5533 44.0839C11.367 44.0839 11.2272 44.2143 11.1993 44.3913Z" fill="#000008"/>
<path d="M45.3243 45.3602C45.3429 45.2391 45.4268 45.09 45.5944 44.969C46.9544 43.9443 48.7709 43.5997 50.2985 43.5903C51.7144 43.5903 52.8508 43.8884 53.093 44.2144C53.596 44.8944 52.9626 49.5612 50.4755 51.7875C50.0936 52.1322 49.7303 51.9459 49.898 51.4988C49.914 51.455 49.9306 51.4097 49.9478 51.363C50.5193 49.8057 51.6877 46.622 51.1089 45.8352C50.5128 45.0248 47.1966 45.444 45.7062 45.6396C45.4733 45.6676 45.3429 45.5744 45.3243 45.4347V45.3602Z" fill="#000008"/>
</svg>
