<svg width="88" height="88" viewBox="0 0 88 88" fill="none" xmlns="http://www.w3.org/2000/svg">
    <g filter="url(#filter0_d_527_1105)">
        <rect x="20" y="15" width="48" height="48" rx="24" fill="white" />
    </g>
    <path
        d="M58.2123 32.5824C58.2123 32.3018 58.2123 32.0135 58.2123 31.7329C58.189 31.1174 58.1501 30.4935 58.0407 29.8857C57.9395 29.2624 57.7523 28.6857 57.464 28.1246C57.1834 27.5712 56.8173 27.0646 56.3729 26.6285C55.9362 26.1918 55.4301 25.8257 54.8768 25.5374C54.3079 25.249 53.7312 25.0618 53.1157 24.9607C52.5079 24.8518 51.8845 24.8124 51.2684 24.7968C50.9879 24.789 50.6995 24.789 50.419 24.7812H37.5751C37.2945 24.789 37.014 24.789 36.7257 24.7968C36.1101 24.8124 35.4862 24.8513 34.8707 24.9607C34.2551 25.069 33.6784 25.2563 33.1173 25.5368C32.564 25.8174 32.0573 26.1912 31.6212 26.6279C31.1768 27.0646 30.8107 27.5707 30.5301 28.124C30.2412 28.6851 30.0623 29.2624 29.9529 29.8857C29.844 30.4935 29.8045 31.1168 29.789 31.7329C29.7812 32.0212 29.7812 32.3018 29.7734 32.5824V45.4185C29.7812 45.7068 29.7812 45.9874 29.789 46.2757C29.8045 46.8913 29.8434 47.5151 29.9529 48.1229C30.0618 48.7463 30.2412 49.3229 30.5295 49.884C30.8101 50.4296 31.1762 50.944 31.6207 51.3724C32.0573 51.8168 32.5634 52.1829 33.1168 52.4635C33.6779 52.7518 34.2545 52.9313 34.8701 53.0479C35.4857 53.1568 36.1095 53.1963 36.7251 53.2118C37.0134 53.2196 37.294 53.2196 37.5745 53.2196C37.9095 53.2196 38.2445 53.2196 38.5879 53.2196H49.4134C49.7407 53.2196 50.0834 53.2196 50.4112 53.2196C50.6918 53.2196 50.9801 53.2196 51.2607 53.2118C51.8762 53.1963 52.5001 53.1574 53.1079 53.0479C53.7312 52.939 54.3001 52.7518 54.869 52.4635C55.4223 52.1829 55.929 51.8168 56.3651 51.3724C56.8095 50.9357 57.1757 50.4296 57.4562 49.884C57.7445 49.3229 57.924 48.7385 58.0329 48.1229C58.1495 47.5151 58.189 46.8918 58.2045 46.2757C58.2045 45.9874 58.2045 45.7068 58.2045 45.4185C58.2123 45.0835 58.2123 44.7563 58.2123 44.4051V33.5874C58.2201 33.2524 58.2201 32.9096 58.2123 32.5824ZM38.8923 35.3101C39.204 34.944 39.734 34.6713 40.1707 34.6557C40.2251 35.1624 40.0223 35.669 39.7184 36.0351C39.4145 36.4012 38.9234 36.6896 38.4323 36.6507C38.3623 36.1518 38.6118 35.6296 38.8923 35.3101ZM41.2379 42.129C40.8951 42.6357 40.5362 43.1346 39.9751 43.1424C39.4218 43.1501 39.2423 42.8151 38.6112 42.8151C37.9801 42.8151 37.7773 43.1346 37.2551 43.1579C36.7095 43.1813 36.2968 42.6124 35.9457 42.1135C35.2362 41.0846 34.6907 39.214 35.4234 37.944C35.7895 37.3129 36.429 36.9151 37.1301 36.9074C37.6679 36.8996 38.1668 37.2657 38.494 37.2657C38.8134 37.2657 39.3979 36.8368 40.0762 36.884C40.3412 36.9074 41.1051 36.9851 41.5884 37.7024C41.5495 37.7257 40.6845 38.2324 40.7001 39.2768C40.7079 40.5318 41.799 40.9446 41.8068 40.9524C41.7995 40.9835 41.6357 41.5524 41.2379 42.129ZM46.5145 38.0535H45.3845V41.1551C45.3845 41.2874 45.3923 41.4124 45.4001 41.5057C45.4079 41.6068 45.439 41.6851 45.4779 41.7551C45.5168 41.8251 45.579 41.8718 45.6495 41.9035C45.7351 41.9424 45.8445 41.9579 45.9845 41.9579C46.0701 41.9579 46.1562 41.9579 46.2495 41.9501C46.3351 41.9501 46.4212 41.9346 46.5145 41.9113V42.9013C46.374 42.9168 46.2418 42.9324 46.1095 42.9479C45.9851 42.9557 45.8445 42.9635 45.7045 42.9635C45.3773 42.9635 45.1123 42.9324 44.9018 42.8779C44.699 42.8079 44.5434 42.714 44.4262 42.5974C44.3173 42.4729 44.239 42.3168 44.1923 42.1296C44.1534 41.9424 44.1301 41.7324 44.1223 41.4907V38.0618H43.1795V37.1112H44.1223V35.3735H45.3773V37.1112H46.5073V38.054H46.5145V38.0535ZM50.6062 42.9085H49.2034L47.1379 37.0946H48.5018L49.9434 41.5601H49.9668L51.354 37.0946H52.6479L50.6062 42.9085Z"
        fill="#000008" />
    <defs>
        <filter id="filter0_d_527_1105" x="0" y="0" width="88" height="88"
            filterUnits="userSpaceOnUse" color-interpolation-filters="sRGB">
            <feFlood flood-opacity="0" result="BackgroundImageFix" />
            <feColorMatrix in="SourceAlpha" type="matrix"
                values="0 0 0 0 0 0 0 0 0 0 0 0 0 0 0 0 0 0 127 0" result="hardAlpha" />
            <feOffset dy="5" />
            <feGaussianBlur stdDeviation="10" />
            <feComposite in2="hardAlpha" operator="out" />
            <feColorMatrix type="matrix" values="0 0 0 0 0 0 0 0 0 0 0 0 0 0 0 0 0 0 0.25 0" />
            <feBlend mode="normal" in2="BackgroundImageFix" result="effect1_dropShadow_527_1105" />
            <feBlend mode="normal" in="SourceGraphic" in2="effect1_dropShadow_527_1105"
                result="shape" />
        </filter>
    </defs>
</svg>
    