<svg width="33" height="32" viewBox="0 0 33 32" fill="none" xmlns="http://www.w3.org/2000/svg">
    <g clip-path="url(#clip0_1_869)">
        <path
            d="M32.8083 26.768C33.1199 27.3914 32.6666 28.1247 31.9698 28.1247H16.9218C16.6629 28.1247 16.4285 28.0198 16.2588 27.8501L22.5088 21.6001C22.6847 21.4243 22.7834 21.1859 22.7834 20.9372V13.7497H31.9698C32.6667 13.7497 33.1199 14.4832 32.8083 15.1065L29.8929 20.9372L32.8083 26.768ZM4.34595 6.87473C3.51563 6.87473 2.7532 6.57879 2.15845 6.08691V31.0622C2.15845 31.58 2.5782 31.9997 3.09595 31.9997H5.59595C6.1137 31.9997 6.53345 31.58 6.53345 31.0622V6.08691C5.9387 6.57879 5.17626 6.87473 4.34595 6.87473Z"
            fill="url(#paint0_linear_1_869)" />
        <path
            d="M22.7834 8.4375V20.9375C22.7834 21.1861 22.6847 21.4246 22.5089 21.6004L16.2589 27.8504C16.0893 27.6807 15.9843 27.4464 15.9843 27.1875V21.875H6.53345V7.5H21.8459C22.3637 7.5 22.7834 7.91975 22.7834 8.4375ZM7.78345 3.4375C7.78345 1.54206 6.24138 0 4.34595 0C2.45051 0 0.908447 1.54206 0.908447 3.4375C0.908447 5.33294 2.45051 6.875 4.34595 6.875C6.24138 6.875 7.78345 5.33294 7.78345 3.4375Z"
            fill="url(#paint1_linear_1_869)" />
    </g>
    <defs>
        <linearGradient id="paint0_linear_1_869" x1="17.5334" y1="31.9997" x2="17.5334" y2="6.08691"
            gradientUnits="userSpaceOnUse">
            <stop stop-color="#E50914" />
            <stop offset="1" stop-color="#FF81FF" />
        </linearGradient>
        <linearGradient id="paint1_linear_1_869" x1="11.8459" y1="27.8504" x2="11.8459" y2="0"
            gradientUnits="userSpaceOnUse">
            <stop stop-color="#FFBEF9" />
            <stop offset="1" stop-color="#FFF1FF" />
        </linearGradient>
        <clipPath id="clip0_1_869">
            <rect width="32" height="32" fill="white" transform="translate(0.908447)" />
        </clipPath>
    </defs>
</svg>
    