<svg width="58" height="58" viewBox="0 0 58 58" fill="none" xmlns="http://www.w3.org/2000/svg">
<mask id="mask0_1_559" style="mask-type:luminance" maskUnits="userSpaceOnUse" x="0" y="0" width="58" height="58">
<path d="M0.162476 57.8586H57.8624V0.160431H0.162476V57.8586Z" fill="white"/>
</mask>
<g mask="url(#mask0_1_559)">
<path d="M29.0116 2.07708V0.160431C13.0785 0.160431 0.162476 13.0765 0.162476 29.0095C0.162476 44.9426 13.0785 57.8586 29.0116 57.8586V55.942C18.668 55.9327 8.80927 49.9297 4.37571 39.854C-1.61366 26.2426 4.56547 10.3529 18.1769 4.36391C21.7058 2.81106 25.3884 2.07623 29.0116 2.07708Z" fill="#11BED2"/>
<path d="M18.9476 6.12724L18.1737 4.36808C4.56228 10.357 -1.61685 26.2468 4.3721 39.8582C10.3615 53.4696 26.2508 59.6487 39.8622 53.6593L39.0883 51.9002C32.0491 54.9906 23.6842 54.8051 16.5164 50.6665C4.55803 43.7624 0.460687 28.4708 7.36487 16.5124C10.131 11.7214 14.2432 8.19289 18.9476 6.12724Z" fill="#72BF43"/>
</g>
<mask id="mask1_1_559" style="mask-type:luminance" maskUnits="userSpaceOnUse" x="0" y="0" width="58" height="58">
<path d="M0.167908 57.8586H57.8687V0.160431H0.167908V57.8586Z" fill="white"/>
</mask>
<g mask="url(#mask1_1_559)">
<path d="M40.5651 9.01705L41.5215 7.36063C29.5627 0.456436 14.2715 4.55378 7.36693 16.5122C0.46274 28.471 4.56009 43.7626 16.5189 50.6667L17.4778 49.0056C15.6041 47.9219 13.8543 46.5507 12.2887 44.9007C3.51452 35.6545 3.89701 21.0463 13.1428 12.2726C20.7347 5.06828 31.9412 4.03716 40.5651 9.01705Z" fill="#F6B52F"/>
<path d="M14.4543 13.6688L13.1366 12.2803C3.8904 21.054 3.50325 35.6575 12.2774 44.9032C21.0515 54.149 35.6597 54.5319 44.9055 45.7578L43.5831 44.3641C38.6533 49.0337 31.5679 51.2513 24.4395 49.6713C13.0322 47.1421 5.83507 35.8447 8.36386 24.4377C9.31263 20.1583 11.495 16.4719 14.4543 13.6688Z" fill="#F1602A"/>
<path d="M33.1823 10.2372L33.5987 8.35872C22.1914 5.82951 10.894 13.027 8.36517 24.4344C5.83595 35.8413 13.0335 47.1392 24.4408 49.668L24.8569 47.7908C24.8556 47.7908 24.8539 47.7904 24.853 47.7904C14.4827 45.4912 7.93981 35.2207 10.2385 24.8504C12.5377 14.4801 22.8082 7.93719 33.1785 10.2363C33.1798 10.2367 33.181 10.2367 33.1823 10.2372Z" fill="#CF3693"/>
<path d="M50.7256 32.5138L51.7779 31.2815C52.5531 32.0015 53.3703 32.4446 54.2702 32.4446C55.4334 32.4446 56.1949 31.7799 56.1949 30.7691V30.7415C56.1949 29.7584 55.3642 29.1352 54.187 29.1352C53.4951 29.1352 52.8995 29.3292 52.4011 29.5644L51.3764 28.886L51.6536 24.1366H57.4413V25.6462H53.1211L52.9687 27.9168C53.4259 27.7504 53.8551 27.6396 54.5054 27.6396C56.3885 27.6396 57.87 28.6368 57.87 30.6863V30.7139C57.87 32.6938 56.4301 33.9954 54.2842 33.9954C52.8027 33.9954 51.6396 33.3998 50.7256 32.5138Z" fill="black"/>
<path d="M43.1418 31.9431H48.0122C48.1158 31.2652 48.1837 30.5749 48.2147 29.8758L43.1418 29.9004V31.9431Z" fill="black"/>
<path d="M43.1418 26.0223V27.9954L48.2058 27.9707C48.1706 27.3115 48.1022 26.6616 48.0025 26.0223H43.1418Z" fill="black"/>
<path d="M41.0244 33.8441V24.1178H47.6131C45.4486 15.8662 37.9399 9.77916 29.0091 9.77916C18.3871 9.77916 9.77637 18.3899 9.77637 29.0119C9.77637 39.6339 18.3871 48.2446 29.0091 48.2446C37.9624 48.2446 45.4864 42.1271 47.6297 33.8441H41.0244ZM28.8053 25.7432L23.4561 31.9682H28.8053V33.8441H20.7045V32.2182L26.0541 25.9932H20.8713V24.1178H28.8053V25.7432ZM38.4489 26.0212H33.1689V27.9944H38.4489V29.8978H33.1689V31.9406H38.4489V33.8441H31.0429V24.1178H38.4489V26.0212Z" fill="black"/>
</g>
</svg>
