<svg width="88" height="88" viewBox="0 0 88 88" fill="none" xmlns="http://www.w3.org/2000/svg">
<g filter="url(#filter0_d_527_1154)">
<rect x="20" y="15" width="48" height="48" rx="24" fill="white"/>
</g>
<mask id="mask0_527_1154" style="mask-type:luminance" maskUnits="userSpaceOnUse" x="28" y="23" width="32" height="32">
<path d="M28 55H59.9966V23H28V55Z" fill="white"/>
</mask>
<g mask="url(#mask0_527_1154)">
<path d="M43.9978 24.063V23C35.1624 23 28 30.1634 28 39C28 47.8366 35.1624 55 43.9978 55V53.937C38.262 53.9318 32.795 50.6025 30.3364 45.0145C27.0151 37.4654 30.4416 28.6528 37.9896 25.3313C39.9465 24.4701 41.9887 24.0625 43.9978 24.063Z" fill="#11BED2"/>
<path d="M38.4172 26.3072L37.9881 25.3316C30.4401 28.6531 27.0135 37.4657 30.3346 45.0147C33.6559 52.5638 42.4671 55.9908 50.0151 52.669L49.586 51.6933C45.6825 53.4073 41.0438 53.3044 37.069 51.0092C30.4377 47.18 28.1656 38.6992 31.9942 32.0669C33.5281 29.4098 35.8085 27.4529 38.4172 26.3072Z" fill="#72BF43"/>
</g>
<mask id="mask1_527_1154" style="mask-type:luminance" maskUnits="userSpaceOnUse" x="28" y="23" width="32" height="32">
<path d="M28.0039 55H60.001V23H28.0039V55Z" fill="white"/>
</mask>
<g mask="url(#mask1_527_1154)">
<path d="M50.4061 27.9124L50.9365 26.9937C44.3049 23.1646 35.8254 25.437 31.9965 32.0692C28.1679 38.7017 30.44 47.1826 37.0716 51.0117L37.6034 50.0905C36.5643 49.4894 35.594 48.7289 34.7258 47.8138C29.8602 42.6858 30.0723 34.5839 35.1994 29.7179C39.4094 25.7224 45.6238 25.1505 50.4061 27.9124Z" fill="#F6B52F"/>
<path d="M35.9278 30.4926L35.1971 29.7225C30.0697 34.5885 29.8551 42.6877 34.7206 47.8155C39.5862 52.9433 47.6869 53.1557 52.814 48.2895L52.0807 47.5165C49.347 50.1063 45.4179 51.3363 41.465 50.46C35.1392 49.0572 31.1481 42.7916 32.5504 36.4652C33.0766 34.0917 34.2868 32.0472 35.9278 30.4926Z" fill="#F1602A"/>
<path d="M46.3122 28.5883L46.5431 27.5465C40.2173 26.1438 33.9525 30.1356 32.5502 36.4622C31.1476 42.7886 35.1389 49.0545 41.4647 50.457L41.6954 49.4159C41.6947 49.4159 41.6938 49.4157 41.6933 49.4157C35.9426 48.1406 32.3143 42.4444 33.589 36.693C34.864 30.9415 40.5593 27.3127 46.31 28.5879C46.3107 28.5881 46.3114 28.5881 46.3122 28.5883Z" fill="#CF3693"/>
<path d="M56.0391 40.944L56.6226 40.2605C57.0525 40.6598 57.5056 40.9056 58.0047 40.9056C58.6497 40.9056 59.072 40.5369 59.072 39.9763V39.961C59.072 39.4157 58.6113 39.0701 57.9585 39.0701C57.5748 39.0701 57.2446 39.1777 56.9682 39.3081L56.3999 38.9319L56.5537 36.2979H59.7632V37.1351H57.3674L57.2829 38.3944C57.5365 38.3021 57.7745 38.2407 58.1351 38.2407C59.1794 38.2407 60.0009 38.7937 60.0009 39.9304V39.9457C60.0009 41.0438 59.2024 41.7656 58.0125 41.7656C57.1909 41.7656 56.5459 41.4353 56.0391 40.944Z" fill="black"/>
<path d="M51.8359 40.6289H54.5367C54.5942 40.2529 54.6318 39.8701 54.649 39.4823L51.8359 39.496V40.6289Z" fill="black"/>
<path d="M51.8359 37.3432V38.4375L54.6441 38.4238C54.6245 38.0582 54.5866 37.6978 54.5313 37.3432H51.8359Z" fill="black"/>
<path d="M50.6601 41.6813V36.287H54.3139C53.1135 31.7106 48.9497 28.3346 43.9973 28.3346C38.107 28.3346 33.332 33.1102 33.332 39.0013C33.332 44.8924 38.107 49.668 43.9973 49.668C48.9622 49.668 53.1345 46.2751 54.323 41.6813H50.6601ZM43.8843 37.1884L40.9179 40.6409H43.8843V41.6813H39.392V40.7796L42.3586 37.3271H39.4846V36.287H43.8843V37.1884ZM49.2319 37.3427H46.304V38.437H49.2319V39.4927H46.304V40.6256H49.2319V41.6813H45.1251V36.287H49.2319V37.3427Z" fill="black"/>
</g>
<defs>
<filter id="filter0_d_527_1154" x="0" y="0" width="88" height="88" filterUnits="userSpaceOnUse" color-interpolation-filters="sRGB">
<feFlood flood-opacity="0" result="BackgroundImageFix"/>
<feColorMatrix in="SourceAlpha" type="matrix" values="0 0 0 0 0 0 0 0 0 0 0 0 0 0 0 0 0 0 127 0" result="hardAlpha"/>
<feOffset dy="5"/>
<feGaussianBlur stdDeviation="10"/>
<feComposite in2="hardAlpha" operator="out"/>
<feColorMatrix type="matrix" values="0 0 0 0 0 0 0 0 0 0 0 0 0 0 0 0 0 0 0.25 0"/>
<feBlend mode="normal" in2="BackgroundImageFix" result="effect1_dropShadow_527_1154"/>
<feBlend mode="normal" in="SourceGraphic" in2="effect1_dropShadow_527_1154" result="shape"/>
</filter>
</defs>
</svg>
