<svg width="84" height="88" viewBox="0 0 84 88" fill="none" xmlns="http://www.w3.org/2000/svg">
<g filter="url(#filter0_d_527_1096)">
<rect x="16" y="15" width="48" height="48" rx="24" fill="white"/>
</g>
<rect x="25.4453" y="24.4453" width="29.2776" height="29.2776" rx="8" fill="url(#paint0_radial_527_1096)"/>
<path d="M43.3836 40.8019C43.3836 40.8019 44.1934 40.7613 44.5011 40.6908C44.6435 40.658 44.5814 40.5283 44.5692 40.5028C44.5679 40.5 44.5674 40.4985 44.5674 40.4985C44.3772 40.1138 44.155 40.1352 44.155 40.1352C43.5182 40.1138 42.593 40.2826 42.4926 40.3318C42.3986 40.3745 42.4071 40.445 42.5311 40.601C42.6635 40.7634 42.8858 40.7485 42.8858 40.7485L42.6913 41.1523C42.5332 41.1651 42.4776 41.2143 42.4776 41.2143C42.3858 41.3104 42.5118 41.601 42.5118 41.601C42.5118 41.601 42.2341 42.2228 42.4349 42.5497C42.6507 42.8937 42.905 42.8766 42.905 42.8766C43.39 42.913 44.1849 42.4044 44.2276 42.2377C44.2639 42.101 44.14 41.9536 44.0289 41.9258C43.9242 41.9044 43.1272 42.054 43.0311 42.0796C42.9285 42.1074 42.9734 42.0113 42.9734 42.0113L43.0973 41.5946C43.0973 41.5946 43.858 41.5668 43.9691 41.5476C44.0716 41.5305 44.078 41.4578 44.078 41.4578C44.078 41.4578 44.0909 41.3382 44.0866 41.2271C44.0759 41.1074 43.9798 41.1181 43.9798 41.1181C43.6849 41.0882 43.281 41.1224 43.281 41.1224L43.3836 40.8019Z" fill="white"/>
<path d="M41.5418 42.5112C41.8088 42.6395 42.0247 42.4343 42.1059 42.242C42.187 42.0497 42.3281 41.4108 42.1208 40.695C41.9114 39.9856 41.4755 39.7677 41.4755 39.7677C41.4755 39.7677 41.3623 39.7143 41.3345 39.8275C41.3046 39.9386 41.3473 40.0583 41.3473 40.0583C41.6272 41.0113 41.6913 41.5732 41.6913 41.5732C41.6913 41.5732 41.7041 41.7399 41.6721 41.7484C41.6507 41.7655 41.6251 41.742 41.6251 41.742C41.593 41.7442 41.2854 41.2271 41.2854 41.2271L41.2255 41.1267C40.8858 40.5797 40.6807 40.3938 40.6807 40.3938L40.6782 40.3914C40.6295 40.3448 40.5072 40.2278 40.3559 40.3959C40.202 40.569 40.0824 41.1202 40.0332 41.6373C39.9926 42.1544 40.0247 42.4493 40.0995 42.5732C40.1828 42.6993 40.3431 42.742 40.4755 42.6352C40.5817 42.5535 40.5917 42.136 40.6001 41.7873C40.6027 41.6798 40.6051 41.5789 40.6101 41.4963C40.6315 41.1459 40.6657 41.2078 40.6657 41.2078C40.6956 41.2014 40.8559 41.5219 40.8559 41.5219C40.8559 41.5219 41.2768 42.383 41.5418 42.5112Z" fill="white"/>
<path d="M39.9511 40.449C39.9557 40.4388 39.9601 40.4288 39.9649 40.4194C39.9916 40.3606 39.9782 40.3167 39.9743 40.3037C39.9735 40.3011 39.9734 40.2997 39.9734 40.2997C39.7854 40.0903 38.7619 40.1267 38.7619 40.1267C38.3901 40.1609 37.529 40.3126 37.4051 40.7057C37.2875 41.0818 37.3944 41.2143 37.3944 41.2143C37.4859 41.3827 38.0416 41.3974 38.324 41.4049C38.3712 41.4061 38.4108 41.4072 38.4392 41.4087C38.6465 41.4194 39.1785 41.4835 39.3644 41.5903C39.5503 41.7036 39.4285 41.8425 39.4285 41.8425C39.1209 42.1843 38.0888 42.2377 37.8217 42.086C37.717 42.0155 37.6914 41.945 37.7982 41.8318C37.9051 41.7078 38.2512 41.8895 38.2127 41.8745C38.1721 41.8531 38.3815 41.9899 38.6679 41.9984C38.9627 42.0048 39.1657 41.8959 39.1807 41.7933C39.1935 41.6972 38.9285 41.601 38.9285 41.601C38.0546 41.3574 37.7106 41.5647 37.7106 41.5647C37.2341 41.8638 37.5888 42.2591 37.5888 42.2591C38.358 43.0796 39.5503 42.5454 39.6892 42.4301C39.8217 42.3061 39.8815 42.1865 39.8879 41.8446C39.8943 41.5113 39.7469 41.3638 39.7469 41.3638C39.4997 41.0548 38.8103 41.0476 38.6032 41.0455L38.6016 41.0455C38.4093 41.0348 38.0119 40.9814 37.9157 40.9621C37.8196 40.9408 37.8816 40.8681 37.8816 40.8681C37.9649 40.7442 39.7234 40.6245 39.7234 40.6245C39.8834 40.6003 39.9203 40.5179 39.9511 40.449Z" fill="white"/>
<path d="M36.5974 42.6736C36.6722 42.7762 36.935 42.8168 37.0589 42.7249C37.1764 42.6352 37.1209 41.7762 37.1209 41.7762C37.1209 41.7762 37.0781 40.8232 37.0653 40.6416C37.0509 40.4665 36.9888 40.3808 36.9346 40.3059C36.9326 40.3031 36.9306 40.3004 36.9286 40.2976C36.8773 40.2185 36.7961 40.1181 36.6636 40.2335C36.545 40.3419 36.5282 41.0042 36.5138 41.5685C36.5132 41.5938 36.5126 41.6189 36.5119 41.6437C36.497 42.2164 36.5226 42.5818 36.5974 42.6736Z" fill="white"/>
<path fill-rule="evenodd" clip-rule="evenodd" d="M36.5076 39.6416C36.717 39.7314 36.9649 39.772 37.326 39.6523C37.8901 39.4621 38.4392 38.9066 38.4457 38.46C38.4563 38.0156 37.9563 38.0134 37.9563 38.0134H37.9414C37.8538 37.7378 37.3388 37.7763 37.3388 37.7763C36.2854 37.8617 35.9393 38.5925 35.888 38.7848C35.8538 38.9515 35.8688 39.1993 36.0739 39.3831C36.0206 39.5276 36.0537 39.5977 36.0737 39.64C36.0762 39.6452 36.0784 39.65 36.0803 39.6545C36.0974 39.7079 36.1893 39.8724 36.2918 39.8617C36.3623 39.851 36.4158 39.8019 36.5076 39.6416ZM36.2812 39.007C36.232 38.9365 36.2363 38.8339 36.3431 38.663C36.4884 38.4365 36.6999 38.3275 36.9521 38.3062C36.6252 38.5284 36.4029 38.8211 36.2812 39.007ZM36.7106 39.2335C36.9542 38.8703 37.467 38.4258 37.7982 38.3767C38.1493 38.3152 38.053 38.6293 38.039 38.6747C38.038 38.6782 38.0375 38.6801 38.0375 38.6801C37.7448 39.2763 37.0846 39.3019 36.7106 39.2335Z" fill="white"/>
<path fill-rule="evenodd" clip-rule="evenodd" d="M45.2896 42.7185C46.0331 42.8873 46.5908 42.1651 46.7895 41.8189C46.9049 41.6117 46.9669 41.3339 46.969 41.0711C46.969 40.7741 46.8878 40.4985 46.7105 40.3724C46.1827 40.007 45.3323 41.1672 44.9584 41.742C44.9028 41.4493 45.1015 41.0775 45.1015 41.0775C45.1015 41.0775 45.4199 40.5262 45.4648 40.4151C45.5096 40.304 45.5353 40.0732 45.4797 40.0497C45.4306 40.0262 45.3451 40.101 45.3451 40.101C44.6336 40.742 44.5332 41.4514 44.5332 41.4514C44.4648 41.8339 44.5438 42.1031 44.6592 42.2912C44.2639 43.1352 44.0695 43.8723 44.1208 44.3082C44.1678 44.6394 44.4071 44.8787 44.5503 44.93C44.6956 44.992 44.7212 44.8168 44.7212 44.8168C44.8387 43.9151 45.0438 43.3147 45.2896 42.7185ZM46.3836 40.9322C46.6058 40.6801 46.6357 40.9087 46.6357 40.9087C46.687 41.3531 46.3643 41.6865 46.2254 41.8104C46.14 41.8916 45.8579 42.0519 45.5652 42.0839C45.8451 41.5433 46.1913 41.1437 46.3836 40.9322Z" fill="white"/>
<path fill-rule="evenodd" clip-rule="evenodd" d="M34.6145 43.0155C36.0226 42.586 36.2213 41.7164 36.2619 41.1993C36.3047 40.6737 35.9158 39.319 33.6359 38.163C33.6359 38.163 31.2022 36.9109 29.2043 37.6032C29.2043 37.6032 29.0783 37.5968 28.9629 37.7677C28.9504 37.7853 28.938 37.8024 28.926 37.8189C28.8276 37.9548 28.7536 38.057 28.8069 38.1694C28.8667 38.2955 29.1766 38.3511 29.4522 38.2634C29.4522 38.2634 29.5761 38.1801 29.4159 38.1288C29.2642 38.0776 29.1766 38.0647 29.1766 38.0647C29.1766 38.0647 29.0975 38.0519 29.183 38.0092C29.262 37.9686 30.1765 37.6737 31.7919 38.0968C33.4094 38.5113 35.5974 39.8168 35.5312 41.1779C35.4671 42.5369 33.3389 42.5967 33.3389 42.5967C33.3389 42.5967 32.903 42.6181 32.3197 42.507C32.3177 42.4242 32.3152 42.3303 32.3126 42.2294C32.3012 41.7888 32.2863 41.2141 32.2898 40.8403C33.1231 40.8403 33.9607 40.9835 34.0312 41.1886C34.0312 41.1886 34.0739 41.2826 33.8859 41.3745C33.7128 41.4493 33.5803 41.5091 33.7235 41.5775C33.7235 41.5775 33.9329 41.6737 34.0675 41.663C34.1957 41.6523 34.5333 41.5006 34.5611 41.1331C34.5996 40.7591 34.1679 40.4301 33.5226 40.3126C33.0269 40.2228 32.7641 40.1908 32.3197 40.2121C32.3154 39.8083 32.262 39.3019 32.1722 39.1844C32.1658 39.1749 32.1594 39.1652 32.1529 39.1555C32.0507 39.0028 31.9356 38.8308 31.8432 39.0498C31.762 39.2506 31.6936 39.6886 31.6701 40.2698C30.9906 40.3852 30.2364 40.6694 30.0056 40.9536C29.7599 41.2677 30.0056 41.5241 30.0291 41.5476C30.0483 41.5796 30.5441 42.2933 31.621 42.789C31.6423 42.9792 31.6808 43.1929 31.7556 43.3104C31.9222 43.5582 32.2257 43.383 32.2663 43.3424C32.2962 43.3104 32.3175 43.2292 32.3282 43.039C32.8068 43.1608 33.685 43.2954 34.6145 43.0155ZM30.1616 41.4002C30.1616 41.4002 30.0056 41.2399 30.2321 41.1288C30.4372 41.0348 30.8859 40.9108 31.6637 40.8574C31.6625 40.9305 31.6618 40.9994 31.6612 41.0683C31.6582 41.3742 31.6552 41.6775 31.6081 42.3211C31.1103 42.1437 30.5868 41.8574 30.1616 41.4002Z" fill="white"/>
<path d="M51.0218 41.2487V40.9666C51.0218 40.9068 50.9705 40.8555 50.9107 40.8555H49.5496C49.5218 40.3919 49.4663 39.941 49.3787 39.4773C49.368 39.4282 49.3274 39.394 49.2782 39.394H48.9641C48.9364 39.394 48.9107 39.4068 48.8936 39.4282C48.8765 39.4496 48.8701 39.4773 48.8744 39.5051C48.9641 39.9538 49.0197 40.3961 49.0475 40.8555H47.7377C47.6757 40.8555 47.6266 40.9047 47.6266 40.9666V41.2487C47.6266 41.3106 47.6757 41.3598 47.7377 41.3598H49.0667C49.0688 41.4282 49.0688 41.4901 49.0688 41.55C49.0688 41.9581 49.0496 42.2935 49.009 42.6739C49.0047 42.7038 49.0154 42.7337 49.0347 42.7551C49.0539 42.7764 49.0817 42.7893 49.1116 42.7893H49.4022C49.4577 42.7893 49.5047 42.7465 49.5111 42.6888C49.5517 42.3064 49.5688 41.9666 49.5688 41.55C49.5688 41.5226 49.5684 41.4942 49.5679 41.4644C49.5673 41.4315 49.5667 41.3968 49.5667 41.3598H50.9107C50.9727 41.3598 51.0218 41.3106 51.0218 41.2487Z" fill="white"/>
<path d="M49.1916 38.7289C48.4971 37.0216 47.3241 35.5665 45.7985 34.5195C44.2365 33.449 42.4054 32.8828 40.5037 32.8828C37.3584 32.8828 34.4397 34.4448 32.6982 37.0622C32.679 37.09 32.6747 37.1263 32.6854 37.1584C32.6961 37.1926 32.7217 37.2161 32.7538 37.2268L32.9974 37.3101C33.0123 37.3144 33.0273 37.3165 33.0401 37.3165C33.085 37.3165 33.1277 37.293 33.1534 37.2567C33.9525 36.0815 35.0337 35.105 36.2815 34.4298C37.57 33.7332 39.0293 33.3636 40.5015 33.3636C42.2814 33.3636 43.9972 33.8892 45.4673 34.8806C46.901 35.8486 48.0142 37.2011 48.6873 38.7887C48.7065 38.8357 48.7535 38.8678 48.8048 38.8678H49.0954C49.1296 38.8678 49.1617 38.8507 49.1788 38.8229C49.2001 38.7951 49.2044 38.7609 49.1916 38.7289ZM48.745 38.8293C48.7514 38.8336 48.7578 38.8379 48.7642 38.84C48.7578 38.8357 48.7514 38.8336 48.745 38.8293Z" fill="url(#paint1_radial_527_1096)"/>
<defs>
<filter id="filter0_d_527_1096" x="-4" y="0" width="88" height="88" filterUnits="userSpaceOnUse" color-interpolation-filters="sRGB">
<feFlood flood-opacity="0" result="BackgroundImageFix"/>
<feColorMatrix in="SourceAlpha" type="matrix" values="0 0 0 0 0 0 0 0 0 0 0 0 0 0 0 0 0 0 127 0" result="hardAlpha"/>
<feOffset dy="5"/>
<feGaussianBlur stdDeviation="10"/>
<feComposite in2="hardAlpha" operator="out"/>
<feColorMatrix type="matrix" values="0 0 0 0 0 0 0 0 0 0 0 0 0 0 0 0 0 0 0.25 0"/>
<feBlend mode="normal" in2="BackgroundImageFix" result="effect1_dropShadow_527_1096"/>
<feBlend mode="normal" in="SourceGraphic" in2="effect1_dropShadow_527_1096" result="shape"/>
</filter>
<radialGradient id="paint0_radial_527_1096" cx="0" cy="0" r="1" gradientUnits="userSpaceOnUse" gradientTransform="translate(40.0841 53.7229) rotate(-90) scale(29.2776 36.3503)">
<stop offset="0.0655875" stop-color="#0367DE"/>
<stop offset="0.347104" stop-color="#0057BE"/>
<stop offset="0.769378" stop-color="#000940"/>
</radialGradient>
<radialGradient id="paint1_radial_527_1096" cx="0" cy="0" r="1" gradientUnits="userSpaceOnUse" gradientTransform="translate(48.9185 38.857) scale(16.2417)">
<stop stop-color="white"/>
<stop offset="0.01" stop-color="white"/>
<stop offset="0.03" stop-color="#CBFFFF"/>
<stop offset="0.06" stop-color="#96FFFF"/>
<stop offset="0.08" stop-color="#68FFFF"/>
<stop offset="0.11" stop-color="#43FFFF"/>
<stop offset="0.14" stop-color="#25FFFF"/>
<stop offset="0.16" stop-color="#11FFFF"/>
<stop offset="0.19" stop-color="#04FFFF"/>
<stop offset="0.22" stop-color="#00FFFF"/>
<stop offset="1" stop-color="#0000FF" stop-opacity="0"/>
</radialGradient>
</defs>
</svg>
