<svg width="48" height="48" viewBox="0 0 48 48" fill="none" xmlns="http://www.w3.org/2000/svg">
<rect width="48" height="48" rx="24" fill="white"/>
<g filter="url(#filter0_i_527_1185)">
<path d="M30.9312 37.8608C31.0014 37.889 31.6768 38.1629 31.7738 38.2024C31.7764 38.2034 31.7822 38.2056 31.789 38.2084C31.8002 38.2128 31.7958 38.2109 31.8012 38.2132C31.8128 38.2179 31.8167 38.2195 31.8208 38.2211C31.8209 38.0088 31.821 37.6944 31.821 37.3582C31.8211 36.928 31.821 36.4716 31.821 36.2448V9.77734H26.2344V24.5813C26.4053 25.0646 27.1287 27.1157 27.3139 27.6323C27.6598 28.6176 29.6286 34.1781 29.786 34.6228C29.9271 35.022 30.3201 36.1316 30.445 36.4865C30.518 36.6921 30.7087 37.2298 30.81 37.5164C30.8892 37.7406 30.882 37.7223 30.9312 37.8608Z" fill="#B11F24"/>
</g>
<g filter="url(#filter1_i_527_1185)">
<path d="M17.0696 10.1377C16.9993 10.1094 16.3239 9.83567 16.2269 9.79623C16.2243 9.79515 16.2186 9.79281 16.2117 9.79003C16.2005 9.7856 16.2049 9.7875 16.1996 9.78531C16.1879 9.78063 16.184 9.77902 16.1799 9.77734C16.1798 9.98968 16.1797 10.3041 16.1797 10.6403C16.1797 11.0703 16.1797 11.5269 16.1797 11.7538V38.2213C18.3989 37.9546 19.5088 37.8509 21.7664 37.7481V23.4172C21.5954 22.934 20.872 20.8828 20.6868 20.3662C20.3409 19.3811 18.3721 13.8205 18.2148 13.3756C18.0737 12.9765 17.6807 11.867 17.5557 11.5119C17.4827 11.3065 17.2921 10.7689 17.1907 10.4822C17.1115 10.258 17.1187 10.2764 17.0696 10.1377Z" fill="#B11F24"/>
</g>
<path d="M21.7624 9.77734H16.1758L26.0683 37.7482C28.8484 37.8184 31.8222 38.2214 31.8222 38.2214L21.7624 9.77734Z" fill="#ED1C24"/>
<defs>
<filter id="filter0_i_527_1185" x="26.2344" y="5.21989" width="5.58594" height="33.0008" filterUnits="userSpaceOnUse" color-interpolation-filters="sRGB">
<feFlood flood-opacity="0" result="BackgroundImageFix"/>
<feBlend mode="normal" in="SourceGraphic" in2="BackgroundImageFix" result="shape"/>
<feColorMatrix in="SourceAlpha" type="matrix" values="0 0 0 0 0 0 0 0 0 0 0 0 0 0 0 0 0 0 127 0" result="hardAlpha"/>
<feOffset dy="-7.59576"/>
<feGaussianBlur stdDeviation="2.27873"/>
<feComposite in2="hardAlpha" operator="arithmetic" k2="-1" k3="1"/>
<feColorMatrix type="matrix" values="0 0 0 0 0 0 0 0 0 0 0 0 0 0 0 0 0 0 0.3 0"/>
<feBlend mode="normal" in2="shape" result="effect1_innerShadow_527_1185"/>
</filter>
<filter id="filter1_i_527_1185" x="16.1797" y="9.77734" width="5.58594" height="33.0008" filterUnits="userSpaceOnUse" color-interpolation-filters="sRGB">
<feFlood flood-opacity="0" result="BackgroundImageFix"/>
<feBlend mode="normal" in="SourceGraphic" in2="BackgroundImageFix" result="shape"/>
<feColorMatrix in="SourceAlpha" type="matrix" values="0 0 0 0 0 0 0 0 0 0 0 0 0 0 0 0 0 0 127 0" result="hardAlpha"/>
<feOffset dy="7.59576"/>
<feGaussianBlur stdDeviation="2.27873"/>
<feComposite in2="hardAlpha" operator="arithmetic" k2="-1" k3="1"/>
<feColorMatrix type="matrix" values="0 0 0 0 0 0 0 0 0 0 0 0 0 0 0 0 0 0 0.3 0"/>
<feBlend mode="normal" in2="shape" result="effect1_innerShadow_527_1185"/>
</filter>
</defs>
</svg>
