<svg width="88" height="88" viewBox="0 0 88 88" fill="none" xmlns="http://www.w3.org/2000/svg">
<g filter="url(#filter0_d_527_1126)">
<rect x="20" y="15" width="48" height="48" rx="24" fill="white"/>
</g>
<rect x="29.4453" y="24.4453" width="29.2776" height="29.2776" rx="8" fill="url(#paint0_radial_527_1126)"/>
<path d="M47.3836 40.8019C47.3836 40.8019 48.1934 40.7613 48.5011 40.6908C48.6435 40.658 48.5814 40.5283 48.5692 40.5028C48.5679 40.5 48.5674 40.4985 48.5674 40.4985C48.3772 40.1138 48.155 40.1352 48.155 40.1352C47.5182 40.1138 46.593 40.2826 46.4926 40.3318C46.3986 40.3745 46.4071 40.445 46.5311 40.601C46.6635 40.7634 46.8858 40.7485 46.8858 40.7485L46.6913 41.1523C46.5332 41.1651 46.4776 41.2143 46.4776 41.2143C46.3858 41.3104 46.5118 41.601 46.5118 41.601C46.5118 41.601 46.2341 42.2228 46.4349 42.5497C46.6507 42.8937 46.905 42.8766 46.905 42.8766C47.39 42.913 48.1849 42.4044 48.2276 42.2377C48.2639 42.101 48.14 41.9536 48.0289 41.9258C47.9242 41.9044 47.1272 42.054 47.0311 42.0796C46.9285 42.1074 46.9734 42.0113 46.9734 42.0113L47.0973 41.5946C47.0973 41.5946 47.858 41.5668 47.9691 41.5476C48.0716 41.5305 48.078 41.4578 48.078 41.4578C48.078 41.4578 48.0909 41.3382 48.0866 41.2271C48.0759 41.1074 47.9798 41.1181 47.9798 41.1181C47.6849 41.0882 47.281 41.1224 47.281 41.1224L47.3836 40.8019Z" fill="white"/>
<path d="M45.5418 42.5112C45.8088 42.6395 46.0247 42.4343 46.1059 42.242C46.187 42.0497 46.3281 41.4108 46.1208 40.695C45.9114 39.9856 45.4755 39.7677 45.4755 39.7677C45.4755 39.7677 45.3623 39.7143 45.3345 39.8275C45.3046 39.9386 45.3473 40.0583 45.3473 40.0583C45.6272 41.0113 45.6913 41.5732 45.6913 41.5732C45.6913 41.5732 45.7041 41.7399 45.6721 41.7484C45.6507 41.7655 45.6251 41.742 45.6251 41.742C45.593 41.7442 45.2854 41.2271 45.2854 41.2271L45.2255 41.1267C44.8858 40.5797 44.6807 40.3938 44.6807 40.3938L44.6782 40.3914C44.6295 40.3448 44.5072 40.2278 44.3559 40.3959C44.202 40.569 44.0824 41.1202 44.0332 41.6373C43.9926 42.1544 44.0247 42.4493 44.0995 42.5732C44.1828 42.6993 44.3431 42.742 44.4755 42.6352C44.5817 42.5535 44.5917 42.136 44.6001 41.7873C44.6027 41.6798 44.6051 41.5789 44.6101 41.4963C44.6315 41.1459 44.6657 41.2078 44.6657 41.2078C44.6956 41.2014 44.8559 41.5219 44.8559 41.5219C44.8559 41.5219 45.2768 42.383 45.5418 42.5112Z" fill="white"/>
<path d="M43.9511 40.449C43.9557 40.4388 43.9601 40.4288 43.9649 40.4194C43.9916 40.3606 43.9782 40.3167 43.9743 40.3037C43.9735 40.3011 43.9734 40.2997 43.9734 40.2997C43.7854 40.0903 42.7619 40.1267 42.7619 40.1267C42.3901 40.1609 41.529 40.3126 41.4051 40.7057C41.2875 41.0818 41.3944 41.2143 41.3944 41.2143C41.4859 41.3827 42.0416 41.3974 42.324 41.4049C42.3712 41.4061 42.4108 41.4072 42.4392 41.4087C42.6465 41.4194 43.1785 41.4835 43.3644 41.5903C43.5503 41.7036 43.4285 41.8425 43.4285 41.8425C43.1209 42.1843 42.0888 42.2377 41.8217 42.086C41.717 42.0155 41.6914 41.945 41.7982 41.8318C41.9051 41.7078 42.2512 41.8895 42.2127 41.8745C42.1721 41.8531 42.3815 41.9899 42.6679 41.9984C42.9627 42.0048 43.1657 41.8959 43.1807 41.7933C43.1935 41.6972 42.9285 41.601 42.9285 41.601C42.0546 41.3574 41.7106 41.5647 41.7106 41.5647C41.2341 41.8638 41.5888 42.2591 41.5888 42.2591C42.358 43.0796 43.5503 42.5454 43.6892 42.4301C43.8217 42.3061 43.8815 42.1865 43.8879 41.8446C43.8943 41.5113 43.7469 41.3638 43.7469 41.3638C43.4997 41.0548 42.8103 41.0476 42.6032 41.0455L42.6016 41.0455C42.4093 41.0348 42.0119 40.9814 41.9157 40.9621C41.8196 40.9408 41.8816 40.8681 41.8816 40.8681C41.9649 40.7442 43.7234 40.6245 43.7234 40.6245C43.8834 40.6003 43.9203 40.5179 43.9511 40.449Z" fill="white"/>
<path d="M40.5974 42.6736C40.6722 42.7762 40.935 42.8168 41.0589 42.7249C41.1764 42.6352 41.1209 41.7762 41.1209 41.7762C41.1209 41.7762 41.0781 40.8232 41.0653 40.6416C41.0509 40.4665 40.9888 40.3808 40.9346 40.3059C40.9326 40.3031 40.9306 40.3004 40.9286 40.2976C40.8773 40.2185 40.7961 40.1181 40.6636 40.2335C40.545 40.3419 40.5282 41.0042 40.5138 41.5685C40.5132 41.5938 40.5126 41.6189 40.5119 41.6437C40.497 42.2164 40.5226 42.5818 40.5974 42.6736Z" fill="white"/>
<path fill-rule="evenodd" clip-rule="evenodd" d="M40.5076 39.6416C40.717 39.7314 40.9649 39.772 41.326 39.6523C41.8901 39.4621 42.4392 38.9066 42.4457 38.46C42.4563 38.0156 41.9563 38.0134 41.9563 38.0134H41.9414C41.8538 37.7378 41.3388 37.7763 41.3388 37.7763C40.2854 37.8617 39.9393 38.5925 39.888 38.7848C39.8538 38.9515 39.8688 39.1993 40.0739 39.3831C40.0206 39.5276 40.0537 39.5977 40.0737 39.64C40.0762 39.6452 40.0784 39.65 40.0803 39.6545C40.0974 39.7079 40.1893 39.8724 40.2918 39.8617C40.3623 39.851 40.4158 39.8019 40.5076 39.6416ZM40.2812 39.007C40.232 38.9365 40.2363 38.8339 40.3431 38.663C40.4884 38.4365 40.6999 38.3275 40.9521 38.3062C40.6252 38.5284 40.4029 38.8211 40.2812 39.007ZM40.7106 39.2335C40.9542 38.8703 41.467 38.4258 41.7982 38.3767C42.1493 38.3152 42.053 38.6293 42.039 38.6747C42.038 38.6782 42.0375 38.6801 42.0375 38.6801C41.7448 39.2763 41.0846 39.3019 40.7106 39.2335Z" fill="white"/>
<path fill-rule="evenodd" clip-rule="evenodd" d="M49.2896 42.7185C50.0331 42.8873 50.5908 42.1651 50.7895 41.8189C50.9049 41.6117 50.9669 41.3339 50.969 41.0711C50.969 40.7741 50.8878 40.4985 50.7105 40.3724C50.1827 40.007 49.3323 41.1672 48.9584 41.742C48.9028 41.4493 49.1015 41.0775 49.1015 41.0775C49.1015 41.0775 49.4199 40.5262 49.4648 40.4151C49.5096 40.304 49.5353 40.0732 49.4797 40.0497C49.4306 40.0262 49.3451 40.101 49.3451 40.101C48.6336 40.742 48.5332 41.4514 48.5332 41.4514C48.4648 41.8339 48.5438 42.1031 48.6592 42.2912C48.2639 43.1352 48.0695 43.8723 48.1208 44.3082C48.1678 44.6394 48.4071 44.8787 48.5503 44.93C48.6956 44.992 48.7212 44.8168 48.7212 44.8168C48.8387 43.9151 49.0438 43.3147 49.2896 42.7185ZM50.3836 40.9322C50.6058 40.6801 50.6357 40.9087 50.6357 40.9087C50.687 41.3531 50.3643 41.6865 50.2254 41.8104C50.14 41.8916 49.8579 42.0519 49.5652 42.0839C49.8451 41.5433 50.1913 41.1437 50.3836 40.9322Z" fill="white"/>
<path fill-rule="evenodd" clip-rule="evenodd" d="M38.6145 43.0155C40.0226 42.586 40.2213 41.7164 40.2619 41.1993C40.3047 40.6737 39.9158 39.319 37.6359 38.163C37.6359 38.163 35.2022 36.9109 33.2043 37.6032C33.2043 37.6032 33.0783 37.5968 32.9629 37.7677C32.9504 37.7853 32.938 37.8024 32.926 37.8189C32.8276 37.9548 32.7536 38.057 32.8069 38.1694C32.8667 38.2955 33.1766 38.3511 33.4522 38.2634C33.4522 38.2634 33.5761 38.1801 33.4159 38.1288C33.2642 38.0776 33.1766 38.0647 33.1766 38.0647C33.1766 38.0647 33.0975 38.0519 33.183 38.0092C33.262 37.9686 34.1765 37.6737 35.7919 38.0968C37.4094 38.5113 39.5974 39.8168 39.5312 41.1779C39.4671 42.5369 37.3389 42.5967 37.3389 42.5967C37.3389 42.5967 36.903 42.6181 36.3197 42.507C36.3177 42.4242 36.3152 42.3303 36.3126 42.2294C36.3012 41.7888 36.2863 41.2141 36.2898 40.8403C37.1231 40.8403 37.9607 40.9835 38.0312 41.1886C38.0312 41.1886 38.0739 41.2826 37.8859 41.3745C37.7128 41.4493 37.5803 41.5091 37.7235 41.5775C37.7235 41.5775 37.9329 41.6737 38.0675 41.663C38.1957 41.6523 38.5333 41.5006 38.5611 41.1331C38.5996 40.7591 38.1679 40.4301 37.5226 40.3126C37.0269 40.2228 36.7641 40.1908 36.3197 40.2121C36.3154 39.8083 36.262 39.3019 36.1722 39.1844C36.1658 39.1749 36.1594 39.1652 36.1529 39.1555C36.0507 39.0028 35.9356 38.8308 35.8432 39.0498C35.762 39.2506 35.6936 39.6886 35.6701 40.2698C34.9906 40.3852 34.2364 40.6694 34.0056 40.9536C33.7599 41.2677 34.0056 41.5241 34.0291 41.5476C34.0483 41.5796 34.5441 42.2933 35.621 42.789C35.6423 42.9792 35.6808 43.1929 35.7556 43.3104C35.9222 43.5582 36.2257 43.383 36.2663 43.3424C36.2962 43.3104 36.3175 43.2292 36.3282 43.039C36.8068 43.1608 37.685 43.2954 38.6145 43.0155ZM34.1616 41.4002C34.1616 41.4002 34.0056 41.2399 34.2321 41.1288C34.4372 41.0348 34.8859 40.9108 35.6637 40.8574C35.6625 40.9305 35.6618 40.9994 35.6612 41.0683C35.6582 41.3742 35.6552 41.6775 35.6081 42.3211C35.1103 42.1437 34.5868 41.8574 34.1616 41.4002Z" fill="white"/>
<path d="M55.0218 41.2487V40.9666C55.0218 40.9068 54.9705 40.8555 54.9107 40.8555H53.5496C53.5218 40.3919 53.4663 39.941 53.3787 39.4773C53.368 39.4282 53.3274 39.394 53.2782 39.394H52.9641C52.9364 39.394 52.9107 39.4068 52.8936 39.4282C52.8765 39.4496 52.8701 39.4773 52.8744 39.5051C52.9641 39.9538 53.0197 40.3961 53.0475 40.8555H51.7377C51.6757 40.8555 51.6266 40.9047 51.6266 40.9666V41.2487C51.6266 41.3106 51.6757 41.3598 51.7377 41.3598H53.0667C53.0688 41.4282 53.0688 41.4901 53.0688 41.55C53.0688 41.9581 53.0496 42.2935 53.009 42.6739C53.0047 42.7038 53.0154 42.7337 53.0347 42.7551C53.0539 42.7764 53.0817 42.7893 53.1116 42.7893H53.4022C53.4577 42.7893 53.5047 42.7465 53.5111 42.6888C53.5517 42.3064 53.5688 41.9666 53.5688 41.55C53.5688 41.5226 53.5684 41.4942 53.5679 41.4644C53.5673 41.4315 53.5667 41.3968 53.5667 41.3598H54.9107C54.9727 41.3598 55.0218 41.3106 55.0218 41.2487Z" fill="white"/>
<path d="M53.1916 38.7289C52.4971 37.0216 51.3241 35.5665 49.7985 34.5195C48.2365 33.449 46.4054 32.8828 44.5037 32.8828C41.3584 32.8828 38.4397 34.4448 36.6982 37.0622C36.679 37.09 36.6747 37.1263 36.6854 37.1584C36.6961 37.1926 36.7217 37.2161 36.7538 37.2268L36.9974 37.3101C37.0123 37.3144 37.0273 37.3165 37.0401 37.3165C37.085 37.3165 37.1277 37.293 37.1534 37.2567C37.9525 36.0815 39.0337 35.105 40.2815 34.4298C41.57 33.7332 43.0293 33.3636 44.5015 33.3636C46.2814 33.3636 47.9972 33.8892 49.4673 34.8806C50.901 35.8486 52.0142 37.2011 52.6873 38.7887C52.7065 38.8357 52.7535 38.8678 52.8048 38.8678H53.0954C53.1296 38.8678 53.1617 38.8507 53.1788 38.8229C53.2001 38.7951 53.2044 38.7609 53.1916 38.7289ZM52.745 38.8293C52.7514 38.8336 52.7578 38.8379 52.7642 38.84C52.7578 38.8357 52.7514 38.8336 52.745 38.8293Z" fill="url(#paint1_radial_527_1126)"/>
<defs>
<filter id="filter0_d_527_1126" x="0" y="0" width="88" height="88" filterUnits="userSpaceOnUse" color-interpolation-filters="sRGB">
<feFlood flood-opacity="0" result="BackgroundImageFix"/>
<feColorMatrix in="SourceAlpha" type="matrix" values="0 0 0 0 0 0 0 0 0 0 0 0 0 0 0 0 0 0 127 0" result="hardAlpha"/>
<feOffset dy="5"/>
<feGaussianBlur stdDeviation="10"/>
<feComposite in2="hardAlpha" operator="out"/>
<feColorMatrix type="matrix" values="0 0 0 0 0 0 0 0 0 0 0 0 0 0 0 0 0 0 0.25 0"/>
<feBlend mode="normal" in2="BackgroundImageFix" result="effect1_dropShadow_527_1126"/>
<feBlend mode="normal" in="SourceGraphic" in2="effect1_dropShadow_527_1126" result="shape"/>
</filter>
<radialGradient id="paint0_radial_527_1126" cx="0" cy="0" r="1" gradientUnits="userSpaceOnUse" gradientTransform="translate(44.0841 53.7229) rotate(-90) scale(29.2776 36.3503)">
<stop offset="0.0655875" stop-color="#0367DE"/>
<stop offset="0.347104" stop-color="#0057BE"/>
<stop offset="0.769378" stop-color="#000940"/>
</radialGradient>
<radialGradient id="paint1_radial_527_1126" cx="0" cy="0" r="1" gradientUnits="userSpaceOnUse" gradientTransform="translate(52.9185 38.857) scale(16.2417)">
<stop stop-color="white"/>
<stop offset="0.01" stop-color="white"/>
<stop offset="0.03" stop-color="#CBFFFF"/>
<stop offset="0.06" stop-color="#96FFFF"/>
<stop offset="0.08" stop-color="#68FFFF"/>
<stop offset="0.11" stop-color="#43FFFF"/>
<stop offset="0.14" stop-color="#25FFFF"/>
<stop offset="0.16" stop-color="#11FFFF"/>
<stop offset="0.19" stop-color="#04FFFF"/>
<stop offset="0.22" stop-color="#00FFFF"/>
<stop offset="1" stop-color="#0000FF" stop-opacity="0"/>
</radialGradient>
</defs>
</svg>
