<svg width="88" height="88" viewBox="0 0 88 88" fill="none" xmlns="http://www.w3.org/2000/svg">
<g filter="url(#filter0_d_527_1118)">
<rect x="20" y="15" width="48" height="48" rx="24" fill="white"/>
</g>
<rect x="30" y="25" width="27.5556" height="28.4444" rx="6.0766" fill="url(#paint0_linear_527_1118)"/>
<path d="M39.2687 39.0918H40.9892V32.5459H39.2653V34.9888H38.15V32.5459H36.3853V39.0918H38.1534V36.5542H39.2687V39.0918Z" fill="white"/>
<path d="M50.1595 35.7574C50.1595 36.4875 49.5815 37.0701 48.8947 37.0701C48.1874 37.0701 47.623 36.4875 47.623 35.7574C47.623 35.0274 48.1874 34.4518 48.8947 34.4518C49.5815 34.4518 50.1595 35.0274 50.1595 35.7574Z" fill="white"/>
<path fill-rule="evenodd" clip-rule="evenodd" d="M52.1011 35.7574C52.1011 37.6036 50.6594 39.1199 48.8947 39.1199C47.1095 39.1199 46.2323 37.7791 45.9841 37.2456C45.9841 38.109 45.1986 39.0918 44.0834 39.0918H41.3428V32.5424H44.2874C45.1986 32.5424 45.9841 33.5111 45.9841 34.3219C46.2017 33.7744 47.1061 32.4336 48.8947 32.4336C50.6594 32.4336 52.1011 33.8832 52.1011 35.7574ZM44.3248 37.0069C44.3248 36.7156 44.1208 36.4594 43.8658 36.4594H42.9885V37.5685H43.8658C44.1208 37.5685 44.3248 37.3123 44.3248 37.0069ZM44.3248 34.55C44.3248 34.2587 44.1208 34.0025 43.8658 34.0025H42.9885V35.0976H43.8658C44.1208 35.0976 44.3248 34.8414 44.3248 34.55ZM45.6883 35.3573C45.5625 35.5012 45.2292 35.7434 45.0252 35.7574C45.2292 35.796 45.5489 36.0488 45.6883 36.2629C45.6407 36.0874 45.6407 35.5328 45.6883 35.3573ZM48.9083 34.0938C48.014 34.0902 47.2864 34.8343 47.2864 35.7574C47.2864 36.684 48.0072 37.4281 48.8981 37.4281C49.7821 37.4281 50.4961 36.6946 50.5097 35.782C50.5199 34.8554 49.8059 34.1008 48.9083 34.0938Z" fill="white"/>
<path d="M39.6033 39.6439C40.8676 39.6439 41.8996 40.4396 41.9319 41.9444C41.9319 41.946 41.9327 41.9477 41.9331 41.9485C41.9335 41.9493 41.9335 41.9493 41.9319 41.9477V45.8561C41.9319 45.9094 41.89 45.9527 41.8383 45.9527H41.3159C41.0127 45.9527 40.7644 45.6996 40.7644 45.3834V41.951C40.7418 41.2086 40.2322 40.8158 39.6033 40.8158C38.9744 40.8158 38.4648 41.2086 38.4423 41.951V45.8594C38.4423 45.9127 38.4003 45.956 38.3487 45.956H37.8263C37.5231 45.956 37.2748 45.703 37.2748 45.3867V41.9543C37.2522 41.2119 36.7426 40.8191 36.1137 40.8191C35.4848 40.8191 34.9752 41.2119 34.9527 41.9543V45.8628C34.9527 45.916 34.9107 45.9593 34.8591 45.9593H34.3367C34.0335 45.9593 33.7852 45.7063 33.7852 45.39V41.9477C33.8174 40.4429 34.8495 39.6439 36.1137 39.6439C36.8071 39.6439 37.4328 39.8836 37.8585 40.3497C38.2842 39.8836 38.9099 39.6439 39.6033 39.6439Z" fill="white"/>
<path d="M52.8071 39.7404H53.694C53.7488 39.7404 53.7811 39.807 53.7488 39.8536L52.0008 42.5303C51.875 42.7234 51.875 42.9764 52.0008 43.1695L53.752 45.8428C53.7811 45.8894 53.7488 45.9527 53.694 45.9527H52.8071C52.562 45.9527 52.3298 45.8262 52.1943 45.6164L51.2139 44.1183C51.0848 43.9219 50.8075 43.9219 50.6785 44.1183L49.698 45.6164C49.5594 45.8262 49.3304 45.9527 49.0853 45.9527H48.1983C48.1435 45.9527 48.108 45.8894 48.1403 45.8428L49.8883 43.1662C50.0141 42.9731 50.0141 42.72 49.8883 42.527L48.1403 39.8503C48.1113 39.8037 48.1435 39.7404 48.1983 39.7404H49.0853C49.3304 39.7404 49.5626 39.867 49.698 40.0767L50.6785 41.5748C50.8075 41.7712 51.0848 41.7712 51.2139 41.5748L52.1943 40.0767C52.333 39.867 52.562 39.7404 52.8071 39.7404Z" fill="white"/>
<path fill-rule="evenodd" clip-rule="evenodd" d="M47.2179 39.7404H47.7404C47.792 39.7404 47.8307 39.7837 47.8339 39.837V45.8628C47.8339 45.916 47.792 45.9593 47.7404 45.9593H47.2179C46.9276 45.9593 46.6922 45.7296 46.6664 45.44C46.202 45.7995 45.6247 45.9826 44.999 45.9826C43.467 45.9826 42.2286 44.884 42.2286 42.8099C42.2286 40.7359 43.4703 39.6372 44.999 39.6372C45.6279 39.6372 46.2116 39.8237 46.6761 40.1899C46.7309 39.9335 46.9534 39.7404 47.2179 39.7404ZM43.3445 42.8133C43.3445 44.115 44.0863 44.8041 44.999 44.8041C45.9117 44.8041 46.6535 44.115 46.6535 42.8133C46.6535 41.5116 45.9117 40.8224 44.999 40.8224C44.0863 40.8224 43.3445 41.5116 43.3445 42.8133Z" fill="white"/>
<defs>
<filter id="filter0_d_527_1118" x="0" y="0" width="88" height="88" filterUnits="userSpaceOnUse" color-interpolation-filters="sRGB">
<feFlood flood-opacity="0" result="BackgroundImageFix"/>
<feColorMatrix in="SourceAlpha" type="matrix" values="0 0 0 0 0 0 0 0 0 0 0 0 0 0 0 0 0 0 127 0" result="hardAlpha"/>
<feOffset dy="5"/>
<feGaussianBlur stdDeviation="10"/>
<feComposite in2="hardAlpha" operator="out"/>
<feColorMatrix type="matrix" values="0 0 0 0 0 0 0 0 0 0 0 0 0 0 0 0 0 0 0.25 0"/>
<feBlend mode="normal" in2="BackgroundImageFix" result="effect1_dropShadow_527_1118"/>
<feBlend mode="normal" in="SourceGraphic" in2="effect1_dropShadow_527_1118" result="shape"/>
</filter>
<linearGradient id="paint0_linear_527_1118" x1="54.1084" y1="23.7552" x2="37.888" y2="49.0714" gradientUnits="userSpaceOnUse">
<stop stop-color="#220635"/>
<stop offset="1" stop-color="#37086E"/>
</linearGradient>
</defs>
</svg>
