<svg width="62" height="32" viewBox="0 0 62 32" fill="none" xmlns="http://www.w3.org/2000/svg">
<g clip-path="url(#clip0_722_1403)">
<path d="M39.5442 15.0717C35.6079 10.02 31.7497 5.06643 27.8906 0.113706C27.9097 0.0755147 27.9288 0.0373233 27.947 0C32.9996 0.606721 38.053 1.21344 43.1837 1.82971C41.9702 6.24602 40.7733 10.5998 39.5442 15.0708V15.0717Z" fill="#D31D54"/>
<path d="M40.1484 15.186C41.3697 10.7497 42.5762 6.36812 43.8165 1.86328C47.5723 7.10678 51.2534 12.2452 54.9354 17.3846C54.9163 17.4236 54.8972 17.4627 54.8781 17.5018C49.9957 16.7336 45.1124 15.9663 40.1493 15.1851L40.1484 15.186Z" fill="#E1136E"/>
<path d="M40.1875 15.834C44.951 16.5961 49.6173 17.3417 54.2827 18.0881C54.2914 18.135 54.3001 18.1819 54.3096 18.2288C50.2744 20.2512 46.2391 22.2736 42.1309 24.3333C41.4834 21.4993 40.8489 18.727 40.1884 15.834H40.1875Z" fill="#D31D54"/>
<path d="M34.9141 31.9473C36.4287 26.6057 37.9442 21.2632 39.4927 15.8027C39.576 15.9911 39.6324 16.077 39.6533 16.1708C40.378 19.4318 41.0959 22.6954 41.8284 25.9547C41.9013 26.2793 41.8319 26.4711 41.5698 26.6829C39.4788 28.3712 37.4017 30.0759 35.3194 31.7754C35.2213 31.8552 35.1163 31.9256 35.0139 32.0011C34.9809 31.9828 34.947 31.9655 34.9141 31.9473Z" fill="#9F1C3B"/>
<path d="M51.1562 11.1952C53.6153 10.7508 55.9762 10.3246 58.4673 9.875C57.5299 12.433 56.6272 14.8954 55.6811 17.4786C54.1534 15.3563 52.6917 13.3278 51.1562 11.1952Z" fill="#D31D54"/>
<path d="M44.0703 24.0145C47.7098 22.1588 51.3492 20.303 54.9887 18.4473C55.0182 18.4716 55.0469 18.4967 55.0764 18.521C54.9392 18.9377 54.8125 19.3578 54.6571 19.7675C54.6233 19.856 54.4966 19.9289 54.3967 19.9697C51.0012 21.3403 47.6047 22.7065 44.2075 24.0727C44.1814 24.0831 44.151 24.0822 44.1224 24.0874C44.105 24.0631 44.0877 24.0388 44.0703 24.0154V24.0145Z" fill="#E1136E"/>
<path d="M61.9354 13.0575H57.8828C58.2665 12.0124 58.6345 11.0099 58.9687 10.0977C59.9755 11.0438 60.978 11.9855 61.9806 12.9273C61.9658 12.9707 61.9502 13.0141 61.9354 13.0575Z" fill="#E1136E"/>
<path d="M33.6393 8.61648C31.5691 6.65744 29.4998 4.69753 27.4297 2.73849C27.4444 2.7003 27.4592 2.66124 27.4748 2.62305C27.9991 2.62305 28.5233 2.61523 29.0467 2.63086C29.1275 2.63346 29.2221 2.72807 29.2811 2.80272C30.7393 4.66975 32.1941 6.53939 33.6479 8.4099C33.68 8.4507 33.6931 8.50711 33.7148 8.55572C33.6896 8.57569 33.6644 8.59652 33.6401 8.61648H33.6393Z" fill="#9F1C3B"/>
<path d="M0 20.4701C0.0277755 20.0127 0.0555511 19.3348 0.0555511 18.7385V10.6367H1.26031V14.8473H1.28809C1.71774 14.0991 2.49285 13.6148 3.5735 13.6148C5.23569 13.6148 6.41268 15.0001 6.39879 17.0355C6.39879 19.4311 4.88936 20.6229 3.39382 20.6229C2.42428 20.6229 1.6483 20.2488 1.15008 19.3626H1.10842L1.05287 20.4701H0ZM1.26031 17.7828C1.26031 17.9356 1.28809 18.0875 1.31587 18.2264C1.55109 19.0709 2.25763 19.6525 3.14384 19.6525C4.41805 19.6525 5.18014 18.6135 5.18014 17.0763C5.18014 15.7327 4.48748 14.5834 3.18551 14.5834C2.35484 14.5834 1.57887 15.1511 1.32975 16.079C1.30198 16.2179 1.26031 16.3836 1.26031 16.5772V17.782V17.7828Z" fill="#EC008C"/>
<path d="M7.97656 11.1367H9.18133V15.6381H9.22299C9.4721 15.2779 9.72121 14.9454 9.95731 14.6408L12.8104 11.1367H14.3059L10.9268 15.0973L14.5689 20.471H13.1419L10.0675 15.8872L9.18133 16.9123V20.4719H7.97656V11.1376V11.1367Z" fill="#141414"/>
<path d="M19.379 20.4706L19.2818 19.626H19.2401C18.866 20.152 18.1456 20.6233 17.1899 20.6233C15.8324 20.6233 15.1406 19.6677 15.1406 18.6982C15.1406 17.0776 16.5806 16.1914 19.1707 16.2053V16.0664C19.1707 15.5126 19.0188 14.5153 17.6474 14.5153C17.0242 14.5153 16.3732 14.7089 15.9027 15.0136L15.6258 14.2107C16.1796 13.8505 16.9834 13.6152 17.8279 13.6152C19.8781 13.6152 20.3763 15.0144 20.3763 16.3572V18.8639C20.3763 19.4455 20.4041 20.0132 20.4874 20.4706H19.3799H19.379ZM19.1993 17.0499C17.8696 17.0221 16.3601 17.2573 16.3601 18.5593C16.3601 19.3483 16.8861 19.7224 17.5094 19.7224C18.3817 19.7224 18.9363 19.1686 19.1299 18.6009C19.1716 18.4759 19.1993 18.3379 19.1993 18.2129V17.0499Z" fill="#141414"/>
<path d="M22.171 19.2231C22.5312 19.4583 23.1683 19.7074 23.7776 19.7074C24.6638 19.7074 25.0796 19.2639 25.0796 18.7101C25.0796 18.1285 24.7333 17.81 23.8332 17.4776C22.6284 17.0479 22.0607 16.383 22.0607 15.5801C22.0607 14.4995 22.9331 13.6133 24.3739 13.6133C25.0527 13.6133 25.6481 13.8068 26.0222 14.029L25.7176 14.9153C25.4546 14.7495 24.9694 14.5273 24.3462 14.5273C23.6257 14.5273 23.2247 14.943 23.2247 15.4413C23.2247 15.995 23.6266 16.2441 24.4989 16.5766C25.662 17.0201 26.2575 17.6017 26.2575 18.599C26.2575 19.776 25.3435 20.6075 23.7507 20.6075C23.0164 20.6075 22.3385 20.4278 21.8672 20.1501L22.1718 19.2222L22.171 19.2231Z" fill="#141414"/>
<path d="M27.8203 10.6367H29.039V14.8195H29.0667C29.2603 14.4732 29.565 14.1685 29.9391 13.9611C30.2993 13.7537 30.7289 13.6148 31.1855 13.6148C32.0856 13.6148 33.5264 14.1685 33.5264 16.4817V20.4701H32.3078V16.6197C32.3078 15.5391 31.9059 14.6251 30.7567 14.6251C29.9677 14.6251 29.3436 15.1789 29.1223 15.8438C29.0529 16.0095 29.039 16.1901 29.039 16.4253V20.4692H27.8203V10.6367Z" fill="#141414"/>
</g>
<defs>
<clipPath id="clip0_722_1403">
<rect width="61.9785" height="32" fill="white"/>
</clipPath>
</defs>
</svg>
