<svg width="276" height="241" viewBox="0 0 276 241" fill="none" xmlns="http://www.w3.org/2000/svg">
<path opacity="0.1" d="M141.09 208.039C195.406 208.039 239.437 163.968 239.437 109.603C239.437 55.2391 195.406 11.168 141.09 11.168C86.7739 11.168 42.7422 55.2391 42.7422 109.603C42.7422 163.968 86.7739 208.039 141.09 208.039Z" fill="#EFF3FF"/>
<path d="M220.043 23.324C224.196 23.324 227.562 19.9544 227.562 15.7977C227.562 11.6411 224.196 8.27148 220.043 8.27148C215.89 8.27148 212.523 11.6411 212.523 15.7977C212.523 19.9544 215.89 23.324 220.043 23.324Z" fill="url(#paint0_linear_527_3502)" fill-opacity="0.1"/>
<path d="M51.4471 41.9401C54.1792 41.9401 56.3941 39.7232 56.3941 36.9886C56.3941 34.254 54.1792 32.0371 51.4471 32.0371C48.7149 32.0371 46.5 34.254 46.5 36.9886C46.5 39.7232 48.7149 41.9401 51.4471 41.9401Z" fill="url(#paint1_linear_527_3502)" fill-opacity="0.1"/>
<path d="M29.0906 54.6168C30.9484 54.6168 32.4546 53.1094 32.4546 51.2498C32.4546 49.3903 30.9484 47.8828 29.0906 47.8828C27.2327 47.8828 25.7266 49.3903 25.7266 51.2498C25.7266 53.1094 27.2327 54.6168 29.0906 54.6168Z" fill="#E50914"/>
<path d="M188.783 14.3379C190.532 14.3379 191.949 12.9191 191.949 11.169C191.949 9.41879 190.532 8 188.783 8C187.035 8 185.617 9.41879 185.617 11.169C185.617 12.9191 187.035 14.3379 188.783 14.3379Z" fill="#E50914"/>
<path d="M132.775 207.916C132.775 217.225 128.818 225.543 122.485 231.485C120.704 233.069 118.923 234.456 116.747 235.644C111.998 238.417 106.457 240.001 100.52 240.001C94.584 240.001 89.0433 238.417 84.2941 235.644C83.5026 235.248 82.9089 234.852 82.1174 234.258C73.8063 228.514 68.2656 218.809 68.2656 207.916C68.2656 190.09 82.711 175.83 100.323 175.83C118.33 175.632 132.775 190.09 132.775 207.916Z" fill="#525458"/>
<path d="M93.9929 215.045C94.3887 215.442 94.7844 216.036 95.3781 216.432C95.7738 216.828 96.1696 217.026 96.5654 217.422C96.7633 217.62 97.159 217.818 97.3569 218.016C97.3569 218.016 97.5548 218.016 97.5548 218.214L97.7527 218.412V221.185C97.7527 221.185 97.7527 221.185 97.5548 220.987C97.3569 220.789 96.9611 220.591 96.7633 220.393C96.3675 220.195 95.9717 219.799 95.576 219.601C95.3781 219.601 95.3781 219.403 95.1802 219.403C93.795 218.611 92.6077 217.818 92.6077 216.828C92.8056 216.432 93.2014 215.838 93.9929 215.045ZM122.092 230.494C120.905 227.919 118.728 225.345 115.958 223.958C114.573 223.364 112.99 222.77 111.407 222.77C111.011 222.77 110.417 222.77 110.021 222.77C109.823 222.77 109.626 222.77 109.428 222.77C107.251 222.572 107.053 222.176 107.053 222.176V217.62C108.438 216.432 109.823 215.045 111.011 213.659C112 212.273 112.792 210.688 113.187 208.708C114.968 208.311 116.156 206.727 115.958 204.746C115.958 203.954 115.364 203.162 115.364 202.37C115.364 201.974 115.364 201.577 115.364 201.181C115.364 200.983 115.364 200.587 115.364 200.389C115.364 200.191 115.364 199.795 115.364 199.597C115.166 198.21 114.771 196.824 113.979 195.24C111.604 190.882 107.251 188.109 102.106 188.109C101.117 188.109 100.127 188.307 99.1378 188.505C97.3569 188.902 95.576 189.694 94.1908 190.882C93.9929 191.08 93.5971 191.278 93.3993 191.674L93.2014 191.873C91.6183 193.457 90.2331 195.24 89.6395 197.418C88.848 199.597 88.848 201.775 89.0458 203.954C89.0458 203.954 89.0458 203.954 89.0458 204.152V204.35C89.0458 204.746 89.2437 204.746 89.0458 204.944C89.0458 205.142 88.848 205.142 88.848 205.341C88.4522 205.935 88.2543 206.727 88.6501 207.915C89.4416 209.896 90.6289 209.698 92.0141 210.688C92.0141 210.688 91.8162 210.688 91.8162 210.886L90.431 211.282C84.0988 213.263 81.9221 218.611 84.6924 221.978C85.6818 223.166 87.2649 224.156 89.6395 224.75C89.0458 224.75 88.4522 225.146 88.0564 225.543C85.2861 227.721 83.5051 231.088 83.1094 234.257C83.1094 234.455 83.1094 234.653 83.1094 234.851C83.9009 235.248 84.4945 235.842 85.2861 236.238H116.749C118.728 235.049 120.707 233.663 122.488 232.079C122.29 231.088 122.29 230.692 122.092 230.494Z" fill="white"/>
<path d="M122.485 231.484C120.704 233.068 118.923 234.455 116.747 235.643C111.997 238.416 106.457 240 100.52 240C94.5838 240 89.0431 238.416 84.2939 235.643C83.5024 235.247 82.9087 234.851 82.1172 234.257C82.1172 234.059 82.1172 233.861 82.1172 233.663C82.513 230.494 84.2939 227.127 87.0642 224.948C87.46 224.552 88.0537 224.354 88.6473 224.156C86.2727 223.76 84.6897 222.769 83.7002 221.383H91.2198C93.3965 224.354 96.7605 226.136 100.718 226.136C104.082 226.136 107.05 224.75 109.227 222.571C109.425 222.571 109.623 222.571 109.821 222.571C110.216 222.571 110.612 222.571 111.206 222.571C112.789 222.571 114.372 222.967 115.757 223.76C118.528 225.146 120.506 227.523 121.892 230.295C122.287 230.692 122.287 231.088 122.485 231.484Z" fill="#E50914"/>
<path d="M107.248 217.621V221.78L94.7812 222.176L95.3749 219.404C95.5728 219.404 95.5728 219.602 95.7707 219.602C96.1664 219.8 96.5622 220.196 96.958 220.394C97.1558 220.592 97.3537 220.79 97.7495 220.988C97.7495 220.988 97.9474 220.988 97.9474 221.186V218.413L97.7495 218.215C99.9262 219.404 102.894 220.196 107.248 217.621Z" fill="url(#paint2_linear_527_3502)"/>
<path d="M115.363 200.389C112.989 201.182 110.218 201.578 107.646 201.38C103.49 200.984 99.5325 199.399 96.3664 196.626C95.377 199.597 92.8045 201.776 89.8363 203.162C89.4405 203.36 89.0448 203.558 88.649 203.558C88.649 203.558 88.649 203.558 88.649 203.36C88.4511 201.182 88.4511 199.003 89.2426 196.824C89.8363 194.646 91.2215 192.863 92.8045 191.279L93.0024 191.081C93.2003 190.883 93.5961 190.685 93.7939 190.288C95.1791 189.1 96.9601 188.308 98.741 187.912C99.7304 187.714 100.72 187.516 101.709 187.516C106.854 187.516 111.405 190.288 113.582 194.646C114.374 196.23 114.769 197.815 114.967 199.003C115.363 199.795 115.363 200.191 115.363 200.389Z" fill="#141414"/>
<path d="M99.5262 229.703C98.3389 231.089 96.3601 231.089 94.5792 231.089C96.3601 229.307 95.3707 223.563 89.0384 224.157C80.3316 222.573 81.1232 213.462 89.83 210.689L91.2152 210.293L91.413 210.491C92.0067 212.274 92.9961 213.858 93.9855 215.046C90.4236 218.017 95.3707 218.81 97.7453 221.186C99.7241 222.375 101.505 227.326 99.5262 229.703Z" fill="#141414"/>
<path d="M132.775 207.916C132.775 217.225 128.818 225.543 122.485 231.485C120.704 233.069 118.923 234.456 116.747 235.644C111.998 238.417 106.457 240.001 100.52 240.001C94.584 240.001 89.0433 238.417 84.2941 235.644C83.5026 235.248 82.9089 234.852 82.1174 234.258C73.8063 228.514 68.2656 218.809 68.2656 207.916C68.2656 190.09 82.711 175.83 100.323 175.83C118.33 175.632 132.775 190.09 132.775 207.916Z" stroke="#87888B" stroke-width="2" stroke-miterlimit="10" stroke-linecap="round" stroke-linejoin="round"/>
<path d="M221.83 129.085C221.83 138.79 217.674 147.306 211.144 153.446C205.208 158.992 197.292 162.359 188.585 162.359C181.66 162.359 175.129 160.18 169.787 156.417C161.08 150.475 155.539 140.572 155.539 129.283C155.539 111.061 170.38 96.207 188.585 96.207C206.791 96.207 221.83 110.863 221.83 129.085Z" fill="#525458"/>
<path d="M212.731 151.861C212.336 152.455 211.742 152.851 211.148 153.247C205.212 158.793 197.297 162.16 188.59 162.16C181.664 162.16 175.134 159.981 169.791 156.218C168.208 155.228 166.823 153.842 165.438 152.653C166.229 151.663 167.416 151.069 169.989 150.078L170.978 149.682C172.957 148.89 175.727 147.9 179.289 146.315C179.883 146.117 180.279 145.721 180.674 145.325C180.872 145.127 181.07 144.929 181.07 144.533C181.268 144.137 181.466 143.542 181.466 143.146V136.412C181.268 136.214 181.268 136.214 181.07 136.016C180.477 135.224 180.081 134.234 180.081 133.045L179.685 132.847C177.904 133.243 178.102 131.461 177.706 127.896C177.508 126.509 177.706 126.113 178.498 125.915L179.091 125.123C177.904 122.35 177.31 119.775 177.31 117.795C177.31 114.428 178.696 112.249 180.674 111.259C179.487 108.882 179.487 108.09 179.487 108.09C179.487 108.09 186.413 109.278 188.788 108.882C191.756 108.288 196.505 109.08 198.286 113.041C201.254 114.23 202.244 116.012 202.639 117.993C203.035 121.162 201.254 124.529 200.858 125.915V126.113C201.254 126.311 201.452 126.707 201.254 128.094C200.858 131.461 200.858 133.441 199.275 133.045L197.692 135.818C197.692 136.214 197.692 136.214 197.494 136.412C197.494 137.007 197.494 137.997 197.494 143.344C197.494 143.939 197.692 144.731 198.088 145.127C198.286 145.325 198.286 145.523 198.484 145.523C198.88 145.919 199.275 146.315 199.671 146.315C203.629 147.9 206.399 149.088 208.576 149.88C210.555 150.673 211.94 151.267 212.731 151.861Z" fill="white"/>
<path d="M212.731 151.86C212.336 152.454 211.742 152.85 211.148 153.247C205.212 158.792 197.297 162.159 188.59 162.159C181.664 162.159 175.134 159.981 169.791 156.217C168.208 155.227 166.823 153.841 165.438 152.652C166.229 151.662 167.416 151.068 169.989 150.078L170.978 149.682C172.957 148.889 175.727 147.899 179.289 146.315C179.883 146.116 180.279 145.72 180.674 145.324C182.653 148.097 185.819 149.88 189.579 149.88C193.141 149.88 196.307 148.097 198.286 145.522C198.682 145.918 199.077 146.315 199.473 146.315C203.431 147.899 206.201 149.087 208.378 149.88C210.555 150.672 211.94 151.266 212.731 151.86Z" fill="#141414"/>
<path d="M200.66 125.717C200.858 124.925 200.462 123.737 200.067 123.142C200.067 122.944 199.869 122.944 199.869 122.746C198.484 119.973 195.515 118.983 192.745 118.785C185.423 118.389 184.83 119.775 182.653 117.795C183.444 118.785 183.444 120.568 182.257 122.548C181.466 123.935 180.08 124.727 178.695 125.123C175.331 117.597 177.112 112.843 180.278 111.259C179.091 108.882 179.091 108.09 179.091 108.09C179.091 108.09 186.017 109.278 188.392 108.882C191.36 108.288 196.109 109.08 197.89 113.041C200.858 114.23 201.848 116.012 202.243 117.993C202.837 120.964 201.056 124.331 200.66 125.717Z" fill="#141414"/>
<path d="M181.661 143.147V136.413C181.464 136.215 181.464 136.215 181.266 136.017V135.621C181.661 136.215 182.057 136.809 182.651 137.206L187.994 140.969C189.181 141.959 190.962 141.959 192.149 140.969L197.096 136.611C197.294 136.413 197.492 136.413 197.69 136.215C197.69 136.809 197.69 137.8 197.69 143.147C197.69 143.543 197.69 143.742 197.888 144.138H181.661C181.464 143.742 181.661 143.543 181.661 143.147Z" fill="url(#paint3_linear_527_3502)"/>
<path d="M221.83 129.085C221.83 138.79 217.674 147.306 211.144 153.446C205.208 158.992 197.292 162.359 188.585 162.359C181.66 162.359 175.129 160.18 169.787 156.417C161.08 150.475 155.539 140.572 155.539 129.283C155.539 111.061 170.38 96.207 188.585 96.207C206.791 96.207 221.83 110.863 221.83 129.085Z" stroke="#87888B" stroke-width="2" stroke-miterlimit="10" stroke-linecap="round" stroke-linejoin="round"/>
<path d="M0 152.061C0 158.399 5.14494 163.549 11.4772 163.549H113.189C114.178 163.549 115.168 163.945 115.761 164.539L130.009 178.8C130.404 179.394 131.196 179.592 131.988 179.196C132.581 178.998 133.175 178.205 133.175 177.611V111.657C133.175 105.319 128.03 100.17 121.698 100.17H11.4772C5.14494 100.17 0 105.319 0 111.657V152.061Z" fill="#4E4E4F"/>
<path opacity="0.7" d="M108.242 125.918H20.7784C19.9868 125.918 19.1953 125.126 19.1953 124.334V119.184C19.1953 118.392 19.9868 117.6 20.7784 117.6H108.242C109.034 117.6 109.825 118.392 109.825 119.184V124.334C109.825 125.324 109.232 125.918 108.242 125.918Z" fill="url(#paint4_linear_527_3502)" fill-opacity="0.1"/>
<path opacity="0.7" d="M74.6024 147.506H20.7784C19.9868 147.506 19.1953 146.714 19.1953 145.922V140.772C19.1953 139.98 19.9868 139.188 20.7784 139.188H74.6024C75.3939 139.188 76.1854 139.98 76.1854 140.772V145.922C76.1854 146.912 75.5918 147.506 74.6024 147.506Z" fill="url(#paint5_linear_527_3502)" fill-opacity="0.1"/>
<g filter="url(#filter0_d_527_3502)">
<path d="M84.6953 60.3594C84.6953 64.9148 88.4551 68.6779 93.0064 68.6779H118.335C119.127 68.6779 119.72 68.876 120.314 69.4702L130.802 79.9673C131.198 80.3634 131.791 80.5615 132.187 80.3634C132.583 80.1654 132.979 79.7693 132.979 79.1751V30.6505C132.979 26.0952 129.219 22.332 124.668 22.332H93.0064C88.4551 22.332 84.6953 26.0952 84.6953 30.6505V60.3594Z" fill="#E50914"/>
</g>
<path d="M275.258 74.2237C275.258 79.9674 270.707 84.5227 264.968 84.5227H173.546C172.755 84.5227 171.765 84.9189 171.172 85.513L158.309 98.3869C157.914 98.783 157.122 98.9811 156.528 98.783C155.935 98.585 155.539 97.9908 155.539 97.3966V37.9788C155.539 32.2351 160.09 27.6797 165.829 27.6797H264.77C270.509 27.6797 275.06 32.2351 275.06 37.9788V74.2237H275.258Z" fill="#4E4E4F"/>
<path opacity="0.7" d="M254.874 50.8524H176.315C175.523 50.8524 174.93 50.2583 174.93 49.466V44.7126C174.93 43.9204 175.523 43.3262 176.315 43.3262H254.874C255.666 43.3262 256.259 43.9204 256.259 44.7126V49.466C256.259 50.2583 255.666 50.8524 254.874 50.8524Z" fill="url(#paint6_linear_527_3502)" fill-opacity="0.1"/>
<path opacity="0.7" d="M224.796 70.2606H176.315C175.523 70.2606 174.93 69.6665 174.93 68.8742V64.1208C174.93 63.3286 175.523 62.7344 176.315 62.7344H224.796C225.588 62.7344 226.181 63.3286 226.181 64.1208V68.8742C226.181 69.4684 225.39 70.2606 224.796 70.2606Z" fill="url(#paint7_linear_527_3502)" fill-opacity="0.1"/>
<path opacity="0.5" d="M119.914 40.355C117.539 36.3939 111.8 35.7997 108.832 39.5628C105.864 35.7997 100.125 36.3939 97.7507 40.355C95.7719 43.722 97.1571 46.891 99.7296 50.06C102.302 53.2289 106.062 56.0017 107.843 56.992C108.239 57.1901 108.436 57.1901 108.832 57.1901C109.228 57.1901 109.624 57.1901 109.822 56.992C111.603 55.8037 115.362 53.2289 117.935 50.06C120.507 46.891 122.09 43.722 119.914 40.355Z" fill="white"/>
<defs>
<filter id="filter0_d_527_3502" x="41.4411" y="0.704914" width="134.79" height="144.618" filterUnits="userSpaceOnUse" color-interpolation-filters="sRGB">
<feFlood flood-opacity="0" result="BackgroundImageFix"/>
<feColorMatrix in="SourceAlpha" type="matrix" values="0 0 0 0 0 0 0 0 0 0 0 0 0 0 0 0 0 0 127 0" result="hardAlpha"/>
<feOffset dy="21.6271"/>
<feGaussianBlur stdDeviation="21.6271"/>
<feColorMatrix type="matrix" values="0 0 0 0 0.397708 0 0 0 0 0.47749 0 0 0 0 0.575 0 0 0 0.18 0"/>
<feBlend mode="normal" in2="BackgroundImageFix" result="effect1_dropShadow_527_3502"/>
<feBlend mode="normal" in="SourceGraphic" in2="effect1_dropShadow_527_3502" result="shape"/>
</filter>
<linearGradient id="paint0_linear_527_3502" x1="220.043" y1="8.27148" x2="220.043" y2="23.324" gradientUnits="userSpaceOnUse">
<stop stop-color="white"/>
<stop offset="1" stop-color="white" stop-opacity="0"/>
</linearGradient>
<linearGradient id="paint1_linear_527_3502" x1="51.4471" y1="32.0371" x2="51.4471" y2="41.9401" gradientUnits="userSpaceOnUse">
<stop stop-color="white"/>
<stop offset="1" stop-color="white" stop-opacity="0"/>
</linearGradient>
<linearGradient id="paint2_linear_527_3502" x1="100.99" y1="222.035" x2="100.99" y2="219.648" gradientUnits="userSpaceOnUse">
<stop stop-color="white"/>
<stop offset="0.9913" stop-color="#D6DEEA"/>
</linearGradient>
<linearGradient id="paint3_linear_527_3502" x1="189.545" y1="143.872" x2="189.545" y2="139.411" gradientUnits="userSpaceOnUse">
<stop stop-color="white"/>
<stop offset="0.9913" stop-color="#D6DEEA"/>
</linearGradient>
<linearGradient id="paint4_linear_527_3502" x1="19.2758" y1="121.66" x2="109.539" y2="121.66" gradientUnits="userSpaceOnUse">
<stop stop-color="white"/>
<stop offset="1" stop-color="white" stop-opacity="0"/>
</linearGradient>
<linearGradient id="paint5_linear_527_3502" x1="19.246" y1="143.248" x2="76.0051" y2="143.248" gradientUnits="userSpaceOnUse">
<stop stop-color="white"/>
<stop offset="1" stop-color="white" stop-opacity="0"/>
</linearGradient>
<linearGradient id="paint6_linear_527_3502" x1="175.002" y1="47" x2="256.002" y2="47" gradientUnits="userSpaceOnUse">
<stop stop-color="white"/>
<stop offset="1" stop-color="white" stop-opacity="0"/>
</linearGradient>
<linearGradient id="paint7_linear_527_3502" x1="174.975" y1="66.4082" x2="226.019" y2="66.4082" gradientUnits="userSpaceOnUse">
<stop stop-color="white"/>
<stop offset="1" stop-color="white" stop-opacity="0"/>
</linearGradient>
</defs>
</svg>
