<svg
    width="48"
    height="48"
    viewBox="0 0 48 48"
    fill="none"
    xmlns="http://www.w3.org/2000/svg"
>
    <circle cx="24" cy="24" r="24" fill="#27AE60" />
    <path
        d="M21 23.5004L23 25.5004L27.5 21.0004M32 24.0004C32 28.9088 26.646 32.4788 24.698 33.6152C24.4766 33.7444 24.3659 33.809 24.2097 33.8425C24.0884 33.8685 23.9116 33.8685 23.7903 33.8425C23.6341 33.809 23.5234 33.7444 23.302 33.6152C21.354 32.4788 16 28.9088 16 24.0004V19.218C16 18.4184 16 18.0187 16.1308 17.6751C16.2463 17.3715 16.434 17.1006 16.6777 16.8859C16.9535 16.6428 17.3278 16.5024 18.0764 16.2217L23.4382 14.211C23.6461 14.1331 23.75 14.0941 23.857 14.0786C23.9518 14.0649 24.0482 14.0649 24.143 14.0786C24.25 14.0941 24.3539 14.1331 24.5618 14.211L29.9236 16.2217C30.6722 16.5024 31.0465 16.6428 31.3223 16.8859C31.566 17.1006 31.7537 17.3715 31.8692 17.6751C32 18.0187 32 18.4184 32 19.218V24.0004Z"
        stroke="white"
        stroke-width="2"
        stroke-linecap="round"
        stroke-linejoin="round"
    />
</svg>