<svg width="20" height="20" viewBox="0 0 20 20" fill="none" xmlns="http://www.w3.org/2000/svg">
    <g clip-path="url(#clip0_527_2877)">
        <path
            d="M13.3307 6.66602V4.33268C13.3307 3.39926 13.3307 2.93255 13.1491 2.57603C12.9893 2.26243 12.7343 2.00746 12.4207 1.84767C12.0642 1.66602 11.5975 1.66602 10.6641 1.66602H4.33073C3.39731 1.66602 2.9306 1.66602 2.57408 1.84767C2.26047 2.00746 2.00551 2.26243 1.84572 2.57603C1.66406 2.93255 1.66406 3.39926 1.66406 4.33268V10.666C1.66406 11.5994 1.66406 12.0661 1.84572 12.4227C2.00551 12.7363 2.26047 12.9912 2.57408 13.151C2.9306 13.3327 3.39731 13.3327 4.33073 13.3327H6.66406M9.33073 18.3327H15.6641C16.5975 18.3327 17.0642 18.3327 17.4207 18.151C17.7343 17.9912 17.9893 17.7363 18.1491 17.4227C18.3307 17.0661 18.3307 16.5994 18.3307 15.666V9.33268C18.3307 8.39926 18.3307 7.93255 18.1491 7.57603C17.9893 7.26243 17.7343 7.00746 17.4207 6.84767C17.0642 6.66602 16.5975 6.66602 15.6641 6.66602H9.33073C8.39731 6.66602 7.9306 6.66602 7.57408 6.84767C7.26048 7.00746 7.00551 7.26243 6.84572 7.57603C6.66406 7.93255 6.66406 8.39926 6.66406 9.33268V15.666C6.66406 16.5994 6.66406 17.0661 6.84572 17.4227C7.00551 17.7363 7.26048 17.9912 7.57408 18.151C7.9306 18.3327 8.39731 18.3327 9.33073 18.3327Z"
            stroke="white" stroke-width="1.5" stroke-linecap="round" stroke-linejoin="round" />
    </g>
    <defs>
        <clipPath id="clip0_527_2877">
            <rect width="20" height="20" fill="white" />
        </clipPath>
    </defs>
</svg>
    