<svg width="20" height="20" viewBox="0 0 20 20" fill="none" xmlns="http://www.w3.org/2000/svg">
<g id="fi_9030201" clip-path="url(#clip0_527_3449)">
<g id="Group">
<path id="Vector" d="M19.9374 16.7304C20.1322 17.12 19.8489 17.5783 19.4133 17.5783H10.0083C9.84652 17.5783 9.70004 17.5127 9.59398 17.4067L13.5002 13.5004C13.6102 13.3905 13.6719 13.2415 13.6719 13.0861V8.59395H19.4133C19.8489 8.59395 20.1322 9.05234 19.9374 9.44191L18.1153 13.0861L19.9374 16.7304ZM2.14844 4.29707C1.62949 4.29707 1.15297 4.11211 0.78125 3.80469V19.4143C0.78125 19.7379 1.04359 20.0002 1.36719 20.0002H2.92969C3.25328 20.0002 3.51562 19.7379 3.51562 19.4143V3.80469C3.14391 4.11211 2.66738 4.29707 2.14844 4.29707Z" fill="url(#paint0_linear_527_3449)"/>
<path id="Vector_2" d="M13.6719 5.27344V13.0859C13.6719 13.2413 13.6102 13.3904 13.5003 13.5002L9.59402 17.4065C9.48801 17.3005 9.42242 17.154 9.42242 16.9922V13.6719H3.51562V4.6875H13.0859C13.4095 4.6875 13.6719 4.94984 13.6719 5.27344ZM4.29688 2.14844C4.29688 0.963789 3.33309 0 2.14844 0C0.963789 0 0 0.963789 0 2.14844C0 3.33309 0.963789 4.29688 2.14844 4.29688C3.33309 4.29688 4.29688 3.33309 4.29688 2.14844Z" fill="url(#paint1_linear_527_3449)"/>
</g>
</g>
<defs>
<linearGradient id="paint0_linear_527_3449" x1="10.3906" y1="20.0002" x2="10.3906" y2="3.80469" gradientUnits="userSpaceOnUse">
<stop stop-color="#E50914"/>
<stop offset="1" stop-color="#FF81FF"/>
</linearGradient>
<linearGradient id="paint1_linear_527_3449" x1="6.83594" y1="17.4065" x2="6.83594" y2="0" gradientUnits="userSpaceOnUse">
<stop stop-color="#FFBEF9"/>
<stop offset="1" stop-color="#FFF1FF"/>
</linearGradient>
<clipPath id="clip0_527_3449">
<rect width="20" height="20" fill="white"/>
</clipPath>
</defs>
</svg>
