<svg width="306" height="343" viewBox="0 0 306 343" fill="none" xmlns="http://www.w3.org/2000/svg">
<path d="M1 343V33C1 15.3269 15.3269 1 33 1H273C290.673 1 305 15.3269 305 33V343" stroke="url(#paint0_linear_527_3384)" stroke-opacity="0.1"/>
<path d="M8 42C8 24.3269 22.3269 10 40 10H98.3074C104.575 10 110.594 12.452 115.078 16.8318L125.013 26.5367C129.497 30.9164 135.516 33.3684 141.784 33.3684H170.451C177.073 33.3684 183.401 30.6323 187.937 25.8076L195.69 17.5608C200.226 12.7361 206.553 10 213.176 10H266C283.673 10 298 24.3269 298 42V343H8V42Z" fill="url(#paint1_linear_527_3384)" fill-opacity="0.1"/>
<path d="M69.2781 131.372C71.3792 130.689 72.5286 128.433 71.8455 126.332C71.1623 124.231 68.9053 123.081 66.8043 123.764C64.7032 124.447 63.5538 126.703 64.2369 128.804C64.9201 130.905 67.1771 132.055 69.2781 131.372Z" fill="#2A2E37"/>
<path d="M97 107C98.6569 107 100 105.657 100 104C100 102.343 98.6569 101 97 101C95.3431 101 94 102.343 94 104C94 105.657 95.3431 107 97 107Z" fill="url(#paint2_linear_527_3384)"/>
<path d="M241 181C242.657 181 244 179.657 244 178C244 176.343 242.657 175 241 175C239.343 175 238 176.343 238 178C238 179.657 239.343 181 241 181Z" fill="url(#paint3_linear_527_3384)"/>
<path d="M70 243C71.6569 243 73 241.657 73 240C73 238.343 71.6569 237 70 237C68.3431 237 67 238.343 67 240C67 241.657 68.3431 243 70 243Z" fill="url(#paint4_linear_527_3384)"/>
<path d="M237.571 142.211C240.222 139.79 240.407 135.679 237.984 133.03C235.562 130.38 231.45 130.195 228.799 132.616C226.149 135.037 225.964 139.148 228.386 141.797C230.808 144.447 234.92 144.632 237.571 142.211Z" fill="#2A2E37"/>
<path d="M238.264 114.405C239.487 113.288 239.572 111.39 238.454 110.168C237.336 108.945 235.438 108.859 234.215 109.977C232.992 111.094 232.906 112.991 234.024 114.214C235.142 115.437 237.04 115.522 238.264 114.405Z" fill="#2A2E37"/>
<path d="M105.581 231L92 267H103.904L120 237.592L105.581 231Z" fill="#353B4A"/>
<path d="M178.419 231L192 267H180.096L164 237.592L178.419 231Z" fill="#353B4A"/>
<path d="M148 245C183.899 245 213 216.122 213 180.5C213 144.878 183.899 116 148 116C112.101 116 83 144.878 83 180.5C83 216.122 112.101 245 148 245Z" fill="#353B4A"/>
<path d="M142 245C177.899 245 207 216.122 207 180.5C207 144.878 177.899 116 142 116C106.101 116 77 144.878 77 180.5C77 216.122 106.101 245 142 245Z" fill="#69738D"/>
<path d="M141 229C168.062 229 190 207.286 190 180.5C190 153.714 168.062 132 141 132C113.938 132 92 153.714 92 180.5C92 207.286 113.938 229 141 229Z" fill="#2A2E39"/>
<path d="M141.5 215C160.554 215 176 199.554 176 180.5C176 161.446 160.554 146 141.5 146C122.446 146 107 161.446 107 180.5C107 199.554 122.446 215 141.5 215Z" fill="#69738D"/>
<path d="M142 200C152.493 200 161 191.493 161 181C161 170.507 152.493 162 142 162C131.507 162 123 170.507 123 181C123 191.493 131.507 200 142 200Z" fill="#2A2E39"/>
<path d="M234 226.167C234 228.667 233.667 231.167 233.167 233.5C232.833 235 232.333 236.333 231.833 237.667C228.667 246 222 252.667 213.667 255.833C213 256 212.5 256.333 211.833 256.5C208.667 257.5 205.5 258 202 258C184.333 258 170 243.667 170 226C170 208.333 184.333 194 202 194C219.667 194.167 234 208.5 234 226.167Z" fill="url(#paint5_linear_527_3384)"/>
<path d="M232 234.319C231.669 235.664 231.174 237.008 230.678 238.353C227.538 246.42 221.258 252.807 213.326 256L195.479 237.849L193 235.328L210.517 219.361L216.301 216L231.835 231.798L232 234.319Z" fill="url(#paint6_linear_527_3384)"/>
<path d="M198.155 239C197.152 239 196.15 238.661 195.481 237.815L188.128 230.365C186.624 228.841 186.624 226.471 188.128 224.947C189.632 223.423 191.972 223.423 193.476 224.947L198.155 229.688L211.524 216.143C213.028 214.619 215.368 214.619 216.872 216.143C218.376 217.667 218.376 220.037 216.872 221.561L200.829 237.815C200.16 238.661 199.158 239 198.155 239Z" fill="url(#paint7_linear_527_3384)"/>
<path d="M108.527 169.556L141.913 178.347C143.423 178.685 144.262 180.376 143.927 181.897C143.591 183.419 141.913 184.264 140.403 183.926L67.0867 164.653C65.5768 164.315 64.7379 162.624 65.0734 161.103C65.409 159.581 67.0867 158.736 68.5967 159.074L93.7626 165.667" fill="#B5BED7"/>
<path d="M98.317 161.977L97.48 160.273C96.4755 158.228 94.4666 156.524 92.2903 156.012L69.5227 150.048C67.8486 149.707 66.5094 151.241 67.3464 152.775L72.5361 163.51L62.8264 170.156C61.4871 171.179 61.8219 173.224 63.496 173.735L86.2636 179.699C88.4399 180.381 90.951 179.87 92.7925 178.507L100.661 173.053C102 172.201 102.335 170.497 101.665 169.134L98.317 161.977Z" fill="url(#paint8_linear_527_3384)"/>
<path d="M65 269H216.116" stroke="#2B323C" stroke-width="2" stroke-miterlimit="10" stroke-linecap="round" stroke-linejoin="round"/>
<defs>
<linearGradient id="paint0_linear_527_3384" x1="153" y1="1" x2="153" y2="343" gradientUnits="userSpaceOnUse">
<stop stop-color="white"/>
<stop offset="1" stop-color="white" stop-opacity="0"/>
</linearGradient>
<linearGradient id="paint1_linear_527_3384" x1="153" y1="10" x2="153" y2="343" gradientUnits="userSpaceOnUse">
<stop stop-color="white"/>
<stop offset="1" stop-color="white" stop-opacity="0"/>
</linearGradient>
<linearGradient id="paint2_linear_527_3384" x1="95.3882" y1="101.554" x2="98.6903" y2="106.583" gradientUnits="userSpaceOnUse">
<stop stop-color="#E50914"/>
<stop offset="1" stop-color="#94080F"/>
</linearGradient>
<linearGradient id="paint3_linear_527_3384" x1="239.388" y1="175.554" x2="242.69" y2="180.583" gradientUnits="userSpaceOnUse">
<stop stop-color="#E50914"/>
<stop offset="1" stop-color="#94080F"/>
</linearGradient>
<linearGradient id="paint4_linear_527_3384" x1="68.3882" y1="237.554" x2="71.6903" y2="242.583" gradientUnits="userSpaceOnUse">
<stop stop-color="#E50914"/>
<stop offset="1" stop-color="#94080F"/>
</linearGradient>
<linearGradient id="paint5_linear_527_3384" x1="184.807" y1="199.911" x2="220.03" y2="253.554" gradientUnits="userSpaceOnUse">
<stop stop-color="#E50914"/>
<stop offset="1" stop-color="#94080F"/>
</linearGradient>
<linearGradient id="paint6_linear_527_3384" x1="204.146" y1="225.102" x2="217.695" y2="238.424" gradientUnits="userSpaceOnUse">
<stop stop-color="#E50914"/>
<stop offset="1" stop-color="#990F16"/>
</linearGradient>
<linearGradient id="paint7_linear_527_3384" x1="210.697" y1="231.514" x2="197.271" y2="218.262" gradientUnits="userSpaceOnUse">
<stop offset="0.0113208" stop-color="#C2D1FF"/>
<stop offset="1" stop-color="white"/>
</linearGradient>
<linearGradient id="paint8_linear_527_3384" x1="71.2546" y1="152.771" x2="85.5176" y2="181.733" gradientUnits="userSpaceOnUse">
<stop stop-color="#E50914"/>
<stop offset="1" stop-color="#94080F"/>
</linearGradient>
</defs>
</svg>
