<svg width="164" height="164" viewBox="0 0 164 164" fill="none" xmlns="http://www.w3.org/2000/svg">
<g id="Group 343">
<path id="Vector" opacity="0.3" d="M82 164C127.287 164 164 127.287 164 82C164 36.7127 127.287 0 82 0C36.7126 0 0 36.7127 0 82C0 127.287 36.7126 164 82 164Z" fill="#EAEEF9"/>
<g id="Group 342">
<path id="Vector_2" d="M109.11 106.641H54.8952C49.9968 106.641 46.0234 102.281 46.0234 96.9057V66.2626C46.0234 60.8875 49.9968 56.5273 54.8952 56.5273H109.11C114.008 56.5273 117.982 60.8875 117.982 66.2626V96.9057C117.989 102.289 114.016 106.641 109.11 106.641Z" fill="#E50914"/>
<path id="Vector_3" d="M93.7963 81.8156C94.8431 82.398 94.8431 83.9019 93.7889 84.4769L84.2639 89.7187L74.584 95.0489C73.5667 95.6092 72.3281 94.8719 72.3281 93.7144L72.3428 83.1132L72.3576 72.5117C72.3576 71.3542 73.6035 70.6243 74.6135 71.1846L84.2786 76.5443L93.7963 81.8156Z" fill="white"/>
</g>
</g>
</svg>
