<svg width="56" height="56" viewBox="0 0 56 56" fill="none" xmlns="http://www.w3.org/2000/svg">
<path d="M0 28C0 12.536 12.536 0 28 0C43.464 0 56 12.536 56 28V50C56 53.3137 53.3137 56 50 56H28C12.536 56 0 43.464 0 28Z" fill="#E50914"/>
<path d="M33.8333 27.9999H33.8203M28 27.9999H27.987M22.1666 27.9999H22.1537M28 39.6666C21.5566 39.6666 16.3333 34.4432 16.3333 27.9999C16.3333 21.5566 21.5566 16.3333 28 16.3333C34.4433 16.3333 39.6666 21.5566 39.6666 27.9999C39.6666 29.5518 39.3636 31.0329 38.8136 32.3872C38.7083 32.6465 38.6557 32.7761 38.6322 32.8808C38.6092 32.9833 38.6008 33.0592 38.6008 33.1642C38.6008 33.2716 38.6203 33.3885 38.6593 33.6224L39.4279 38.2345C39.5084 38.7175 39.5487 38.9589 39.4738 39.1336C39.4082 39.2864 39.2864 39.4082 39.1336 39.4737C38.959 39.5486 38.7175 39.5084 38.2345 39.4279L33.6225 38.6592C33.3886 38.6202 33.2716 38.6007 33.1642 38.6008C33.0592 38.6008 32.9834 38.6092 32.8809 38.6321C32.7761 38.6556 32.6465 38.7083 32.3873 38.8135C31.0329 39.3636 29.5518 39.6666 28 39.6666ZM33.1851 27.9999C33.1851 28.3579 33.4753 28.6481 33.8333 28.6481C34.1913 28.6481 34.4814 28.3579 34.4814 27.9999C34.4814 27.642 34.1913 27.3518 33.8333 27.3518C33.4753 27.3518 33.1851 27.642 33.1851 27.9999ZM27.3518 27.9999C27.3518 28.3579 27.642 28.6481 28 28.6481C28.3579 28.6481 28.6481 28.3579 28.6481 27.9999C28.6481 27.642 28.3579 27.3518 28 27.3518C27.642 27.3518 27.3518 27.642 27.3518 27.9999ZM21.5185 27.9999C21.5185 28.3579 21.8087 28.6481 22.1666 28.6481C22.5246 28.6481 22.8148 28.3579 22.8148 27.9999C22.8148 27.642 22.5246 27.3518 22.1666 27.3518C21.8087 27.3518 21.5185 27.642 21.5185 27.9999Z" stroke="white" stroke-width="2.5" stroke-linecap="round" stroke-linejoin="round"/>
</svg>
